<svg width="49" height="46" viewBox="0 0 49 46" fill="none" xmlns="http://www.w3.org/2000/svg">
<g filter="url(#filter0_i_438_165127)">
<path fill-rule="evenodd" clip-rule="evenodd" d="M29.4245 20.8523L38.3515 5.90707C39.0661 4.71057 40.2138 3.86245 41.527 3.51443H7.20574C8.51916 3.86249 9.66689 4.71075 10.3815 5.90744L19.3066 20.8523H29.4245ZM5.85557 6.85313C6.4741 6.85313 7.04709 7.17833 7.36423 7.70938L15.4931 21.321H10.6604C4.77284 21.321 0 26.0938 0 31.9814C0 35.6042 1.80713 38.8049 4.56914 40.7313V45.6873H44.165V40.7308C46.9266 38.8043 48.7334 35.6039 48.7334 31.9814C48.7334 26.0938 43.9605 21.321 38.0729 21.321H33.2382L41.3686 7.70925C41.6858 7.17828 42.2587 6.85313 42.8772 6.85313H43.9301C44.9006 6.85313 45.6873 6.0664 45.6873 5.09592V1.75721C45.6873 0.786731 44.9006 0 43.9301 0H4.8028C3.83231 0 3.04558 0.78673 3.04558 1.75721V5.09592C3.04558 6.0664 3.83231 6.85313 4.8028 6.85313H5.85557ZM24.3667 18.275L29.4393 9.48895H25.2453V4.56876H23.4881V9.48895H19.2941L24.3667 18.275ZM38.0729 26.5926H10.6604C7.68428 26.5926 5.27164 29.0053 5.27164 31.9814C5.27164 34.9576 7.68428 37.3702 10.6604 37.3702H38.0729C41.0491 37.3702 43.4617 34.9576 43.4617 31.9814C43.4617 29.0053 41.0491 26.5926 38.0729 26.5926ZM12.1831 35.0274C13.8653 35.0274 15.2289 33.6637 15.2289 31.9815C15.2289 30.2994 13.8653 28.9357 12.1831 28.9357C10.5009 28.9357 9.13726 30.2994 9.13726 31.9815C9.13726 33.6637 10.5009 35.0274 12.1831 35.0274ZM27.4128 31.9816C27.4128 33.6638 26.0492 35.0274 24.367 35.0274C22.6848 35.0274 21.3212 33.6638 21.3212 31.9816C21.3212 30.2994 22.6848 28.9357 24.367 28.9357C26.0492 28.9357 27.4128 30.2994 27.4128 31.9816ZM36.5498 35.0274C38.232 35.0274 39.5957 33.6638 39.5957 31.9816C39.5957 30.2994 38.232 28.9357 36.5498 28.9357C34.8677 28.9357 33.504 30.2994 33.504 31.9816C33.504 33.6638 34.8677 35.0274 36.5498 35.0274Z" fill="#209B9B"/>
</g>
<defs>
<filter id="filter0_i_438_165127" x="0" y="0" width="48.7334" height="49.6875" filterUnits="userSpaceOnUse" color-interpolation-filters="sRGB">
<feFlood flood-opacity="0" result="BackgroundImageFix"/>
<feBlend mode="normal" in="SourceGraphic" in2="BackgroundImageFix" result="shape"/>
<feColorMatrix in="SourceAlpha" type="matrix" values="0 0 0 0 0 0 0 0 0 0 0 0 0 0 0 0 0 0 127 0" result="hardAlpha"/>
<feOffset dy="4"/>
<feGaussianBlur stdDeviation="2"/>
<feComposite in2="hardAlpha" operator="arithmetic" k2="-1" k3="1"/>
<feColorMatrix type="matrix" values="0 0 0 0 0 0 0 0 0 0 0 0 0 0 0 0 0 0 0.25 0"/>
<feBlend mode="normal" in2="shape" result="effect1_innerShadow_438_165127"/>
</filter>
</defs>
</svg>
