<svg width="44" height="46" viewBox="0 0 44 46" fill="none" xmlns="http://www.w3.org/2000/svg">
<g filter="url(#filter0_i_438_165061)">
<path fill-rule="evenodd" clip-rule="evenodd" d="M8.10047 5.2449L17.0699 10.4234V7.03878H28.4598V6.14184V4.34796V3.45101H17.0699V0.0664062L8.10047 5.2449ZM35.7122 8.17315C33.5939 8.17315 31.751 9.62351 31.253 11.6825L26.4634 31.4874L26.2284 32.4594L28.1723 32.9296L28.4074 31.9576L33.197 12.1526C33.4779 10.9912 34.5174 10.1731 35.7122 10.1731H41.6857C42.238 10.1731 42.6857 9.72543 42.6857 9.17315C42.6857 8.62086 42.238 8.17315 41.6857 8.17315H35.7122ZM8.89771 14.585C7.92863 14.3791 6.97605 14.9977 6.77006 15.9668L4.14576 28.3131C3.94021 29.2802 4.55582 30.2313 5.52225 30.4397L18.7098 33.2838C19.2317 33.3963 19.7766 33.2706 20.1963 32.9408L22.285 31.2996C22.6212 31.0354 22.852 30.6599 22.9358 30.2406L25.0173 19.8229C25.2098 18.8598 24.5919 17.9209 23.6312 17.7167L8.89771 14.585ZM23.0704 40.3195C23.0704 38.801 24.3014 37.57 25.82 37.57C27.3385 37.57 28.5695 38.801 28.5695 40.3195C28.5695 41.8381 27.3385 43.0691 25.82 43.0691C24.3014 43.0691 23.0704 41.8381 23.0704 40.3195ZM25.82 35.57C23.1969 35.57 21.0704 37.6964 21.0704 40.3195C21.0704 42.9426 23.1969 45.0691 25.82 45.0691C28.4431 45.0691 30.5695 42.9426 30.5695 40.3195C30.5695 37.6964 28.4431 35.57 25.82 35.57ZM2.02479 34.3593C2.14648 33.8206 2.68183 33.4825 3.22055 33.6042L19.6943 37.3253L19.2536 39.2761L2.77989 35.555C2.24118 35.4334 1.90311 34.898 2.02479 34.3593Z" fill="#FBA32A"/>
</g>
<defs>
<filter id="filter0_i_438_165061" x="2" y="0.0664062" width="40.6857" height="48.0029" filterUnits="userSpaceOnUse" color-interpolation-filters="sRGB">
<feFlood flood-opacity="0" result="BackgroundImageFix"/>
<feBlend mode="normal" in="SourceGraphic" in2="BackgroundImageFix" result="shape"/>
<feColorMatrix in="SourceAlpha" type="matrix" values="0 0 0 0 0 0 0 0 0 0 0 0 0 0 0 0 0 0 127 0" result="hardAlpha"/>
<feOffset dy="3"/>
<feGaussianBlur stdDeviation="2"/>
<feComposite in2="hardAlpha" operator="arithmetic" k2="-1" k3="1"/>
<feColorMatrix type="matrix" values="0 0 0 0 0.233333 0 0 0 0 0.1393 0 0 0 0 0.0525 0 0 0 0.25 0"/>
<feBlend mode="normal" in2="shape" result="effect1_innerShadow_438_165061"/>
</filter>
</defs>
</svg>
