<svg width="47" height="44" viewBox="0 0 47 44" fill="none" xmlns="http://www.w3.org/2000/svg">
<g filter="url(#filter0_i_438_164932)">
<path fill-rule="evenodd" clip-rule="evenodd" d="M22.8465 6.77273H3.80327C2.82422 6.77273 2.03054 7.5664 2.03054 8.54546V31.134H24.6192V8.54545C24.6192 7.5664 23.8256 6.77273 22.8465 6.77273ZM0.257812 31.3717V33.1445L0.257817 37.4026C0.257817 38.3816 1.0515 39.1753 2.03055 39.1753H5.88676V39.1751C5.88676 35.8666 8.55089 33.1803 11.8509 33.1445H11.9845C15.2846 33.1803 17.9487 35.8666 17.9487 39.1751V39.1753H24.6192C25.5983 39.1753 26.392 38.3816 26.392 37.4026V31.134L26.392 8.54545C26.392 6.58735 24.8046 5 22.8465 5H3.80327C1.84517 5 0.257812 6.58735 0.257812 8.54546V31.3717ZM11.717 44C13.9375 44 15.7376 42.1999 15.7376 39.9794C15.7376 37.7588 13.9375 35.9587 11.717 35.9587C9.49645 35.9587 7.69635 37.7588 7.69635 39.9794C7.69635 42.1999 9.49645 44 11.717 44ZM40.4643 39.9794C40.4643 42.1999 38.6642 44 36.4436 44C34.2231 44 32.423 42.1999 32.423 39.9794C32.423 37.7588 34.2231 35.9587 36.4436 35.9587C38.6642 35.9587 40.4643 37.7588 40.4643 39.9794ZM30.1753 17.062C29.1962 17.062 28.4025 17.8557 28.4025 18.8347V37.4028C28.4025 38.3818 29.1962 39.1755 30.1753 39.1755H30.4125V39.1753C30.4125 35.8445 33.1126 33.1444 36.4435 33.1444C39.7743 33.1444 42.4744 35.8445 42.4744 39.1753V39.1755H44.7227C45.7017 39.1755 46.4954 38.3818 46.4954 37.4028V28.2312C46.4954 27.5038 46.2717 26.794 45.8545 26.198L39.9886 17.8181C39.6569 17.3442 39.1148 17.062 38.5363 17.062H30.1753ZM33.8305 19.0723H38.8563L43.8821 26.1085H33.8305V19.0723Z" fill="#219A67"/>
</g>
<path d="M13.3245 9.02051L13.3245 25.1031" stroke="#219A67" stroke-width="3.54545"/>
<path d="M13.3245 29.1237L18.4419 20.2601H8.20704L13.3245 29.1237ZM12.4381 9.02051V21.1464H14.2108V9.02051H12.4381Z" fill="#219A67"/>
<defs>
<filter id="filter0_i_438_164932" x="0.257812" y="5" width="46.2375" height="42" filterUnits="userSpaceOnUse" color-interpolation-filters="sRGB">
<feFlood flood-opacity="0" result="BackgroundImageFix"/>
<feBlend mode="normal" in="SourceGraphic" in2="BackgroundImageFix" result="shape"/>
<feColorMatrix in="SourceAlpha" type="matrix" values="0 0 0 0 0 0 0 0 0 0 0 0 0 0 0 0 0 0 127 0" result="hardAlpha"/>
<feOffset dy="3"/>
<feGaussianBlur stdDeviation="2"/>
<feComposite in2="hardAlpha" operator="arithmetic" k2="-1" k3="1"/>
<feColorMatrix type="matrix" values="0 0 0 0 0.0442708 0 0 0 0 0.2125 0 0 0 0 0.141844 0 0 0 0.39 0"/>
<feBlend mode="normal" in2="shape" result="effect1_innerShadow_438_164932"/>
</filter>
</defs>
</svg>
