<svg width="44" height="44" viewBox="0 0 44 44" fill="none" xmlns="http://www.w3.org/2000/svg">
<g filter="url(#filter0_i_438_164713)">
<path d="M5.50061 13.4967V32.0592C5.50061 35.7436 5.50061 37.5858 6.64521 38.7304C7.7898 39.875 7.67806 39.875 11.3625 39.875H24.6059C28.495 39.875 30.4395 39.875 31.6477 38.6668C32.8559 37.4586 32.8559 35.5141 32.8559 31.625V12.5197C32.8559 9.77546 32.8559 9.38031 32.1973 8.39464C31.9122 7.96794 31.5458 7.60157 31.1191 7.31646C30.1334 6.65786 28.7613 6.65786 26.0171 6.65786L25.0414 6.6579C25.0414 8.81617 23.2918 10.5658 21.1335 10.5658H17.2256C15.0673 10.5658 13.3177 8.81617 13.3177 6.6579L12.3394 6.65786C9.59518 6.65786 8.22306 6.65786 7.2374 7.31646C6.81069 7.60157 6.44432 7.96794 6.15921 8.39464C5.50061 9.38031 5.50061 10.7524 5.50061 13.4967Z" fill="#7A89FE"/>
</g>
<path d="M13.3177 6.6579C13.3177 8.81617 15.0673 10.5658 17.2256 10.5658H21.1335C23.2918 10.5658 25.0414 8.81617 25.0414 6.6579M13.3177 6.6579C13.3177 4.49963 15.0673 2.75 17.2256 2.75H21.1335C23.2918 2.75 25.0414 4.49963 25.0414 6.6579M13.3177 6.6579L12.3394 6.65786C9.59518 6.65786 8.22306 6.65786 7.2374 7.31646C6.81069 7.60157 6.44432 7.96794 6.15921 8.39464C5.50061 9.38031 5.50061 10.7524 5.50061 13.4967V32.0592C5.50061 35.7436 5.50061 37.5858 6.64521 38.7304C7.7898 39.875 7.67806 39.875 11.3625 39.875H24.6059C28.495 39.875 30.4395 39.875 31.6477 38.6668C32.8559 37.4586 32.8559 35.5141 32.8559 31.625V12.5197C32.8559 9.77546 32.8559 9.38031 32.1973 8.39464C31.9122 7.96794 31.5458 7.60157 31.1191 7.31646C30.1334 6.65786 28.7613 6.65786 26.0171 6.65786L25.0414 6.6579" stroke="#7A89FE" stroke-width="2"/>
<g filter="url(#filter1_d_438_164713)">
<path d="M13.3174 20.3359L21.1332 20.3359" stroke="#FCFCFD" stroke-width="2" stroke-linecap="round"/>
</g>
<g filter="url(#filter2_i_438_164713)">
<path d="M33.1727 18.0336L22.8345 29.5205C22.6606 29.7137 22.5736 29.8104 22.5146 29.9246C22.4555 30.0388 22.427 30.1657 22.3699 30.4194L21.3154 35.1062C21.2335 35.4701 21.1925 35.652 21.2952 35.7497C21.3979 35.8474 21.5776 35.7975 21.937 35.6977L25.9814 34.5742C26.2603 34.4968 26.3997 34.4581 26.521 34.3829C26.6423 34.3078 26.7391 34.2002 26.9327 33.9851L37.5134 22.2289C38.0859 21.5927 38.3721 21.2747 38.3721 20.8909C38.3721 20.5072 38.0859 20.1891 37.5134 19.553L36.1459 18.0336C35.4517 17.2623 35.1047 16.8767 34.6593 16.8767C34.2139 16.8767 33.8669 17.2623 33.1727 18.0336Z" fill="white"/>
</g>
<path d="M26.2491 35.5378L25.9814 34.5742L26.2491 35.5378C26.2678 35.5326 26.2871 35.5273 26.3068 35.5219C26.5242 35.4622 26.7995 35.3867 27.0475 35.2331C27.2955 35.0795 27.4858 34.8668 27.636 34.6987C27.6497 34.6835 27.663 34.6686 27.676 34.6541L38.2567 22.8978L38.2904 22.8603C38.5473 22.575 38.7997 22.2947 38.98 22.034C39.1843 21.7384 39.3721 21.3642 39.3721 20.8909C39.3721 20.4177 39.1843 20.0435 38.98 19.7479C38.7997 19.4872 38.5473 19.2069 38.2904 18.9216C38.2792 18.9091 38.2679 18.8966 38.2567 18.8841L36.8892 17.3646C36.8762 17.3502 36.8632 17.3357 36.8502 17.3213C36.5371 16.9733 36.2364 16.639 35.953 16.4007C35.636 16.134 35.2152 15.8767 34.6593 15.8767C34.1034 15.8767 33.6825 16.134 33.3655 16.4007C33.0822 16.639 32.7815 16.9733 32.4684 17.3213C32.4554 17.3357 32.4424 17.3502 32.4294 17.3646L22.0912 28.8515C22.0795 28.8645 22.0675 28.8778 22.0552 28.8914C21.9191 29.0418 21.7469 29.232 21.6262 29.4654L22.4971 29.9156L21.6262 29.4654C21.5055 29.6989 21.4499 29.9494 21.406 30.1473C21.402 30.1653 21.3981 30.1828 21.3943 30.1999L20.3398 34.8867C20.3372 34.898 20.3346 34.9097 20.3318 34.9218C20.2984 35.0695 20.2521 35.2738 20.2388 35.454C20.2235 35.6611 20.2274 36.114 20.6059 36.4742C20.9844 36.8343 21.4369 36.8158 21.643 36.7902C21.8223 36.7679 22.0241 36.7116 22.1699 36.6709C22.1819 36.6675 22.1935 36.6643 22.2046 36.6612L26.2491 35.5378Z" stroke="#7A89FE" stroke-width="2"/>
<defs>
<filter id="filter0_i_438_164713" x="4.50061" y="1.75" width="29.3553" height="43.125" filterUnits="userSpaceOnUse" color-interpolation-filters="sRGB">
<feFlood flood-opacity="0" result="BackgroundImageFix"/>
<feBlend mode="normal" in="SourceGraphic" in2="BackgroundImageFix" result="shape"/>
<feColorMatrix in="SourceAlpha" type="matrix" values="0 0 0 0 0 0 0 0 0 0 0 0 0 0 0 0 0 0 127 0" result="hardAlpha"/>
<feOffset dy="4"/>
<feGaussianBlur stdDeviation="2"/>
<feComposite in2="hardAlpha" operator="arithmetic" k2="-1" k3="1"/>
<feColorMatrix type="matrix" values="0 0 0 0 0 0 0 0 0 0 0 0 0 0 0 0 0 0 0.25 0"/>
<feBlend mode="normal" in2="shape" result="effect1_innerShadow_438_164713"/>
</filter>
<filter id="filter1_d_438_164713" x="8.31738" y="16.3359" width="17.8158" height="10" filterUnits="userSpaceOnUse" color-interpolation-filters="sRGB">
<feFlood flood-opacity="0" result="BackgroundImageFix"/>
<feColorMatrix in="SourceAlpha" type="matrix" values="0 0 0 0 0 0 0 0 0 0 0 0 0 0 0 0 0 0 127 0" result="hardAlpha"/>
<feOffset dy="1"/>
<feGaussianBlur stdDeviation="2"/>
<feComposite in2="hardAlpha" operator="out"/>
<feColorMatrix type="matrix" values="0 0 0 0 0 0 0 0 0 0 0 0 0 0 0 0 0 0 0.25 0"/>
<feBlend mode="normal" in2="BackgroundImageFix" result="effect1_dropShadow_438_164713"/>
<feBlend mode="normal" in="SourceGraphic" in2="effect1_dropShadow_438_164713" result="shape"/>
</filter>
<filter id="filter2_i_438_164713" x="19.2345" y="14.877" width="21.1377" height="26.9248" filterUnits="userSpaceOnUse" color-interpolation-filters="sRGB">
<feFlood flood-opacity="0" result="BackgroundImageFix"/>
<feBlend mode="normal" in="SourceGraphic" in2="BackgroundImageFix" result="shape"/>
<feColorMatrix in="SourceAlpha" type="matrix" values="0 0 0 0 0 0 0 0 0 0 0 0 0 0 0 0 0 0 127 0" result="hardAlpha"/>
<feOffset dy="4"/>
<feGaussianBlur stdDeviation="2"/>
<feComposite in2="hardAlpha" operator="arithmetic" k2="-1" k3="1"/>
<feColorMatrix type="matrix" values="0 0 0 0 0 0 0 0 0 0 0 0 0 0 0 0 0 0 0.25 0"/>
<feBlend mode="normal" in2="shape" result="effect1_innerShadow_438_164713"/>
</filter>
</defs>
</svg>
