<?xml version="1.0" encoding="utf-8"?>
<!-- Generator: Adobe Illustrator 24.2.1, SVG Export Plug-In . SVG Version: 6.00 Build 0)  -->
<svg version="1.1" id="Layer_1" xmlns="http://www.w3.org/2000/svg" xmlns:xlink="http://www.w3.org/1999/xlink" x="0px" y="0px"
	 viewBox="0 0 47.6 55.4" style="enable-background:new 0 0 47.6 55.4;" xml:space="preserve">
<style type="text/css">
	.st0{fill:none;stroke:#8C8FA7;stroke-width:2;stroke-linecap:round;}
	.st1{fill:none;stroke:#8C8FA7;stroke-width:1.5;stroke-linecap:round;}
	.st2{fill:#EDEFF1;stroke:#8C8FA7;stroke-linecap:round;stroke-dasharray:2,2;}
	.st3{fill:#8C8FA7;stroke:#8C8FA7;}
	.st4{fill:none;stroke:#8C8FA7;stroke-width:2;}
</style>
<g>
	<line class="st0" x1="9.8" y1="8.8" x2="37.8" y2="8.8"/>
	<line class="st0" x1="9.8" y1="14.8" x2="37.8" y2="14.8"/>
	<line class="st0" x1="9.8" y1="20.8" x2="37.8" y2="20.8"/>
	<line class="st0" x1="8.8" y1="33.7" x2="18.8" y2="33.7"/>
	<line class="st0" x1="8.8" y1="39.7" x2="18.8" y2="39.7"/>
	<path class="st1" d="M35.6,37.2L39.8,48l-3.3-2.5l-2.5,4.1l-2.5-9.8H30l-2.5,9.8l-1.6-4.9L21.8,48l3.3-11.2"/>
	<circle class="st2" cx="30.8" cy="32.4" r="7.1"/>
	<circle class="st3" cx="30.8" cy="32.4" r="4.4"/>
	<path class="st4" d="M5.8,2.8h36c0.6,0,1,0.4,1,1v47.8c0,0.6-0.4,1-1,1h-36c-0.6,0-1-0.4-1-1V3.8C4.8,3.3,5.2,2.8,5.8,2.8z"/>
</g>
</svg>
