<svg width="33" height="24" viewBox="0 0 33 24" fill="none" xmlns="http://www.w3.org/2000/svg">
<circle cx="23" cy="10" r="3" stroke="white" stroke-width="2" stroke-linecap="round"/>
<circle cx="23" cy="12" r="9" stroke="white" stroke-width="2"/>
<path d="M28.7805 18.8264C28.9076 18.7566 28.9678 18.6055 28.914 18.4708C28.5284 17.5045 27.7856 16.6534 26.7814 16.0332C25.6966 15.3632 24.3674 15 23 15C21.6326 15 20.3034 15.3632 19.2186 16.0332C18.2144 16.6534 17.4716 17.5045 17.086 18.4708C17.0322 18.6055 17.0924 18.7566 17.2195 18.8264C20.8197 20.803 25.1803 20.803 28.7805 18.8264Z" fill="white"/>
<path fill-rule="evenodd" clip-rule="evenodd" d="M5 7C4.44772 7 4 7.44772 4 8V11H1C0.447715 11 0 11.4477 0 12C0 12.5523 0.447715 13 1 13H4V16C4 16.5523 4.44772 17 5 17C5.55228 17 6 16.5523 6 16V13H9C9.55229 13 10 12.5523 10 12C10 11.4477 9.55228 11 9 11H6V8C6 7.44772 5.55228 7 5 7Z" fill="white"/>
</svg>
