<?xml version="1.0" encoding="utf-8"?>
<!-- Generator: Adobe Illustrator 24.2.1, SVG Export Plug-In . SVG Version: 6.00 Build 0)  -->
<svg version="1.1" id="Layer_1" xmlns="http://www.w3.org/2000/svg" xmlns:xlink="http://www.w3.org/1999/xlink" x="0px" y="0px"
	 viewBox="0 0 24 24" style="enable-background:new 0 0 24 24;" xml:space="preserve">
<style type="text/css">
	.st0{fill:none;stroke:#A9B0C0;stroke-width:2;stroke-linecap:round;}
	.st1{fill:none;stroke:#A9B0C0;stroke-width:2;}
</style>
<path class="st0" d="M8,8V7c0-2.2,1.8-4,4-4l0,0c2.2,0,4,1.8,4,4v1"/>
<path class="st0" d="M15,14v-2"/>
<path class="st0" d="M9,14v-2"/>
<path class="st1" d="M4,12c0-1.9,0-2.8,0.6-3.4C5.2,8,6.1,8,8,8h8c1.9,0,2.8,0,3.4,0.6C20,9.2,20,10.1,20,12v1c0,3.8,0,5.7-1.2,6.8
	C17.7,21,15.8,21,12,21l0,0c-3.8,0-5.7,0-6.8-1.2C4,18.7,4,16.8,4,13V12z"/>
</svg>
