<?xml version="1.0" encoding="utf-8"?>
<!-- Generator: Adobe Illustrator 24.2.1, SVG Export Plug-In . SVG Version: 6.00 Build 0)  -->
<svg version="1.1" id="Layer_1" xmlns="http://www.w3.org/2000/svg" xmlns:xlink="http://www.w3.org/1999/xlink" x="0px" y="0px"
	 viewBox="0 0 40 46" style="enable-background:new 0 0 40 46;" xml:space="preserve">
<style type="text/css">
	.st0{fill:none;stroke:#8C8FA7;stroke-width:2;stroke-linecap:round;}
	.st1{fill:none;stroke:#8C8FA7;stroke-width:2;}
	.st2{fill:#8C8FA7;}
</style>
<g>
	<line class="st0" x1="1.3" y1="37" x2="5.3" y2="37"/>
	<line class="st0" x1="1.3" y1="28" x2="5.3" y2="28"/>
	<line class="st0" x1="1.3" y1="19" x2="5.3" y2="19"/>
	<line class="st0" x1="1.3" y1="10" x2="5.3" y2="10"/>
	<path class="st1" d="M6.7,1.5h29c1.7,0,3,1.3,3,3v37c0,1.7-1.3,3-3,3h-29c-1.7,0-3-1.3-3-3v-37C3.7,2.8,5,1.5,6.7,1.5z"/>
	<circle class="st0" cx="21.3" cy="17" r="5"/>
	<path class="st2" d="M30.2,34.4c0.6-0.1,0.9-0.7,0.8-1.3c-0.7-2.3-2.1-6.3-3.6-7.3c-1.7-1.1-3.8-1.8-6-1.8s-4.3,0.6-6,1.8
		c-1.5,1-3,5-3.8,7.3c-0.2,0.6,0.2,1.2,0.8,1.3l1.7,0.3c4.8,0.9,9.8,0.9,14.6,0L30.2,34.4z"/>
</g>
</svg>
