<svg width="25" height="24" viewBox="0 0 25 24" fill="none" xmlns="http://www.w3.org/2000/svg">
<path d="M10.4209 15L10.4209 12" stroke="#8C8FA7" stroke-width="2" stroke-linecap="round"/>
<path d="M14.4209 15L14.4209 12" stroke="#8C8FA7" stroke-width="2" stroke-linecap="round"/>
<path d="M3.4209 7H21.4209V7C20.489 7 20.0231 7 19.6555 7.15224C19.1655 7.35523 18.7761 7.74458 18.5731 8.23463C18.4209 8.60218 18.4209 9.06812 18.4209 10V16C18.4209 17.8856 18.4209 18.8284 17.8351 19.4142C17.2493 20 16.3065 20 14.4209 20H10.4209C8.53528 20 7.59247 20 7.00668 19.4142C6.4209 18.8284 6.4209 17.8856 6.4209 16V10C6.4209 9.06812 6.4209 8.60218 6.26866 8.23463C6.06567 7.74458 5.67632 7.35523 5.18627 7.15224C4.81872 7 4.35278 7 3.4209 7V7Z" stroke="#8C8FA7" stroke-width="2" stroke-linecap="round"/>
<path d="M10.489 3.37059C10.603 3.26427 10.8541 3.17033 11.2034 3.10332C11.5527 3.03632 11.9806 3 12.4209 3C12.8612 3 13.2891 3.03632 13.6384 3.10332C13.9877 3.17033 14.2388 3.26427 14.3527 3.37059" stroke="#8C8FA7" stroke-width="2" stroke-linecap="round"/>
</svg>
