<?xml version="1.0" encoding="utf-8"?>
<!-- Generator: Adobe Illustrator 24.2.1, SVG Export Plug-In . SVG Version: 6.00 Build 0)  -->
<svg version="1.1" id="Layer_1" xmlns="http://www.w3.org/2000/svg" xmlns:xlink="http://www.w3.org/1999/xlink" x="0px" y="0px"
	 viewBox="0 0 32 40" style="enable-background:new 0 0 32 40;" xml:space="preserve">
<style type="text/css">
	.st0{fill:none;stroke:#8C8FA7;stroke-width:2.3593;stroke-linecap:round;}
	.st1{fill:#8C8FA7;}
	.st2{fill:none;stroke:#8C8FA7;stroke-width:2.3593;}
</style>
<g>
	<path class="st0" d="M5.1,28.2l6.1-8.9c1.2-1.8,4.1-1,4.3,1.2l0.1,0.8c0.2,2.2,3.2,3,4.4,1.1l5.2-8.3"/>
	<path class="st1" d="M20,22.5l0.5,0.3L20,22.5z M26.9,11.8l-6,3.1l5.8,3.7L26.9,11.8z M6.4,25.6c-0.2,0.3-0.1,0.6,0.2,0.8
		c0.3,0.2,0.6,0.1,0.8-0.1L6.4,25.6z M11.1,19.7l0.5,0.3l0,0L11.1,19.7z M15.3,20.2l0.6-0.2L15.3,20.2z M15.6,21.2l0.6-0.1l0,0l0,0
		L15.6,21.2z M15.8,21.7l0.6-0.1l0,0L15.8,21.7z M20.5,22.8l4-6.3l-1-0.6l-4,6.3L20.5,22.8z M7.3,26.3l4.3-6.3l-1-0.7l-4.3,6.3
		L7.3,26.3z M14.7,20.4l0.4,1l1.1-0.4l-0.4-1L14.7,20.4z M15.1,21.3l0.1,0.5l1.1-0.3l-0.1-0.5L15.1,21.3z M11.6,20
		c0.8-1.2,2.6-0.9,3.1,0.4l1.1-0.4c-0.8-2.3-3.9-2.7-5.2-0.7L11.6,20z M19.5,22.2c-0.8,1.3-2.8,0.9-3.2-0.6l-1.1,0.3
		c0.6,2.5,4,3.1,5.4,1L19.5,22.2z"/>
	<path class="st2" d="M5.1,1.2h21.7c2,0,3.5,1.6,3.5,3.5v30.6c0,2-1.6,3.5-3.5,3.5H5.1c-2,0-3.5-1.6-3.5-3.5V4.7
		C1.6,2.7,3.2,1.2,5.1,1.2z"/>
</g>
</svg>
