<svg width="25" height="24" viewBox="0 0 25 24" fill="none" xmlns="http://www.w3.org/2000/svg">
<path d="M12.5 14L11.7929 14.7071L12.5 15.4142L13.2071 14.7071L12.5 14ZM13.5 5C13.5 4.44772 13.0523 4 12.5 4C11.9477 4 11.5 4.44771 11.5 5L13.5 5ZM6.79289 9.70711L11.7929 14.7071L13.2071 13.2929L8.20711 8.29289L6.79289 9.70711ZM13.2071 14.7071L18.2071 9.70711L16.7929 8.29289L11.7929 13.2929L13.2071 14.7071ZM13.5 14L13.5 5L11.5 5L11.5 14L13.5 14Z" fill="#7A89FE"/>
<path d="M5.5 16L5.5 17C5.5 18.1046 6.39543 19 7.5 19L17.5 19C18.6046 19 19.5 18.1046 19.5 17V16" stroke="#7A89FE" stroke-width="2"/>
</svg>
