<svg width="31" height="30" viewBox="0 0 31 30" fill="none" xmlns="http://www.w3.org/2000/svg">
<path d="M25.749 7.71484C27.4543 7.71484 28.3069 7.71484 28.9194 8.1241C29.1846 8.30127 29.4122 8.52893 29.5894 8.79409C29.9987 9.40658 29.9987 10.2592 29.9987 11.9645V23.4993C29.9987 25.7888 29.9987 26.9336 29.2874 27.6448C28.5761 28.3561 27.4314 28.3561 25.1419 28.3561H17.8568C15.5673 28.3561 14.4225 28.3561 13.7113 27.6448C13 26.9336 13 25.7888 13 23.4993V11.9645C13 10.2592 13 9.40658 13.4093 8.79409C13.5864 8.52893 13.8141 8.30127 14.0792 8.1241C14.6917 7.71484 15.5444 7.71484 17.2497 7.71484" stroke="#8C8FA7" stroke-width="2"/>
<path d="M17.8569 7.71549C17.8569 6.37433 18.9442 5.28711 20.2853 5.28711H22.7137C24.0549 5.28711 25.1421 6.37433 25.1421 7.71549C25.1421 9.05665 24.0549 10.1439 22.7137 10.1439H20.2853C18.9442 10.1439 17.8569 9.05665 17.8569 7.71549Z" stroke="#8C8FA7" stroke-width="2"/>
<path d="M17.8569 16.2148L25.1421 16.2148" stroke="#8C8FA7" stroke-width="2" stroke-linecap="round"/>
<path d="M17.8569 21.0723L22.7137 21.0723" stroke="#8C8FA7" stroke-width="2" stroke-linecap="round"/>
<path d="M4.99854 18.9277L4.29143 19.6348L4.99854 20.3419L5.70564 19.6348L4.99854 18.9277ZM5.99853 6.92773C5.99853 6.37545 5.55082 5.92773 4.99853 5.92773C4.44625 5.92773 3.99853 6.37545 3.99853 6.92773L5.99853 6.92773ZM0.291428 15.6348L4.29143 19.6348L5.70564 18.2206L1.70564 14.2206L0.291428 15.6348ZM5.70564 19.6348L9.70564 15.6348L8.29143 14.2206L4.29143 18.2206L5.70564 19.6348ZM5.99854 18.9277L5.99853 6.92773L3.99853 6.92773L3.99854 18.9277L5.99854 18.9277Z" fill="#8C8FA7"/>
</svg>
