<svg width="33" height="32" viewBox="0 0 33 32" fill="none" xmlns="http://www.w3.org/2000/svg">
<path d="M3.16602 16.0002L2.38515 15.3755L1.88539 16.0002L2.38515 16.6249L3.16602 16.0002ZM15.166 17.0002C15.7183 17.0002 16.166 16.5524 16.166 16.0002C16.166 15.4479 15.7183 15.0002 15.166 15.0002V17.0002ZM7.71848 8.7088L2.38515 15.3755L3.94688 16.6249L9.28022 9.95819L7.71848 8.7088ZM2.38515 16.6249L7.71848 23.2915L9.28022 22.0421L3.94688 15.3755L2.38515 16.6249ZM3.16602 17.0002H15.166V15.0002H3.16602V17.0002Z" fill="white"/>
<path d="M14.0996 10.7981V8.67732C14.0996 7.05898 14.0996 6.24981 14.5736 5.69032C15.0475 5.13083 15.8457 4.9978 17.442 4.73175L22.8471 3.8309C26.0902 3.29039 27.7117 3.02013 28.7726 3.91883C29.8335 4.81752 29.8335 6.46144 29.8335 9.74927V22.2238C29.8335 25.5228 29.8335 27.1722 28.7684 28.0711C27.7033 28.97 26.0773 28.6929 22.8252 28.1385L17.5179 27.2338C15.9281 26.9628 15.1332 26.8273 14.6617 26.2685C14.1901 25.7097 14.1901 24.9034 14.1901 23.2907V21.4211" stroke="white" stroke-width="2"/>
<path fill-rule="evenodd" clip-rule="evenodd" d="M16.4004 8.2281L17.6005 8.04612C20.808 7.55979 22.4117 7.31662 23.4559 8.21438C24.5 9.11213 24.5 10.7342 24.5 13.9783V17.0739C24.5 20.2961 24.5 21.9072 23.4643 22.8044C22.4286 23.7017 20.834 23.472 17.6447 23.0126L16.3098 22.8204C14.7916 22.6017 14.0325 22.4924 13.5556 21.9945C13.5095 21.9464 13.4659 21.896 13.4248 21.8435C13 21.3005 13 20.5336 13 18.9997V18.5986C13.4413 18.8538 13.9536 18.9999 14.5 18.9999C16.1569 18.9999 17.5 17.6568 17.5 15.9999C17.5 14.3431 16.1569 12.9999 14.5 12.9999C13.9536 12.9999 13.4413 13.146 13 13.4013V12.2558V12.1829C13 10.5421 13 9.72169 13.4835 9.15938C13.967 8.59706 14.7781 8.47407 16.4004 8.2281Z" fill="white"/>
</svg>
