<svg width="32" height="32" viewBox="0 0 32 32" fill="none" xmlns="http://www.w3.org/2000/svg">
<path d="M2.66602 16.0002L1.88515 15.3755L1.38539 16.0002L1.88515 16.6249L2.66602 16.0002ZM14.666 17.0002C15.2183 17.0002 15.666 16.5524 15.666 16.0002C15.666 15.4479 15.2183 15.0002 14.666 15.0002V17.0002ZM7.21848 8.7088L1.88515 15.3755L3.44688 16.6249L8.78022 9.95819L7.21848 8.7088ZM1.88515 16.6249L7.21848 23.2915L8.78022 22.0421L3.44688 15.3755L1.88515 16.6249ZM2.66602 17.0002H14.666V15.0002H2.66602V17.0002Z" fill="#8C8FA7"/>
<path d="M13.5996 10.7981V8.67732C13.5996 7.05898 13.5996 6.24981 14.0736 5.69032C14.5475 5.13083 15.3457 4.9978 16.942 4.73175L22.3471 3.8309C25.5902 3.29039 27.2117 3.02013 28.2726 3.91883C29.3335 4.81752 29.3335 6.46144 29.3335 9.74927V22.2238C29.3335 25.5228 29.3335 27.1722 28.2684 28.0711C27.2033 28.97 25.5773 28.6929 22.3252 28.1385L17.0179 27.2338C15.4281 26.9628 14.6332 26.8273 14.1617 26.2685C13.6901 25.7097 13.6901 24.9034 13.6901 23.2907V21.4211" stroke="#8C8FA7" stroke-width="2"/>
<path fill-rule="evenodd" clip-rule="evenodd" d="M15.9004 8.2281L17.1005 8.04612C20.308 7.55979 21.9117 7.31662 22.9559 8.21438C24 9.11213 24 10.7342 24 13.9783V17.0739C24 20.2961 24 21.9072 22.9643 22.8044C21.9286 23.7017 20.334 23.472 17.1447 23.0126L15.8098 22.8204C14.2916 22.6017 13.5325 22.4924 13.0556 21.9945C13.0095 21.9464 12.9659 21.896 12.9248 21.8435C12.5 21.3005 12.5 20.5336 12.5 18.9997V18.5986C12.9413 18.8538 13.4536 18.9999 14 18.9999C15.6569 18.9999 17 17.6568 17 15.9999C17 14.3431 15.6569 12.9999 14 12.9999C13.4536 12.9999 12.9413 13.146 12.5 13.4013V12.2558V12.1829C12.5 10.5421 12.5 9.72169 12.9835 9.15938C13.467 8.59706 14.2781 8.47407 15.9004 8.2281Z" fill="#8C8FA7"/>
</svg>
