<svg width="20" height="18" viewBox="0 0 20 18" fill="none" xmlns="http://www.w3.org/2000/svg">
<path fill-rule="evenodd" clip-rule="evenodd" d="M12.2088 8.05656L15.6578 2.28228C15.9339 1.81999 16.3773 1.49231 16.8847 1.35785H3.62423C4.13168 1.49233 4.57512 1.82006 4.85124 2.28242L8.29955 8.05656H12.2088ZM3.10257 2.6478C3.34155 2.6478 3.56293 2.77345 3.68546 2.97862L6.82617 8.2377H4.95865C2.68389 8.2377 0.839844 10.0817 0.839844 12.3565C0.839844 13.7563 1.53815 14.993 2.60542 15.7373V17.6519H17.9038V15.7368C18.9707 14.9925 19.6686 13.756 19.6686 12.3565C19.6686 10.0817 17.8246 8.2377 15.5498 8.2377H13.6822L16.8235 2.97857C16.9461 2.77342 17.1674 2.6478 17.4064 2.6478H17.8132C18.1881 2.6478 18.4921 2.34384 18.4921 1.96888V0.678923C18.4921 0.303964 18.1881 0 17.8132 0H2.69582C2.32086 0 2.01689 0.303963 2.01689 0.678922V1.96888C2.01689 2.34384 2.32086 2.6478 2.69582 2.6478H3.10257ZM10.2546 7.06035L12.2145 3.66573H10.5941V1.76475H9.91513V3.66573H8.29471L10.2546 7.06035ZM15.5498 10.2745H4.95865C3.80877 10.2745 2.87661 11.2066 2.87661 12.3565C2.87661 13.5064 3.80877 14.4385 4.95865 14.4385H15.5498C16.6997 14.4385 17.6319 13.5064 17.6319 12.3565C17.6319 11.2066 16.6997 10.2745 15.5498 10.2745ZM5.54662 13.5327C6.19655 13.5327 6.72342 13.0058 6.72342 12.3559C6.72342 11.706 6.19655 11.1791 5.54662 11.1791C4.8967 11.1791 4.36982 11.706 4.36982 12.3559C4.36982 13.0058 4.8967 13.5327 5.54662 13.5327ZM11.4308 12.3559C11.4308 13.0058 10.9039 13.5327 10.254 13.5327C9.60407 13.5327 9.0772 13.0058 9.0772 12.3559C9.0772 11.706 9.60407 11.1791 10.254 11.1791C10.9039 11.1791 11.4308 11.706 11.4308 12.3559ZM14.9614 13.5327C15.6113 13.5327 16.1382 13.0058 16.1382 12.3559C16.1382 11.706 15.6113 11.1791 14.9614 11.1791C14.3114 11.1791 13.7846 11.706 13.7846 12.3559C13.7846 13.0058 14.3114 13.5327 14.9614 13.5327Z" fill="#7A89FE"/>
</svg>
