<svg width="21" height="20" viewBox="0 0 21 20" fill="none" xmlns="http://www.w3.org/2000/svg">
<path d="M17.0948 4.17208L10.0893 5.66116C9.82149 5.71807 9.64927 5.97975 9.70291 6.2482L10.6937 11.2069C10.7171 11.3237 10.7814 11.4284 10.8751 11.502L11.8225 12.2465C11.9395 12.3384 12.0914 12.3735 12.2369 12.3421L18.5438 10.9819C18.8132 10.9238 18.9848 10.6587 18.9275 10.3892L17.6878 4.5572C17.6304 4.28709 17.3649 4.11467 17.0948 4.17208Z" fill="#8C8FA7" stroke="#8C8FA7"/>
<circle cx="1.84167" cy="1.84167" r="1.84167" transform="matrix(-1 0 0 1 10.6333 14.4573)" stroke="#8C8FA7" stroke-width="2"/>
<path d="M19.7794 12.5043C20.3181 12.3826 20.8535 12.7207 20.9752 13.2594C21.0969 13.7981 20.7588 14.3335 20.2201 14.4552L19.7794 12.5043ZM20.2201 14.4552L12.1286 16.2829L11.6879 14.332L19.7794 12.5043L20.2201 14.4552Z" fill="#8C8FA7"/>
<path d="M1.00014 1.99902C0.447855 1.99902 0.000139713 1.55131 0.000139713 0.999023C0.000139713 0.446739 0.447855 -0.000976562 1.00014 -0.000976562V1.99902ZM8.97149 11.8396L9.20655 12.8116L7.26259 13.2817L7.02753 12.3098L8.97149 11.8396ZM1.00014 -0.000976562H3.74701V1.99902H1.00014V-0.000976562ZM6.66295 2.29384L8.97149 11.8396L7.02753 12.3098L4.71899 2.76396L6.66295 2.29384ZM3.74701 -0.000976562C5.13223 -0.000976562 6.33734 0.947434 6.66295 2.29384L4.71899 2.76396C4.61045 2.31516 4.20875 1.99902 3.74701 1.99902V-0.000976562Z" fill="#8C8FA7"/>
</svg>
