<svg width="23" height="15" viewBox="0 0 23 15" fill="none" xmlns="http://www.w3.org/2000/svg">
<path d="M0.767551 1.91888C0.767551 1.28302 1.28302 0.767551 1.91888 0.767551H10.7636C11.3995 0.767551 11.9149 1.28302 11.9149 1.91888V8.95336H0.767551V1.91888Z" stroke="#7A89FE" stroke-width="1.5351"/>
<mask id="path-2-inside-1_4805_171816" fill="white">
<path fill-rule="evenodd" clip-rule="evenodd" d="M12.6896 8.75195H0V12.4646C0 12.5705 0.0859112 12.6565 0.191888 12.6565H2.73283C2.73283 12.6564 2.73283 12.6564 2.73283 12.6564C2.73283 11.0391 4.04391 9.72799 5.66121 9.72799C7.27851 9.72799 8.58958 11.0391 8.58958 12.6564C8.58958 12.6564 8.58958 12.6564 8.58958 12.6565H12.4977C12.6037 12.6565 12.6896 12.5705 12.6896 12.4646V8.75195Z"/>
</mask>
<path fill-rule="evenodd" clip-rule="evenodd" d="M12.6896 8.75195H0V12.4646C0 12.5705 0.0859112 12.6565 0.191888 12.6565H2.73283C2.73283 12.6564 2.73283 12.6564 2.73283 12.6564C2.73283 11.0391 4.04391 9.72799 5.66121 9.72799C7.27851 9.72799 8.58958 11.0391 8.58958 12.6564C8.58958 12.6564 8.58958 12.6564 8.58958 12.6565H12.4977C12.6037 12.6565 12.6896 12.5705 12.6896 12.4646V8.75195Z" fill="#7A89FE"/>
<path d="M0 8.75195V6.06552H-2.68643V8.75195H0ZM12.6896 8.75195H15.3761V6.06552H12.6896V8.75195ZM2.73283 12.6565V15.3429H5.41926V12.6565H2.73283ZM8.58958 12.6565H5.90316V15.3429H8.58958V12.6565ZM0 11.4384H12.6896V6.06552H0V11.4384ZM2.68643 12.4646V8.75195H-2.68643V12.4646H2.68643ZM0.191888 9.97002C1.56958 9.97002 2.68643 11.0869 2.68643 12.4646H-2.68643C-2.68643 14.0542 -1.39776 15.3429 0.191888 15.3429V9.97002ZM2.73283 9.97002H0.191888V15.3429H2.73283V9.97002ZM5.41926 12.6565V12.6565C5.41926 12.6565 5.41926 12.6565 5.41926 12.6565C5.41926 12.6565 5.41926 12.6565 5.41926 12.6565V12.6565C5.41926 12.6565 5.41926 12.6565 5.41926 12.6565C5.41926 12.6565 5.41926 12.6565 5.41926 12.6565V12.6565C5.41926 12.6565 5.41926 12.6565 5.41926 12.6565C5.41926 12.6565 5.41926 12.6565 5.41926 12.6565V12.6565C5.41926 12.6565 5.41926 12.6565 5.41926 12.6565C5.41926 12.6565 5.41926 12.6565 5.41926 12.6565V12.6565C5.41926 12.6565 5.41926 12.6565 5.41926 12.6564C5.41926 12.6564 5.41926 12.6564 5.41926 12.6564V12.6564C5.41926 12.6564 5.41926 12.6564 5.41926 12.6564C5.41926 12.6564 5.41926 12.6564 5.41926 12.6564V12.6564C5.41926 12.6564 5.41926 12.6564 5.41926 12.6564C5.41926 12.6564 5.41926 12.6564 5.41926 12.6564V12.6564C5.41926 12.6564 5.41926 12.6564 5.41926 12.6564C5.41926 12.6564 5.41926 12.6564 5.41926 12.6564V12.6564C5.41926 12.6564 5.41926 12.6564 5.41926 12.6564C5.41926 12.6564 5.41926 12.6564 5.41926 12.6564V12.6564C5.41926 12.6564 5.41926 12.6564 5.41926 12.6564C5.41926 12.6564 5.41926 12.6564 5.41926 12.6564V12.6564C5.41926 12.6564 5.41926 12.6564 5.41926 12.6564C5.41926 12.6564 5.41926 12.6564 5.41926 12.6564V12.6564C5.41926 12.6564 5.41926 12.6564 5.41926 12.6564C5.41926 12.6564 5.41926 12.6564 5.41926 12.6564C5.41926 12.6564 5.41926 12.6564 5.41926 12.6564V12.6564C5.41926 12.6564 5.41926 12.6564 5.41926 12.6564C5.41926 12.6564 5.41926 12.6564 5.41926 12.6564V12.6564C5.41926 12.6564 5.41926 12.6564 5.41926 12.6564C5.41926 12.6564 5.41926 12.6564 5.41926 12.6564V12.6564C5.41926 12.6564 5.41926 12.6564 5.41926 12.6564C5.41926 12.6564 5.41926 12.6564 5.41926 12.6564V12.6564C5.41926 12.6564 5.41926 12.6564 5.41926 12.6564C5.41926 12.6564 5.41926 12.6564 5.41926 12.6564V12.6564C5.41926 12.6564 5.41926 12.6564 5.41926 12.6564C5.41926 12.6564 5.41926 12.6564 5.41926 12.6564V12.6564C5.41926 12.6564 5.41926 12.6564 5.41926 12.6564C5.41926 12.6564 5.41926 12.6564 5.41926 12.6564V12.6564C5.41926 12.6564 5.41926 12.6564 5.41926 12.6564C5.41926 12.6564 5.41926 12.6564 5.41926 12.6564V12.6564C5.41926 12.6564 5.41926 12.6564 5.41926 12.6564C5.41926 12.6564 5.41926 12.6564 5.41926 12.6564V12.6564C5.41926 12.6564 5.41926 12.6564 5.41926 12.6564C5.41926 12.6564 5.41926 12.6564 5.41926 12.6564V12.6564C5.41926 12.6564 5.41926 12.6564 5.41926 12.6564C5.41926 12.6564 5.41926 12.6564 5.41926 12.6564V12.6564C5.41926 12.6564 5.41926 12.6564 5.41926 12.6564C5.41926 12.6564 5.41926 12.6564 5.41926 12.6564V12.6564C5.41926 12.6564 5.41926 12.6564 5.41926 12.6564C5.41926 12.6564 5.41926 12.6564 5.41926 12.6564V12.6564C5.41926 12.6564 5.41926 12.6564 5.41926 12.6564C5.41926 12.6564 5.41926 12.6564 5.41926 12.6564V12.6564C5.41926 12.6564 5.41926 12.6564 5.41926 12.6564C5.41926 12.6564 5.41926 12.6564 5.41926 12.6564C5.41926 12.6564 5.41926 12.6564 5.41926 12.6564V12.6564C5.41926 12.6564 5.41926 12.6564 5.41926 12.6564C5.41926 12.6564 5.41926 12.6564 5.41926 12.6564V12.6564C5.41926 12.6564 5.41926 12.6564 5.41926 12.6564C5.41926 12.6564 5.41926 12.6564 5.41926 12.6564V12.6564C5.41926 12.6564 5.41926 12.6564 5.41926 12.6564C5.41926 12.6564 5.41926 12.6564 5.41926 12.6564V12.6564C5.41926 12.6564 5.41926 12.6564 5.41926 12.6564C5.41926 12.6564 5.41926 12.6564 5.41926 12.6564V12.6564C5.41926 12.6564 5.41926 12.6564 5.41926 12.6564C5.41926 12.6564 5.41926 12.6564 5.41926 12.6564V12.6564C5.41926 12.6564 5.41926 12.6564 5.41926 12.6564C5.41926 12.6564 5.41926 12.6564 5.41926 12.6564V12.6564C5.41926 12.6564 5.41926 12.6564 5.41926 12.6564C5.41926 12.6564 5.41926 12.6564 5.41926 12.6564V12.6564C5.41926 12.6564 5.41926 12.6564 5.41926 12.6564C5.41926 12.6564 5.41926 12.6564 5.41926 12.6564V12.6564C5.41926 12.6564 5.41926 12.6564 5.41926 12.6564C5.41926 12.6564 5.41926 12.6564 5.41926 12.6564V12.6564C5.41926 12.6564 5.41926 12.6564 5.41926 12.6564C5.41926 12.6564 5.41926 12.6564 5.41926 12.6564V12.6564C5.41926 12.6564 5.41926 12.6564 5.41926 12.6564C5.41926 12.6564 5.41926 12.6564 5.41926 12.6564V12.6564C5.41926 12.6564 5.41926 12.6564 5.41926 12.6564C5.41926 12.6564 5.41926 12.6564 5.41926 12.6564V12.6564C5.41926 12.6564 5.41926 12.6564 5.41926 12.6564C5.41926 12.6564 5.41926 12.6564 5.41926 12.6564V12.6564C5.41926 12.6564 5.41926 12.6564 5.41926 12.6564C5.41926 12.6564 5.41926 12.6564 5.41926 12.6564V12.6564C5.41926 12.6564 5.41926 12.6564 5.41926 12.6564C5.41926 12.6564 5.41926 12.6564 5.41926 12.6564V12.6564C5.41926 12.6564 5.41926 12.6564 5.41926 12.6564C5.41926 12.6564 5.41926 12.6564 5.41926 12.6564V12.6564C5.41926 12.6564 5.41926 12.6564 5.41926 12.6564C5.41926 12.6564 5.41926 12.6564 5.41926 12.6564C5.41926 12.6564 5.41926 12.6564 5.41926 12.6564V12.6564C5.41926 12.6564 5.41926 12.6564 5.41926 12.6564C5.41926 12.6564 5.41926 12.6564 5.41926 12.6564V12.6564C5.41926 12.6564 5.41926 12.6564 5.41926 12.6564C5.41926 12.6564 5.41926 12.6564 5.41926 12.6564V12.6564C5.41926 12.6564 5.41926 12.6564 5.41926 12.6564C5.41926 12.6564 5.41926 12.6564 5.41926 12.6564V12.6564C5.41926 12.6564 5.41926 12.6564 5.41926 12.6564C5.41926 12.6564 5.41926 12.6564 5.41926 12.6564V12.6564C5.41926 12.6564 5.41926 12.6564 5.41926 12.6564C5.41926 12.6564 5.41926 12.6564 5.41926 12.6564V12.6564C5.41926 12.6564 5.41926 12.6564 5.41926 12.6564C5.41926 12.6564 5.41926 12.6564 5.41926 12.6564V12.6564C5.41926 12.6564 5.41926 12.6564 5.41926 12.6564C5.41926 12.6564 5.41926 12.6564 5.41926 12.6564V12.6564C5.41926 12.6564 5.41926 12.6564 5.41926 12.6564C5.41926 12.6564 5.41926 12.6564 5.41926 12.6564V12.6564C5.41926 12.6564 5.41926 12.6564 5.41926 12.6564C5.41926 12.6564 5.41926 12.6564 5.41926 12.6564V12.6564C5.41926 12.6564 5.41926 12.6564 5.41926 12.6564C5.41926 12.6564 5.41926 12.6564 5.41926 12.6564V12.6564C5.41926 12.6564 5.41926 12.6564 5.41926 12.6564C5.41926 12.6564 5.41926 12.6564 5.41926 12.6564V12.6564C5.41926 12.6564 5.41926 12.6564 5.41926 12.6564C5.41926 12.6564 5.41926 12.6564 5.41926 12.6564V12.6564C5.41926 12.6564 5.41926 12.6564 5.41926 12.6564C5.41926 12.6564 5.41926 12.6564 5.41926 12.6564V12.6564C5.41926 12.6564 5.41926 12.6564 5.41926 12.6564C5.41926 12.6564 5.41926 12.6564 5.41926 12.6564V12.6564C5.41926 12.6564 5.41926 12.6564 5.41926 12.6564C5.41926 12.6564 5.41926 12.6564 5.41926 12.6564V12.6564C5.41926 12.6564 5.41926 12.6564 5.41926 12.6564C5.41926 12.6564 5.41926 12.6564 5.41926 12.6564V12.6564C5.41926 12.6564 5.41926 12.6564 5.41926 12.6564C5.41926 12.6564 5.41926 12.6564 5.41926 12.6564V12.6564C5.41926 12.6564 5.41926 12.6564 5.41926 12.6564C5.41926 12.6564 5.41926 12.6564 5.41926 12.6564V12.6564C5.41926 12.6564 5.41926 12.6564 5.41926 12.6564C5.41926 12.6564 5.41926 12.6564 5.41926 12.6564V12.6564C5.41926 12.6564 5.41926 12.6564 5.41926 12.6564C5.41926 12.6564 5.41926 12.6564 5.41926 12.6564V12.6564V12.6564C5.41926 12.6564 5.41926 12.6564 5.41926 12.6564C5.41926 12.6564 5.41926 12.6564 5.41926 12.6564V12.6564C5.41926 12.6564 5.41926 12.6564 5.41926 12.6564C5.41926 12.6564 5.41926 12.6564 5.41926 12.6564V12.6564C5.41926 12.6564 5.41926 12.6564 5.41926 12.6564C5.41926 12.6564 5.41926 12.6564 5.41926 12.6564V12.6564C5.41926 12.6564 5.41926 12.6564 5.41926 12.6564C5.41926 12.6564 5.41926 12.6564 5.41926 12.6564V12.6564C5.41926 12.6564 5.41926 12.6564 5.41926 12.6564C5.41926 12.6564 5.41926 12.6564 5.41926 12.6564V12.6564C5.41926 12.6564 5.41926 12.6564 5.41926 12.6564C5.41926 12.6564 5.41926 12.6564 5.41926 12.6564V12.6564C5.41926 12.6564 5.41926 12.6564 5.41926 12.6564C5.41926 12.6564 5.41926 12.6564 5.41926 12.6564V12.6564C5.41926 12.6564 5.41926 12.6564 5.41926 12.6564C5.41926 12.6564 5.41926 12.6564 5.41926 12.6564V12.6564C5.41926 12.6564 5.41926 12.6564 5.41926 12.6564C5.41926 12.6564 5.41926 12.6564 5.41926 12.6564V12.6564C5.41926 12.6564 5.41926 12.6564 5.41926 12.6564C5.41926 12.6564 5.41926 12.6564 5.41926 12.6564V12.6564C5.41926 12.6564 5.41926 12.6564 5.41926 12.6564C5.41926 12.6564 5.41926 12.6564 5.41926 12.6564V12.6564C5.41926 12.6564 5.41926 12.6564 5.41926 12.6564C5.41926 12.6564 5.41926 12.6564 5.41926 12.6564V12.6564C5.41926 12.6564 5.41926 12.6564 5.41926 12.6564C5.41926 12.6564 5.41926 12.6564 5.41926 12.6564V12.6564C5.41926 12.6564 5.41926 12.6564 5.41926 12.6564C5.41926 12.6564 5.41926 12.6564 5.41926 12.6564V12.6564C5.41926 12.6564 5.41926 12.6564 5.41926 12.6564C5.41926 12.6564 5.41926 12.6564 5.41926 12.6564V12.6564C5.41926 12.6564 5.41926 12.6564 5.41926 12.6564C5.41926 12.6564 5.41926 12.6564 5.41926 12.6564V12.6564C5.41926 12.6564 5.41926 12.6564 5.41926 12.6564C5.41926 12.6564 5.41926 12.6564 5.41926 12.6564V12.6564C5.41926 12.6564 5.41926 12.6564 5.41926 12.6564C5.41926 12.6564 5.41926 12.6564 5.41926 12.6564V12.6564C5.41926 12.6564 5.41926 12.6564 5.41926 12.6564C5.41926 12.6564 5.41926 12.6564 5.41926 12.6564V12.6564C5.41926 12.6564 5.41926 12.6564 5.41926 12.6564C5.41926 12.6564 5.41926 12.6564 5.41926 12.6564V12.6564C5.41926 12.6564 5.41926 12.6564 5.41926 12.6564C5.41926 12.6564 5.41926 12.6564 5.41926 12.6564C5.41926 12.6564 5.41926 12.6564 5.41926 12.6564V12.6564C5.41926 12.6564 5.41926 12.6564 5.41926 12.6564C5.41926 12.6564 5.41926 12.6564 5.41926 12.6564V12.6564C5.41926 12.6564 5.41926 12.6564 5.41926 12.6564C5.41926 12.6564 5.41926 12.6564 5.41926 12.6564V12.6564C5.41926 12.6564 5.41926 12.6564 5.41926 12.6564C5.41926 12.6564 5.41926 12.6564 5.41926 12.6564V12.6564C5.41926 12.6564 5.41926 12.6564 5.41926 12.6564C5.41926 12.6564 5.41926 12.6564 5.41926 12.6564V12.6564C5.41926 12.6564 5.41926 12.6564 5.41926 12.6564C5.41926 12.6564 5.41926 12.6564 5.41926 12.6564V12.6564C5.41926 12.6564 5.41926 12.6564 5.41926 12.6564C5.41926 12.6564 5.41926 12.6564 5.41926 12.6564V12.6564C5.41926 12.6564 5.41926 12.6564 5.41926 12.6564C5.41926 12.6564 5.41926 12.6564 5.41926 12.6564V12.6564C5.41926 12.6564 5.41926 12.6564 5.41926 12.6564C5.41926 12.6564 5.41926 12.6564 5.41926 12.6564V12.6564C5.41926 12.6564 5.41926 12.6564 5.41926 12.6564C5.41926 12.6564 5.41926 12.6564 5.41926 12.6564V12.6564C5.41926 12.6564 5.41926 12.6564 5.41926 12.6564C5.41926 12.6564 5.41926 12.6564 5.41926 12.6564V12.6564C5.41926 12.6564 5.41926 12.6564 5.41926 12.6564C5.41926 12.6564 5.41926 12.6564 5.41926 12.6564V12.6564C5.41926 12.6564 5.41926 12.6564 5.41926 12.6564C5.41926 12.6564 5.41926 12.6564 5.41926 12.6564V12.6564C5.41926 12.6564 5.41926 12.6564 5.41926 12.6564C5.41926 12.6564 5.41926 12.6564 5.41926 12.6564V12.6564C5.41926 12.6564 5.41926 12.6564 5.41926 12.6564C5.41926 12.6564 5.41926 12.6564 5.41926 12.6564V12.6564C5.41926 12.6564 5.41926 12.6564 5.41926 12.6564C5.41926 12.6564 5.41926 12.6564 5.41926 12.6564V12.6564C5.41926 12.6564 5.41926 12.6564 5.41926 12.6564C5.41926 12.6564 5.41926 12.6564 5.41926 12.6564V12.6564C5.41926 12.6564 5.41926 12.6564 5.41926 12.6564C5.41926 12.6564 5.41926 12.6564 5.41926 12.6564C5.41926 12.6564 5.41926 12.6564 5.41926 12.6564V12.6564C5.41926 12.6564 5.41926 12.6564 5.41926 12.6564C5.41926 12.6564 5.41926 12.6564 5.41926 12.6564V12.6564C5.41926 12.6564 5.41926 12.6564 5.41926 12.6564C5.41926 12.6564 5.41926 12.6564 5.41926 12.6564V12.6564C5.41926 12.6564 5.41926 12.6564 5.41926 12.6564C5.41926 12.6564 5.41926 12.6564 5.41926 12.6564V12.6564C5.41926 12.6564 5.41926 12.6564 5.41926 12.6564C5.41926 12.6564 5.41926 12.6564 5.41926 12.6564V12.6564C5.41926 12.6564 5.41926 12.6564 5.41926 12.6564C5.41926 12.6564 5.41926 12.6564 5.41926 12.6564V12.6564C5.41926 12.6564 5.41926 12.6564 5.41926 12.6564C5.41926 12.6564 5.41926 12.6564 5.41926 12.6564V12.6564C5.41926 12.6564 5.41926 12.6564 5.41926 12.6564C5.41926 12.6564 5.41926 12.6564 5.41926 12.6564V12.6564C5.41926 12.6564 5.41926 12.6564 5.41926 12.6564C5.41926 12.6564 5.41926 12.6564 5.41926 12.6564V12.6564C5.41926 12.6564 5.41926 12.6564 5.41926 12.6564C5.41926 12.6564 5.41926 12.6564 5.41926 12.6564V12.6564C5.41926 12.6564 5.41926 12.6564 5.41926 12.6564C5.41926 12.6564 5.41926 12.6564 5.41926 12.6564V12.6564C5.41926 12.6564 5.41926 12.6564 5.41926 12.6564C5.41926 12.6564 5.41926 12.6564 5.41926 12.6564V12.6564C5.41926 12.6564 5.41926 12.6564 5.41926 12.6564C5.41926 12.6564 5.41926 12.6564 5.41926 12.6564V12.6564C5.41926 12.6564 5.41926 12.6564 5.41926 12.6564C5.41926 12.6564 5.41926 12.6564 5.41926 12.6564V12.6564C5.41926 12.6564 5.41926 12.6564 5.41926 12.6564C5.41926 12.6564 5.41926 12.6564 5.41926 12.6564C5.41926 12.6564 5.41926 12.6564 5.41926 12.6564V12.6564C5.41926 12.6564 5.41926 12.6564 5.41926 12.6564C5.41926 12.6564 5.41926 12.6564 5.41926 12.6564V12.6564C5.41926 12.6564 5.41926 12.6564 5.41926 12.6564C5.41926 12.6564 5.41926 12.6564 5.41926 12.6564V12.6564C5.41926 12.6564 5.41926 12.6564 5.41926 12.6564C5.41926 12.6564 5.41926 12.6564 5.41926 12.6564V12.6564C5.41926 12.6564 5.41926 12.6564 5.41926 12.6564C5.41926 12.6564 5.41926 12.6564 5.41926 12.6564V12.6564C5.41926 12.6564 5.41926 12.6564 5.41926 12.6564C5.41926 12.6564 5.41926 12.6564 5.41926 12.6564V12.6564C5.41926 12.6564 5.41926 12.6564 5.41926 12.6564C5.41926 12.6564 5.41926 12.6564 5.41926 12.6564V12.6564C5.41926 12.6564 5.41926 12.6564 5.41926 12.6564C5.41926 12.6564 5.41926 12.6564 5.41926 12.6564V12.6564C5.41926 12.6564 5.41926 12.6564 5.41926 12.6564C5.41926 12.6564 5.41926 12.6564 5.41926 12.6564V12.6564C5.41926 12.6564 5.41926 12.6564 5.41926 12.6564C5.41926 12.6564 5.41926 12.6564 5.41926 12.6564V12.6564C5.41926 12.6564 5.41926 12.6564 5.41926 12.6564C5.41926 12.6564 5.41926 12.6564 5.41926 12.6564V12.6564C5.41926 12.6564 5.41926 12.6564 5.41926 12.6564C5.41926 12.6564 5.41926 12.6564 5.41926 12.6564V12.6564H0.0464056V12.6564C0.0464056 12.6564 0.0464056 12.6564 0.0464056 12.6564C0.0464056 12.6564 0.0464056 12.6564 0.0464056 12.6564V12.6564C0.0464056 12.6564 0.0464056 12.6564 0.0464056 12.6564C0.0464056 12.6564 0.0464056 12.6564 0.0464056 12.6564V12.6564C0.0464056 12.6564 0.0464056 12.6564 0.0464056 12.6564C0.0464056 12.6564 0.0464056 12.6564 0.0464056 12.6564V12.6564C0.0464056 12.6564 0.0464056 12.6564 0.0464056 12.6564C0.0464056 12.6564 0.0464056 12.6564 0.0464056 12.6564V12.6564C0.0464056 12.6564 0.0464056 12.6564 0.0464056 12.6564C0.0464056 12.6564 0.0464056 12.6564 0.0464056 12.6564V12.6564C0.0464056 12.6564 0.0464056 12.6564 0.0464056 12.6564C0.0464056 12.6564 0.0464056 12.6564 0.0464056 12.6564V12.6564C0.0464056 12.6564 0.0464056 12.6564 0.0464056 12.6564C0.0464056 12.6564 0.0464056 12.6564 0.0464056 12.6564V12.6564C0.0464056 12.6564 0.0464056 12.6564 0.0464056 12.6564C0.0464056 12.6564 0.0464056 12.6564 0.0464056 12.6564V12.6564C0.0464056 12.6564 0.0464056 12.6564 0.0464056 12.6564C0.0464056 12.6564 0.0464056 12.6564 0.0464056 12.6564V12.6564C0.0464056 12.6564 0.0464056 12.6564 0.0464056 12.6564C0.0464056 12.6564 0.0464056 12.6564 0.0464056 12.6564V12.6564C0.0464056 12.6564 0.0464056 12.6564 0.0464056 12.6564C0.0464056 12.6564 0.0464056 12.6564 0.0464056 12.6564V12.6564C0.0464056 12.6564 0.0464056 12.6564 0.0464056 12.6564C0.0464056 12.6564 0.0464056 12.6564 0.0464056 12.6564C0.0464056 12.6564 0.0464056 12.6564 0.0464056 12.6564V12.6564C0.0464056 12.6564 0.0464056 12.6564 0.0464056 12.6564C0.0464056 12.6564 0.0464056 12.6564 0.0464056 12.6564V12.6564C0.0464056 12.6564 0.0464056 12.6564 0.0464056 12.6564C0.0464056 12.6564 0.0464056 12.6564 0.0464056 12.6564V12.6564C0.0464056 12.6564 0.0464056 12.6564 0.0464056 12.6564C0.0464056 12.6564 0.0464056 12.6564 0.0464056 12.6564V12.6564C0.0464056 12.6564 0.0464056 12.6564 0.0464056 12.6564C0.0464056 12.6564 0.0464056 12.6564 0.0464056 12.6564V12.6564C0.0464056 12.6564 0.0464056 12.6564 0.0464056 12.6564C0.0464056 12.6564 0.0464056 12.6564 0.0464056 12.6564V12.6564C0.0464056 12.6564 0.0464056 12.6564 0.0464056 12.6564C0.0464056 12.6564 0.0464056 12.6564 0.0464056 12.6564V12.6564C0.0464056 12.6564 0.0464056 12.6564 0.0464056 12.6564C0.0464056 12.6564 0.0464056 12.6564 0.0464056 12.6564V12.6564C0.0464056 12.6564 0.0464056 12.6564 0.0464056 12.6564C0.0464056 12.6564 0.0464056 12.6564 0.0464056 12.6564V12.6564C0.0464056 12.6564 0.0464056 12.6564 0.0464056 12.6564C0.0464056 12.6564 0.0464056 12.6564 0.0464056 12.6564V12.6564C0.0464056 12.6564 0.0464056 12.6564 0.0464056 12.6564C0.0464056 12.6564 0.0464056 12.6564 0.0464056 12.6564V12.6564C0.0464056 12.6564 0.0464056 12.6564 0.0464056 12.6564C0.0464056 12.6564 0.0464056 12.6564 0.0464056 12.6564V12.6564C0.0464056 12.6564 0.0464056 12.6564 0.0464056 12.6564C0.0464056 12.6564 0.0464056 12.6564 0.0464056 12.6564V12.6564C0.0464056 12.6564 0.0464056 12.6564 0.0464056 12.6564C0.0464056 12.6564 0.0464056 12.6564 0.0464056 12.6564V12.6564C0.0464056 12.6564 0.0464056 12.6564 0.0464056 12.6564C0.0464056 12.6564 0.0464056 12.6564 0.0464056 12.6564C0.0464056 12.6564 0.0464056 12.6564 0.0464056 12.6564V12.6564C0.0464056 12.6564 0.0464056 12.6564 0.0464056 12.6564C0.0464056 12.6564 0.0464056 12.6564 0.0464056 12.6564V12.6564C0.0464056 12.6564 0.0464056 12.6564 0.0464056 12.6564C0.0464056 12.6564 0.0464056 12.6564 0.0464056 12.6564V12.6564C0.0464056 12.6564 0.0464056 12.6564 0.0464056 12.6564C0.0464056 12.6564 0.0464056 12.6564 0.0464056 12.6564V12.6564C0.0464056 12.6564 0.0464056 12.6564 0.0464056 12.6564C0.0464056 12.6564 0.0464056 12.6564 0.0464056 12.6564V12.6564C0.0464056 12.6564 0.0464056 12.6564 0.0464056 12.6564C0.0464056 12.6564 0.0464056 12.6564 0.0464056 12.6564V12.6564C0.0464056 12.6564 0.0464056 12.6564 0.0464056 12.6564C0.0464056 12.6564 0.0464056 12.6564 0.0464056 12.6564V12.6564C0.0464056 12.6564 0.0464056 12.6564 0.0464056 12.6564C0.0464056 12.6564 0.0464056 12.6564 0.0464056 12.6564V12.6564C0.0464056 12.6564 0.0464056 12.6564 0.0464056 12.6564C0.0464056 12.6564 0.0464056 12.6564 0.0464056 12.6564V12.6564C0.0464056 12.6564 0.0464056 12.6564 0.0464056 12.6564C0.0464056 12.6564 0.0464056 12.6564 0.0464056 12.6564V12.6564C0.0464056 12.6564 0.0464056 12.6564 0.0464056 12.6564C0.0464056 12.6564 0.0464056 12.6564 0.0464056 12.6564V12.6564C0.0464056 12.6564 0.0464056 12.6564 0.0464056 12.6564C0.0464056 12.6564 0.0464056 12.6564 0.0464056 12.6564V12.6564C0.0464056 12.6564 0.0464056 12.6564 0.0464056 12.6564C0.0464056 12.6564 0.0464056 12.6564 0.0464056 12.6564V12.6564C0.0464056 12.6564 0.0464056 12.6564 0.0464056 12.6564C0.0464056 12.6564 0.0464056 12.6564 0.0464056 12.6564V12.6564C0.0464056 12.6564 0.0464056 12.6564 0.0464056 12.6564C0.0464056 12.6564 0.0464056 12.6564 0.0464056 12.6564V12.6564C0.0464056 12.6564 0.0464056 12.6564 0.0464056 12.6564C0.0464056 12.6564 0.0464056 12.6564 0.0464056 12.6564V12.6564C0.0464056 12.6564 0.0464056 12.6564 0.0464056 12.6564C0.0464056 12.6564 0.0464056 12.6564 0.0464056 12.6564V12.6564C0.0464056 12.6564 0.0464056 12.6564 0.0464056 12.6564C0.0464056 12.6564 0.0464056 12.6564 0.0464056 12.6564C0.0464056 12.6564 0.0464056 12.6564 0.0464056 12.6564V12.6564C0.0464056 12.6564 0.0464056 12.6564 0.0464056 12.6564C0.0464056 12.6564 0.0464056 12.6564 0.0464056 12.6564V12.6564C0.0464056 12.6564 0.0464056 12.6564 0.0464056 12.6564C0.0464056 12.6564 0.0464056 12.6564 0.0464056 12.6564V12.6564C0.0464056 12.6564 0.0464056 12.6564 0.0464056 12.6564C0.0464056 12.6564 0.0464056 12.6564 0.0464056 12.6564V12.6564C0.0464056 12.6564 0.0464056 12.6564 0.0464056 12.6564C0.0464056 12.6564 0.0464056 12.6564 0.0464056 12.6564V12.6564C0.0464056 12.6564 0.0464056 12.6564 0.0464056 12.6564C0.0464056 12.6564 0.0464056 12.6564 0.0464056 12.6564V12.6564C0.0464056 12.6564 0.0464056 12.6564 0.0464056 12.6564C0.0464056 12.6564 0.0464056 12.6564 0.0464056 12.6564V12.6564C0.0464056 12.6564 0.0464056 12.6564 0.0464056 12.6564C0.0464056 12.6564 0.0464056 12.6564 0.0464056 12.6564V12.6564C0.0464056 12.6564 0.0464056 12.6564 0.0464056 12.6564C0.0464056 12.6564 0.0464056 12.6564 0.0464056 12.6564V12.6564C0.0464056 12.6564 0.0464056 12.6564 0.0464056 12.6564C0.0464056 12.6564 0.0464056 12.6564 0.0464056 12.6564V12.6564C0.0464056 12.6564 0.0464056 12.6564 0.0464056 12.6564C0.0464056 12.6564 0.0464056 12.6564 0.0464056 12.6564V12.6564C0.0464056 12.6564 0.0464056 12.6564 0.0464056 12.6564C0.0464056 12.6564 0.0464056 12.6564 0.0464056 12.6564V12.6564C0.0464056 12.6564 0.0464056 12.6564 0.0464056 12.6564C0.0464056 12.6564 0.0464056 12.6564 0.0464056 12.6564V12.6564C0.0464056 12.6564 0.0464056 12.6564 0.0464056 12.6564C0.0464056 12.6564 0.0464056 12.6564 0.0464056 12.6564V12.6564C0.0464056 12.6564 0.0464056 12.6564 0.0464056 12.6564C0.0464056 12.6564 0.0464056 12.6564 0.0464056 12.6564V12.6564C0.0464056 12.6564 0.0464056 12.6564 0.0464056 12.6564C0.0464056 12.6564 0.0464056 12.6564 0.0464056 12.6564V12.6564C0.0464056 12.6564 0.0464056 12.6564 0.0464056 12.6564C0.0464056 12.6564 0.0464056 12.6564 0.0464056 12.6564V12.6564C0.0464056 12.6564 0.0464056 12.6564 0.0464056 12.6564C0.0464056 12.6564 0.0464056 12.6564 0.0464056 12.6564V12.6564C0.0464056 12.6564 0.0464056 12.6564 0.0464056 12.6564C0.0464056 12.6564 0.0464056 12.6564 0.0464056 12.6564V12.6564C0.0464056 12.6564 0.0464056 12.6564 0.0464056 12.6564C0.0464056 12.6564 0.0464056 12.6564 0.0464056 12.6564V12.6564C0.0464056 12.6564 0.0464056 12.6564 0.0464056 12.6564C0.0464056 12.6564 0.0464056 12.6564 0.0464056 12.6564V12.6564V12.6564C0.0464056 12.6564 0.0464056 12.6564 0.0464056 12.6564C0.0464056 12.6564 0.0464056 12.6564 0.0464056 12.6564V12.6564C0.0464056 12.6564 0.0464056 12.6564 0.0464056 12.6564C0.0464056 12.6564 0.0464056 12.6564 0.0464056 12.6564V12.6564C0.0464056 12.6564 0.0464056 12.6564 0.0464056 12.6564C0.0464056 12.6564 0.0464056 12.6564 0.0464056 12.6564V12.6564C0.0464056 12.6564 0.0464056 12.6564 0.0464056 12.6564C0.0464056 12.6564 0.0464056 12.6564 0.0464056 12.6564V12.6564C0.0464056 12.6564 0.0464056 12.6564 0.0464056 12.6564C0.0464056 12.6564 0.0464056 12.6564 0.0464056 12.6564V12.6564C0.0464056 12.6564 0.0464056 12.6564 0.0464056 12.6564C0.0464056 12.6564 0.0464056 12.6564 0.0464056 12.6564V12.6564C0.0464056 12.6564 0.0464056 12.6564 0.0464056 12.6564C0.0464056 12.6564 0.0464056 12.6564 0.0464056 12.6564V12.6564C0.0464056 12.6564 0.0464056 12.6564 0.0464056 12.6564C0.0464056 12.6564 0.0464056 12.6564 0.0464056 12.6564V12.6564C0.0464056 12.6564 0.0464056 12.6564 0.0464056 12.6564C0.0464056 12.6564 0.0464056 12.6564 0.0464056 12.6564V12.6564C0.0464056 12.6564 0.0464056 12.6564 0.0464056 12.6564C0.0464056 12.6564 0.0464056 12.6564 0.0464056 12.6564V12.6564C0.0464056 12.6564 0.0464056 12.6564 0.0464056 12.6564C0.0464056 12.6564 0.0464056 12.6564 0.0464056 12.6564V12.6564C0.0464056 12.6564 0.0464056 12.6564 0.0464056 12.6564C0.0464056 12.6564 0.0464056 12.6564 0.0464056 12.6564V12.6564C0.0464056 12.6564 0.0464056 12.6564 0.0464056 12.6564C0.0464056 12.6564 0.0464056 12.6564 0.0464056 12.6564V12.6564C0.0464056 12.6564 0.0464056 12.6564 0.0464056 12.6564C0.0464056 12.6564 0.0464056 12.6564 0.0464056 12.6564V12.6564C0.0464056 12.6564 0.0464056 12.6564 0.0464056 12.6564C0.0464056 12.6564 0.0464056 12.6564 0.0464056 12.6564V12.6564C0.0464056 12.6564 0.0464056 12.6564 0.0464056 12.6564C0.0464056 12.6564 0.0464056 12.6564 0.0464056 12.6564V12.6564C0.0464056 12.6564 0.0464056 12.6564 0.0464056 12.6564C0.0464056 12.6564 0.0464056 12.6564 0.0464056 12.6564V12.6564C0.0464056 12.6564 0.0464056 12.6564 0.0464056 12.6564C0.0464056 12.6564 0.0464056 12.6564 0.0464056 12.6564V12.6564C0.0464056 12.6564 0.0464056 12.6564 0.0464056 12.6564C0.0464056 12.6564 0.0464056 12.6564 0.0464056 12.6564V12.6564C0.0464056 12.6564 0.0464056 12.6564 0.0464056 12.6564C0.0464056 12.6564 0.0464056 12.6564 0.0464056 12.6564V12.6564C0.0464056 12.6564 0.0464056 12.6564 0.0464056 12.6564C0.0464056 12.6564 0.0464056 12.6564 0.0464056 12.6564C0.0464056 12.6564 0.0464056 12.6564 0.0464056 12.6564V12.6564C0.0464056 12.6564 0.0464056 12.6564 0.0464056 12.6564C0.0464056 12.6564 0.0464056 12.6564 0.0464056 12.6564V12.6564C0.0464056 12.6564 0.0464056 12.6564 0.0464056 12.6564C0.0464056 12.6564 0.0464056 12.6564 0.0464056 12.6564V12.6564C0.0464056 12.6564 0.0464056 12.6564 0.0464056 12.6564C0.0464056 12.6564 0.0464056 12.6564 0.0464056 12.6564V12.6564C0.0464056 12.6564 0.0464056 12.6564 0.0464056 12.6564C0.0464056 12.6564 0.0464056 12.6564 0.0464056 12.6564V12.6564C0.0464056 12.6564 0.0464056 12.6564 0.0464056 12.6564C0.0464056 12.6564 0.0464056 12.6564 0.0464056 12.6564V12.6564C0.0464056 12.6564 0.0464056 12.6564 0.0464056 12.6564C0.0464056 12.6564 0.0464056 12.6564 0.0464056 12.6564V12.6564C0.0464056 12.6564 0.0464056 12.6564 0.0464056 12.6564C0.0464056 12.6564 0.0464056 12.6564 0.0464056 12.6564V12.6564C0.0464056 12.6564 0.0464056 12.6564 0.0464056 12.6564C0.0464056 12.6564 0.0464056 12.6564 0.0464056 12.6564V12.6564C0.0464056 12.6564 0.0464056 12.6564 0.0464056 12.6564C0.0464056 12.6564 0.0464056 12.6564 0.0464056 12.6564V12.6564C0.0464056 12.6564 0.0464056 12.6564 0.0464056 12.6564C0.0464056 12.6564 0.0464056 12.6564 0.0464056 12.6564V12.6564C0.0464056 12.6564 0.0464056 12.6564 0.0464056 12.6564C0.0464056 12.6564 0.0464056 12.6564 0.0464056 12.6564V12.6564C0.0464056 12.6564 0.0464056 12.6564 0.0464056 12.6564C0.0464056 12.6564 0.0464056 12.6564 0.0464056 12.6564V12.6564C0.0464056 12.6564 0.0464056 12.6564 0.0464056 12.6564C0.0464056 12.6564 0.0464056 12.6564 0.0464056 12.6564V12.6564C0.0464056 12.6564 0.0464056 12.6564 0.0464056 12.6564C0.0464056 12.6564 0.0464056 12.6564 0.0464056 12.6564V12.6564C0.0464056 12.6564 0.0464056 12.6564 0.0464056 12.6564C0.0464056 12.6564 0.0464056 12.6564 0.0464056 12.6564V12.6564C0.0464056 12.6564 0.0464056 12.6564 0.0464056 12.6564C0.0464056 12.6564 0.0464056 12.6564 0.0464056 12.6564V12.6564C0.0464056 12.6564 0.0464056 12.6564 0.0464056 12.6564C0.0464056 12.6564 0.0464056 12.6564 0.0464056 12.6564C0.0464056 12.6564 0.0464056 12.6564 0.0464056 12.6564V12.6564C0.0464056 12.6564 0.0464056 12.6564 0.0464056 12.6564C0.0464056 12.6564 0.0464056 12.6564 0.0464056 12.6564V12.6564C0.0464056 12.6564 0.0464056 12.6564 0.0464056 12.6564C0.0464056 12.6564 0.0464056 12.6564 0.0464056 12.6564V12.6564C0.0464056 12.6564 0.0464056 12.6564 0.0464056 12.6564C0.0464056 12.6564 0.0464056 12.6564 0.0464056 12.6564V12.6564C0.0464056 12.6564 0.0464056 12.6564 0.0464056 12.6564C0.0464056 12.6564 0.0464056 12.6564 0.0464056 12.6564V12.6564C0.0464056 12.6564 0.0464056 12.6564 0.0464056 12.6564C0.0464056 12.6564 0.0464056 12.6564 0.0464056 12.6564V12.6564C0.0464056 12.6564 0.0464056 12.6564 0.0464056 12.6564C0.0464056 12.6564 0.0464056 12.6564 0.0464056 12.6564V12.6564C0.0464056 12.6564 0.0464056 12.6564 0.0464056 12.6564C0.0464056 12.6564 0.0464056 12.6564 0.0464056 12.6564V12.6564C0.0464056 12.6564 0.0464056 12.6564 0.0464056 12.6564C0.0464056 12.6564 0.0464056 12.6564 0.0464056 12.6564V12.6564C0.0464056 12.6564 0.0464056 12.6564 0.0464056 12.6564C0.0464056 12.6564 0.0464056 12.6564 0.0464056 12.6564V12.6564C0.0464056 12.6564 0.0464056 12.6564 0.0464056 12.6564C0.0464056 12.6564 0.0464056 12.6564 0.0464056 12.6564V12.6564C0.0464056 12.6564 0.0464056 12.6564 0.0464056 12.6564C0.0464056 12.6564 0.0464056 12.6564 0.0464056 12.6564V12.6564C0.0464056 12.6564 0.0464056 12.6564 0.0464056 12.6564C0.0464056 12.6564 0.0464056 12.6564 0.0464056 12.6564V12.6564C0.0464056 12.6564 0.0464056 12.6564 0.0464056 12.6564C0.0464056 12.6564 0.0464056 12.6564 0.0464056 12.6564V12.6564C0.0464056 12.6564 0.0464056 12.6564 0.0464056 12.6564C0.0464056 12.6564 0.0464056 12.6564 0.0464056 12.6564C0.0464056 12.6564 0.0464056 12.6564 0.0464056 12.6564V12.6564C0.0464056 12.6564 0.0464056 12.6564 0.0464056 12.6564C0.0464056 12.6564 0.0464056 12.6564 0.0464056 12.6564V12.6564C0.0464056 12.6564 0.0464056 12.6564 0.0464056 12.6564C0.0464056 12.6564 0.0464056 12.6564 0.0464056 12.6564V12.6564C0.0464056 12.6564 0.0464056 12.6564 0.0464056 12.6564C0.0464056 12.6564 0.0464056 12.6564 0.0464056 12.6564V12.6564C0.0464056 12.6564 0.0464056 12.6564 0.0464056 12.6564C0.0464056 12.6564 0.0464056 12.6564 0.0464056 12.6564V12.6564C0.0464056 12.6564 0.0464056 12.6564 0.0464056 12.6564C0.0464056 12.6564 0.0464056 12.6564 0.0464056 12.6564V12.6564C0.0464056 12.6564 0.0464056 12.6564 0.0464056 12.6564C0.0464056 12.6564 0.0464056 12.6564 0.0464056 12.6564V12.6564C0.0464056 12.6564 0.0464056 12.6564 0.0464056 12.6564C0.0464056 12.6565 0.0464056 12.6565 0.0464056 12.6565V12.6565C0.0464056 12.6565 0.0464056 12.6565 0.0464056 12.6565C0.0464056 12.6565 0.0464056 12.6565 0.0464056 12.6565V12.6565C0.0464056 12.6565 0.0464056 12.6565 0.0464056 12.6565C0.0464056 12.6565 0.0464056 12.6565 0.0464056 12.6565V12.6565C0.0464056 12.6565 0.0464056 12.6565 0.0464056 12.6565C0.0464056 12.6565 0.0464056 12.6565 0.0464056 12.6565V12.6565C0.0464056 12.6565 0.0464056 12.6565 0.0464056 12.6565C0.0464056 12.6565 0.0464056 12.6565 0.0464056 12.6565V12.6565H5.41926ZM5.41926 12.6564C5.41926 12.5227 5.52759 12.4144 5.66121 12.4144V7.04156C2.56024 7.04156 0.0464056 9.55539 0.0464056 12.6564H5.41926ZM5.66121 12.4144C5.79483 12.4144 5.90316 12.5227 5.90316 12.6564H11.276C11.276 9.55539 8.76218 7.04156 5.66121 7.04156V12.4144ZM5.90316 12.6564V12.6564C5.90316 12.6564 5.90316 12.6564 5.90316 12.6564C5.90316 12.6564 5.90316 12.6564 5.90316 12.6564V12.6564C5.90316 12.6564 5.90316 12.6564 5.90316 12.6564C5.90316 12.6564 5.90316 12.6564 5.90316 12.6564V12.6564C5.90316 12.6564 5.90316 12.6564 5.90316 12.6564C5.90316 12.6564 5.90316 12.6564 5.90316 12.6564V12.6564C5.90316 12.6564 5.90316 12.6564 5.90316 12.6564C5.90316 12.6564 5.90316 12.6564 5.90316 12.6564V12.6564C5.90316 12.6564 5.90316 12.6564 5.90316 12.6564C5.90316 12.6564 5.90316 12.6564 5.90316 12.6564V12.6564C5.90316 12.6564 5.90316 12.6564 5.90316 12.6564C5.90316 12.6564 5.90316 12.6564 5.90316 12.6564V12.6564C5.90316 12.6564 5.90316 12.6564 5.90316 12.6564C5.90316 12.6564 5.90316 12.6564 5.90316 12.6564V12.6564C5.90316 12.6564 5.90316 12.6564 5.90316 12.6564C5.90316 12.6564 5.90316 12.6564 5.90316 12.6564V12.6564C5.90316 12.6564 5.90316 12.6564 5.90316 12.6564C5.90316 12.6564 5.90316 12.6564 5.90316 12.6564V12.6564C5.90316 12.6564 5.90316 12.6564 5.90316 12.6564C5.90316 12.6564 5.90316 12.6564 5.90316 12.6564V12.6564C5.90316 12.6564 5.90316 12.6564 5.90316 12.6564C5.90316 12.6564 5.90316 12.6564 5.90316 12.6564V12.6564C5.90316 12.6564 5.90316 12.6564 5.90316 12.6564C5.90316 12.6564 5.90316 12.6564 5.90316 12.6564C5.90316 12.6564 5.90316 12.6564 5.90316 12.6564V12.6564C5.90316 12.6564 5.90316 12.6564 5.90316 12.6564C5.90316 12.6564 5.90316 12.6564 5.90316 12.6564V12.6564C5.90316 12.6564 5.90316 12.6564 5.90316 12.6564C5.90316 12.6564 5.90316 12.6564 5.90316 12.6564V12.6564C5.90316 12.6564 5.90316 12.6564 5.90316 12.6564C5.90316 12.6564 5.90316 12.6564 5.90316 12.6564V12.6564C5.90316 12.6564 5.90316 12.6564 5.90316 12.6564C5.90316 12.6564 5.90316 12.6564 5.90316 12.6564V12.6564C5.90316 12.6564 5.90316 12.6564 5.90316 12.6564C5.90316 12.6564 5.90316 12.6564 5.90316 12.6564V12.6564C5.90316 12.6564 5.90316 12.6564 5.90316 12.6564C5.90316 12.6564 5.90316 12.6564 5.90316 12.6564V12.6564C5.90316 12.6564 5.90316 12.6564 5.90316 12.6564C5.90316 12.6564 5.90316 12.6564 5.90316 12.6564V12.6564C5.90316 12.6564 5.90316 12.6564 5.90316 12.6564C5.90316 12.6564 5.90316 12.6564 5.90316 12.6564V12.6564C5.90316 12.6564 5.90316 12.6564 5.90316 12.6564C5.90316 12.6564 5.90316 12.6564 5.90316 12.6564V12.6564C5.90316 12.6564 5.90316 12.6564 5.90316 12.6564C5.90316 12.6564 5.90316 12.6564 5.90316 12.6564V12.6564C5.90316 12.6564 5.90316 12.6564 5.90316 12.6564C5.90316 12.6564 5.90316 12.6564 5.90316 12.6564V12.6564C5.90316 12.6564 5.90316 12.6564 5.90316 12.6564C5.90316 12.6564 5.90316 12.6564 5.90316 12.6564V12.6564C5.90316 12.6564 5.90316 12.6564 5.90316 12.6564C5.90316 12.6564 5.90316 12.6564 5.90316 12.6564V12.6564C5.90316 12.6564 5.90316 12.6564 5.90316 12.6564C5.90316 12.6564 5.90316 12.6564 5.90316 12.6564C5.90316 12.6564 5.90316 12.6564 5.90316 12.6564V12.6564C5.90316 12.6564 5.90316 12.6564 5.90316 12.6564C5.90316 12.6564 5.90316 12.6564 5.90316 12.6564V12.6564C5.90316 12.6564 5.90316 12.6564 5.90316 12.6564C5.90316 12.6564 5.90316 12.6564 5.90316 12.6564V12.6564C5.90316 12.6564 5.90316 12.6564 5.90316 12.6564C5.90316 12.6564 5.90316 12.6564 5.90316 12.6564V12.6564C5.90316 12.6564 5.90316 12.6564 5.90316 12.6564C5.90316 12.6564 5.90316 12.6564 5.90316 12.6564V12.6564C5.90316 12.6564 5.90316 12.6564 5.90316 12.6564C5.90316 12.6564 5.90316 12.6564 5.90316 12.6564V12.6564C5.90316 12.6564 5.90316 12.6564 5.90316 12.6564C5.90316 12.6564 5.90316 12.6564 5.90316 12.6564V12.6564C5.90316 12.6564 5.90316 12.6564 5.90316 12.6564C5.90316 12.6564 5.90316 12.6564 5.90316 12.6564V12.6564C5.90316 12.6564 5.90316 12.6564 5.90316 12.6564C5.90316 12.6564 5.90316 12.6564 5.90316 12.6564V12.6564C5.90316 12.6564 5.90316 12.6564 5.90316 12.6564C5.90316 12.6564 5.90316 12.6564 5.90316 12.6564V12.6564C5.90316 12.6564 5.90316 12.6564 5.90316 12.6564C5.90316 12.6564 5.90316 12.6564 5.90316 12.6564V12.6564C5.90316 12.6564 5.90316 12.6564 5.90316 12.6564C5.90316 12.6564 5.90316 12.6564 5.90316 12.6564V12.6564C5.90316 12.6564 5.90316 12.6564 5.90316 12.6564C5.90316 12.6564 5.90316 12.6564 5.90316 12.6564V12.6564C5.90316 12.6564 5.90316 12.6564 5.90316 12.6564C5.90316 12.6564 5.90316 12.6564 5.90316 12.6564V12.6564C5.90316 12.6564 5.90316 12.6564 5.90316 12.6564C5.90316 12.6564 5.90316 12.6564 5.90316 12.6564V12.6564C5.90316 12.6564 5.90316 12.6564 5.90316 12.6564C5.90316 12.6564 5.90316 12.6564 5.90316 12.6564V12.6564C5.90316 12.6564 5.90316 12.6564 5.90316 12.6564C5.90316 12.6564 5.90316 12.6564 5.90316 12.6564V12.6564C5.90316 12.6564 5.90316 12.6564 5.90316 12.6564C5.90316 12.6564 5.90316 12.6564 5.90316 12.6564C5.90316 12.6564 5.90316 12.6564 5.90316 12.6564V12.6564C5.90316 12.6564 5.90316 12.6564 5.90316 12.6564C5.90316 12.6564 5.90316 12.6564 5.90316 12.6564V12.6564C5.90316 12.6564 5.90316 12.6564 5.90316 12.6564C5.90316 12.6564 5.90316 12.6564 5.90316 12.6564V12.6564C5.90316 12.6564 5.90316 12.6564 5.90316 12.6564C5.90316 12.6564 5.90316 12.6564 5.90316 12.6564V12.6564C5.90316 12.6564 5.90316 12.6564 5.90316 12.6564C5.90316 12.6564 5.90316 12.6564 5.90316 12.6564V12.6564C5.90316 12.6564 5.90316 12.6564 5.90316 12.6564C5.90316 12.6564 5.90316 12.6564 5.90316 12.6564V12.6564C5.90316 12.6564 5.90316 12.6564 5.90316 12.6564C5.90316 12.6564 5.90316 12.6564 5.90316 12.6564V12.6564C5.90316 12.6564 5.90316 12.6564 5.90316 12.6564C5.90316 12.6564 5.90316 12.6564 5.90316 12.6564V12.6564C5.90316 12.6564 5.90316 12.6564 5.90316 12.6564C5.90316 12.6564 5.90316 12.6564 5.90316 12.6564V12.6564C5.90316 12.6564 5.90316 12.6564 5.90316 12.6564C5.90316 12.6564 5.90316 12.6564 5.90316 12.6564V12.6564C5.90316 12.6564 5.90316 12.6564 5.90316 12.6564C5.90316 12.6564 5.90316 12.6564 5.90316 12.6564V12.6564C5.90316 12.6564 5.90316 12.6564 5.90316 12.6564C5.90316 12.6564 5.90316 12.6564 5.90316 12.6564V12.6564C5.90316 12.6564 5.90316 12.6564 5.90316 12.6564C5.90316 12.6564 5.90316 12.6564 5.90316 12.6564V12.6564C5.90316 12.6564 5.90316 12.6564 5.90316 12.6564C5.90316 12.6564 5.90316 12.6564 5.90316 12.6564V12.6564C5.90316 12.6564 5.90316 12.6564 5.90316 12.6564C5.90316 12.6564 5.90316 12.6564 5.90316 12.6564V12.6564C5.90316 12.6564 5.90316 12.6564 5.90316 12.6564C5.90316 12.6564 5.90316 12.6564 5.90316 12.6564V12.6564C5.90316 12.6564 5.90316 12.6564 5.90316 12.6564C5.90316 12.6564 5.90316 12.6564 5.90316 12.6564V12.6564C5.90316 12.6564 5.90316 12.6564 5.90316 12.6564C5.90316 12.6564 5.90316 12.6564 5.90316 12.6564V12.6564C5.90316 12.6564 5.90316 12.6564 5.90316 12.6564C5.90316 12.6564 5.90316 12.6564 5.90316 12.6564V12.6564C5.90316 12.6564 5.90316 12.6564 5.90316 12.6564C5.90316 12.6564 5.90316 12.6564 5.90316 12.6564V12.6564C5.90316 12.6564 5.90316 12.6564 5.90316 12.6564C5.90316 12.6564 5.90316 12.6564 5.90316 12.6564V12.6564V12.6564C5.90316 12.6564 5.90316 12.6564 5.90316 12.6564C5.90316 12.6564 5.90316 12.6564 5.90316 12.6564V12.6564C5.90316 12.6564 5.90316 12.6564 5.90316 12.6564C5.90316 12.6564 5.90316 12.6564 5.90316 12.6564V12.6564C5.90316 12.6564 5.90316 12.6564 5.90316 12.6564C5.90316 12.6564 5.90316 12.6564 5.90316 12.6564V12.6564C5.90316 12.6564 5.90316 12.6564 5.90316 12.6564C5.90316 12.6564 5.90316 12.6564 5.90316 12.6564V12.6564C5.90316 12.6564 5.90316 12.6564 5.90316 12.6564C5.90316 12.6564 5.90316 12.6564 5.90316 12.6564V12.6564C5.90316 12.6564 5.90316 12.6564 5.90316 12.6564C5.90316 12.6564 5.90316 12.6564 5.90316 12.6564V12.6564C5.90316 12.6564 5.90316 12.6564 5.90316 12.6564C5.90316 12.6564 5.90316 12.6564 5.90316 12.6564V12.6564C5.90316 12.6564 5.90316 12.6564 5.90316 12.6564C5.90316 12.6564 5.90316 12.6564 5.90316 12.6564V12.6564C5.90316 12.6564 5.90316 12.6564 5.90316 12.6564C5.90316 12.6564 5.90316 12.6564 5.90316 12.6564V12.6564C5.90316 12.6564 5.90316 12.6564 5.90316 12.6564C5.90316 12.6564 5.90316 12.6564 5.90316 12.6564V12.6564C5.90316 12.6564 5.90316 12.6564 5.90316 12.6564C5.90316 12.6564 5.90316 12.6564 5.90316 12.6564V12.6564C5.90316 12.6564 5.90316 12.6564 5.90316 12.6564C5.90316 12.6564 5.90316 12.6564 5.90316 12.6564V12.6564C5.90316 12.6564 5.90316 12.6564 5.90316 12.6564C5.90316 12.6564 5.90316 12.6564 5.90316 12.6564V12.6564C5.90316 12.6564 5.90316 12.6564 5.90316 12.6564C5.90316 12.6564 5.90316 12.6564 5.90316 12.6564V12.6564C5.90316 12.6564 5.90316 12.6564 5.90316 12.6564C5.90316 12.6564 5.90316 12.6564 5.90316 12.6564V12.6564C5.90316 12.6564 5.90316 12.6564 5.90316 12.6564C5.90316 12.6564 5.90316 12.6564 5.90316 12.6564V12.6564C5.90316 12.6564 5.90316 12.6564 5.90316 12.6564C5.90316 12.6564 5.90316 12.6564 5.90316 12.6564V12.6564C5.90316 12.6564 5.90316 12.6564 5.90316 12.6564C5.90316 12.6564 5.90316 12.6564 5.90316 12.6564V12.6564C5.90316 12.6564 5.90316 12.6564 5.90316 12.6564C5.90316 12.6564 5.90316 12.6564 5.90316 12.6564V12.6564C5.90316 12.6564 5.90316 12.6564 5.90316 12.6564C5.90316 12.6564 5.90316 12.6564 5.90316 12.6564V12.6564C5.90316 12.6564 5.90316 12.6564 5.90316 12.6564C5.90316 12.6564 5.90316 12.6564 5.90316 12.6564C5.90316 12.6564 5.90316 12.6564 5.90316 12.6564V12.6564C5.90316 12.6564 5.90316 12.6564 5.90316 12.6564C5.90316 12.6564 5.90316 12.6564 5.90316 12.6564V12.6564C5.90316 12.6564 5.90316 12.6564 5.90316 12.6564C5.90316 12.6564 5.90316 12.6564 5.90316 12.6564V12.6564C5.90316 12.6564 5.90316 12.6564 5.90316 12.6564C5.90316 12.6564 5.90316 12.6564 5.90316 12.6564V12.6564C5.90316 12.6564 5.90316 12.6564 5.90316 12.6564C5.90316 12.6564 5.90316 12.6564 5.90316 12.6564V12.6564C5.90316 12.6564 5.90316 12.6564 5.90316 12.6564C5.90316 12.6564 5.90316 12.6564 5.90316 12.6564V12.6564C5.90316 12.6564 5.90316 12.6564 5.90316 12.6564C5.90316 12.6564 5.90316 12.6564 5.90316 12.6564V12.6564C5.90316 12.6564 5.90316 12.6564 5.90316 12.6564C5.90316 12.6564 5.90316 12.6564 5.90316 12.6564V12.6564C5.90316 12.6564 5.90316 12.6564 5.90316 12.6564C5.90316 12.6564 5.90316 12.6564 5.90316 12.6564V12.6564C5.90316 12.6564 5.90316 12.6564 5.90316 12.6564C5.90316 12.6564 5.90316 12.6564 5.90316 12.6564V12.6564C5.90316 12.6564 5.90316 12.6564 5.90316 12.6564C5.90316 12.6564 5.90316 12.6564 5.90316 12.6564V12.6564C5.90316 12.6564 5.90316 12.6564 5.90316 12.6564C5.90316 12.6564 5.90316 12.6564 5.90316 12.6564V12.6564C5.90316 12.6564 5.90316 12.6564 5.90316 12.6564C5.90316 12.6564 5.90316 12.6564 5.90316 12.6564V12.6564C5.90316 12.6564 5.90316 12.6564 5.90316 12.6564C5.90316 12.6564 5.90316 12.6564 5.90316 12.6564V12.6564C5.90316 12.6564 5.90316 12.6564 5.90316 12.6564C5.90316 12.6564 5.90316 12.6564 5.90316 12.6564V12.6564C5.90316 12.6564 5.90316 12.6564 5.90316 12.6564C5.90316 12.6564 5.90316 12.6564 5.90316 12.6564V12.6564C5.90316 12.6564 5.90316 12.6564 5.90316 12.6564C5.90316 12.6564 5.90316 12.6564 5.90316 12.6564V12.6564C5.90316 12.6564 5.90316 12.6564 5.90316 12.6564C5.90316 12.6564 5.90316 12.6564 5.90316 12.6564C5.90316 12.6564 5.90316 12.6564 5.90316 12.6564V12.6564C5.90316 12.6564 5.90316 12.6564 5.90316 12.6564C5.90316 12.6564 5.90316 12.6564 5.90316 12.6564V12.6564C5.90316 12.6564 5.90316 12.6564 5.90316 12.6564C5.90316 12.6564 5.90316 12.6564 5.90316 12.6564V12.6564C5.90316 12.6564 5.90316 12.6564 5.90316 12.6564C5.90316 12.6564 5.90316 12.6564 5.90316 12.6564V12.6564C5.90316 12.6564 5.90316 12.6564 5.90316 12.6564C5.90316 12.6564 5.90316 12.6564 5.90316 12.6564V12.6564C5.90316 12.6564 5.90316 12.6564 5.90316 12.6564C5.90316 12.6564 5.90316 12.6564 5.90316 12.6564V12.6564C5.90316 12.6564 5.90316 12.6564 5.90316 12.6564C5.90316 12.6564 5.90316 12.6564 5.90316 12.6564V12.6564C5.90316 12.6564 5.90316 12.6564 5.90316 12.6564C5.90316 12.6564 5.90316 12.6564 5.90316 12.6564V12.6564C5.90316 12.6564 5.90316 12.6564 5.90316 12.6564C5.90316 12.6564 5.90316 12.6564 5.90316 12.6564V12.6564C5.90316 12.6564 5.90316 12.6564 5.90316 12.6564C5.90316 12.6564 5.90316 12.6564 5.90316 12.6564V12.6564C5.90316 12.6564 5.90316 12.6564 5.90316 12.6564C5.90316 12.6564 5.90316 12.6564 5.90316 12.6564V12.6564C5.90316 12.6564 5.90316 12.6564 5.90316 12.6564C5.90316 12.6564 5.90316 12.6564 5.90316 12.6564V12.6564C5.90316 12.6564 5.90316 12.6564 5.90316 12.6564C5.90316 12.6564 5.90316 12.6564 5.90316 12.6564V12.6564C5.90316 12.6564 5.90316 12.6564 5.90316 12.6564C5.90316 12.6564 5.90316 12.6564 5.90316 12.6564V12.6564C5.90316 12.6564 5.90316 12.6564 5.90316 12.6564C5.90316 12.6564 5.90316 12.6564 5.90316 12.6564C5.90316 12.6564 5.90316 12.6564 5.90316 12.6564V12.6564C5.90316 12.6564 5.90316 12.6564 5.90316 12.6564C5.90316 12.6564 5.90316 12.6564 5.90316 12.6564V12.6564C5.90316 12.6564 5.90316 12.6564 5.90316 12.6564C5.90316 12.6564 5.90316 12.6564 5.90316 12.6564V12.6564C5.90316 12.6564 5.90316 12.6564 5.90316 12.6564C5.90316 12.6564 5.90316 12.6564 5.90316 12.6564V12.6564C5.90316 12.6564 5.90316 12.6564 5.90316 12.6564C5.90316 12.6564 5.90316 12.6564 5.90316 12.6564V12.6564C5.90316 12.6564 5.90316 12.6564 5.90316 12.6564C5.90316 12.6564 5.90316 12.6564 5.90316 12.6564V12.6564C5.90316 12.6564 5.90316 12.6564 5.90316 12.6564C5.90316 12.6564 5.90316 12.6564 5.90316 12.6564V12.6564C5.90316 12.6564 5.90316 12.6564 5.90316 12.6564C5.90316 12.6565 5.90316 12.6565 5.90316 12.6565V12.6565C5.90316 12.6565 5.90316 12.6565 5.90316 12.6565C5.90316 12.6565 5.90316 12.6565 5.90316 12.6565V12.6565C5.90316 12.6565 5.90316 12.6565 5.90316 12.6565C5.90316 12.6565 5.90316 12.6565 5.90316 12.6565V12.6565C5.90316 12.6565 5.90316 12.6565 5.90316 12.6565C5.90316 12.6565 5.90316 12.6565 5.90316 12.6565V12.6565C5.90316 12.6565 5.90316 12.6565 5.90316 12.6565C5.90316 12.6565 5.90316 12.6565 5.90316 12.6565V12.6565H11.276V12.6565C11.276 12.6565 11.276 12.6565 11.276 12.6565C11.276 12.6565 11.276 12.6565 11.276 12.6565V12.6565C11.276 12.6565 11.276 12.6565 11.276 12.6565C11.276 12.6565 11.276 12.6565 11.276 12.6565V12.6565C11.276 12.6565 11.276 12.6565 11.276 12.6565C11.276 12.6565 11.276 12.6565 11.276 12.6565V12.6565C11.276 12.6565 11.276 12.6565 11.276 12.6565C11.276 12.6565 11.276 12.6565 11.276 12.6565V12.6565C11.276 12.6565 11.276 12.6565 11.276 12.6564C11.276 12.6564 11.276 12.6564 11.276 12.6564V12.6564C11.276 12.6564 11.276 12.6564 11.276 12.6564C11.276 12.6564 11.276 12.6564 11.276 12.6564V12.6564C11.276 12.6564 11.276 12.6564 11.276 12.6564C11.276 12.6564 11.276 12.6564 11.276 12.6564V12.6564C11.276 12.6564 11.276 12.6564 11.276 12.6564C11.276 12.6564 11.276 12.6564 11.276 12.6564V12.6564C11.276 12.6564 11.276 12.6564 11.276 12.6564C11.276 12.6564 11.276 12.6564 11.276 12.6564V12.6564C11.276 12.6564 11.276 12.6564 11.276 12.6564C11.276 12.6564 11.276 12.6564 11.276 12.6564V12.6564C11.276 12.6564 11.276 12.6564 11.276 12.6564C11.276 12.6564 11.276 12.6564 11.276 12.6564V12.6564C11.276 12.6564 11.276 12.6564 11.276 12.6564C11.276 12.6564 11.276 12.6564 11.276 12.6564C11.276 12.6564 11.276 12.6564 11.276 12.6564V12.6564C11.276 12.6564 11.276 12.6564 11.276 12.6564C11.276 12.6564 11.276 12.6564 11.276 12.6564V12.6564C11.276 12.6564 11.276 12.6564 11.276 12.6564C11.276 12.6564 11.276 12.6564 11.276 12.6564V12.6564C11.276 12.6564 11.276 12.6564 11.276 12.6564C11.276 12.6564 11.276 12.6564 11.276 12.6564V12.6564C11.276 12.6564 11.276 12.6564 11.276 12.6564C11.276 12.6564 11.276 12.6564 11.276 12.6564V12.6564C11.276 12.6564 11.276 12.6564 11.276 12.6564C11.276 12.6564 11.276 12.6564 11.276 12.6564V12.6564C11.276 12.6564 11.276 12.6564 11.276 12.6564C11.276 12.6564 11.276 12.6564 11.276 12.6564V12.6564C11.276 12.6564 11.276 12.6564 11.276 12.6564C11.276 12.6564 11.276 12.6564 11.276 12.6564V12.6564C11.276 12.6564 11.276 12.6564 11.276 12.6564C11.276 12.6564 11.276 12.6564 11.276 12.6564V12.6564C11.276 12.6564 11.276 12.6564 11.276 12.6564C11.276 12.6564 11.276 12.6564 11.276 12.6564V12.6564C11.276 12.6564 11.276 12.6564 11.276 12.6564C11.276 12.6564 11.276 12.6564 11.276 12.6564V12.6564C11.276 12.6564 11.276 12.6564 11.276 12.6564C11.276 12.6564 11.276 12.6564 11.276 12.6564V12.6564C11.276 12.6564 11.276 12.6564 11.276 12.6564C11.276 12.6564 11.276 12.6564 11.276 12.6564V12.6564C11.276 12.6564 11.276 12.6564 11.276 12.6564C11.276 12.6564 11.276 12.6564 11.276 12.6564V12.6564C11.276 12.6564 11.276 12.6564 11.276 12.6564C11.276 12.6564 11.276 12.6564 11.276 12.6564C11.276 12.6564 11.276 12.6564 11.276 12.6564V12.6564C11.276 12.6564 11.276 12.6564 11.276 12.6564C11.276 12.6564 11.276 12.6564 11.276 12.6564V12.6564C11.276 12.6564 11.276 12.6564 11.276 12.6564C11.276 12.6564 11.276 12.6564 11.276 12.6564V12.6564C11.276 12.6564 11.276 12.6564 11.276 12.6564C11.276 12.6564 11.276 12.6564 11.276 12.6564V12.6564C11.276 12.6564 11.276 12.6564 11.276 12.6564C11.276 12.6564 11.276 12.6564 11.276 12.6564V12.6564C11.276 12.6564 11.276 12.6564 11.276 12.6564C11.276 12.6564 11.276 12.6564 11.276 12.6564V12.6564C11.276 12.6564 11.276 12.6564 11.276 12.6564C11.276 12.6564 11.276 12.6564 11.276 12.6564V12.6564C11.276 12.6564 11.276 12.6564 11.276 12.6564C11.276 12.6564 11.276 12.6564 11.276 12.6564V12.6564C11.276 12.6564 11.276 12.6564 11.276 12.6564C11.276 12.6564 11.276 12.6564 11.276 12.6564V12.6564C11.276 12.6564 11.276 12.6564 11.276 12.6564C11.276 12.6564 11.276 12.6564 11.276 12.6564V12.6564C11.276 12.6564 11.276 12.6564 11.276 12.6564C11.276 12.6564 11.276 12.6564 11.276 12.6564V12.6564C11.276 12.6564 11.276 12.6564 11.276 12.6564C11.276 12.6564 11.276 12.6564 11.276 12.6564V12.6564C11.276 12.6564 11.276 12.6564 11.276 12.6564C11.276 12.6564 11.276 12.6564 11.276 12.6564V12.6564C11.276 12.6564 11.276 12.6564 11.276 12.6564C11.276 12.6564 11.276 12.6564 11.276 12.6564V12.6564C11.276 12.6564 11.276 12.6564 11.276 12.6564C11.276 12.6564 11.276 12.6564 11.276 12.6564V12.6564C11.276 12.6564 11.276 12.6564 11.276 12.6564C11.276 12.6564 11.276 12.6564 11.276 12.6564V12.6564C11.276 12.6564 11.276 12.6564 11.276 12.6564C11.276 12.6564 11.276 12.6564 11.276 12.6564V12.6564C11.276 12.6564 11.276 12.6564 11.276 12.6564C11.276 12.6564 11.276 12.6564 11.276 12.6564C11.276 12.6564 11.276 12.6564 11.276 12.6564V12.6564C11.276 12.6564 11.276 12.6564 11.276 12.6564C11.276 12.6564 11.276 12.6564 11.276 12.6564V12.6564C11.276 12.6564 11.276 12.6564 11.276 12.6564C11.276 12.6564 11.276 12.6564 11.276 12.6564V12.6564C11.276 12.6564 11.276 12.6564 11.276 12.6564C11.276 12.6564 11.276 12.6564 11.276 12.6564V12.6564C11.276 12.6564 11.276 12.6564 11.276 12.6564C11.276 12.6564 11.276 12.6564 11.276 12.6564V12.6564C11.276 12.6564 11.276 12.6564 11.276 12.6564C11.276 12.6564 11.276 12.6564 11.276 12.6564V12.6564C11.276 12.6564 11.276 12.6564 11.276 12.6564C11.276 12.6564 11.276 12.6564 11.276 12.6564V12.6564C11.276 12.6564 11.276 12.6564 11.276 12.6564C11.276 12.6564 11.276 12.6564 11.276 12.6564V12.6564C11.276 12.6564 11.276 12.6564 11.276 12.6564C11.276 12.6564 11.276 12.6564 11.276 12.6564V12.6564C11.276 12.6564 11.276 12.6564 11.276 12.6564C11.276 12.6564 11.276 12.6564 11.276 12.6564V12.6564C11.276 12.6564 11.276 12.6564 11.276 12.6564C11.276 12.6564 11.276 12.6564 11.276 12.6564V12.6564C11.276 12.6564 11.276 12.6564 11.276 12.6564C11.276 12.6564 11.276 12.6564 11.276 12.6564V12.6564C11.276 12.6564 11.276 12.6564 11.276 12.6564C11.276 12.6564 11.276 12.6564 11.276 12.6564V12.6564C11.276 12.6564 11.276 12.6564 11.276 12.6564C11.276 12.6564 11.276 12.6564 11.276 12.6564V12.6564C11.276 12.6564 11.276 12.6564 11.276 12.6564C11.276 12.6564 11.276 12.6564 11.276 12.6564V12.6564C11.276 12.6564 11.276 12.6564 11.276 12.6564C11.276 12.6564 11.276 12.6564 11.276 12.6564V12.6564C11.276 12.6564 11.276 12.6564 11.276 12.6564C11.276 12.6564 11.276 12.6564 11.276 12.6564V12.6564C11.276 12.6564 11.276 12.6564 11.276 12.6564C11.276 12.6564 11.276 12.6564 11.276 12.6564V12.6564C11.276 12.6564 11.276 12.6564 11.276 12.6564C11.276 12.6564 11.276 12.6564 11.276 12.6564V12.6564C11.276 12.6564 11.276 12.6564 11.276 12.6564C11.276 12.6564 11.276 12.6564 11.276 12.6564V12.6564C11.276 12.6564 11.276 12.6564 11.276 12.6564C11.276 12.6564 11.276 12.6564 11.276 12.6564V12.6564V12.6564C11.276 12.6564 11.276 12.6564 11.276 12.6564C11.276 12.6564 11.276 12.6564 11.276 12.6564V12.6564C11.276 12.6564 11.276 12.6564 11.276 12.6564C11.276 12.6564 11.276 12.6564 11.276 12.6564V12.6564C11.276 12.6564 11.276 12.6564 11.276 12.6564C11.276 12.6564 11.276 12.6564 11.276 12.6564V12.6564C11.276 12.6564 11.276 12.6564 11.276 12.6564C11.276 12.6564 11.276 12.6564 11.276 12.6564V12.6564C11.276 12.6564 11.276 12.6564 11.276 12.6564C11.276 12.6564 11.276 12.6564 11.276 12.6564V12.6564C11.276 12.6564 11.276 12.6564 11.276 12.6564C11.276 12.6564 11.276 12.6564 11.276 12.6564V12.6564C11.276 12.6564 11.276 12.6564 11.276 12.6564C11.276 12.6564 11.276 12.6564 11.276 12.6564V12.6564C11.276 12.6564 11.276 12.6564 11.276 12.6564C11.276 12.6564 11.276 12.6564 11.276 12.6564V12.6564C11.276 12.6564 11.276 12.6564 11.276 12.6564C11.276 12.6564 11.276 12.6564 11.276 12.6564V12.6564C11.276 12.6564 11.276 12.6564 11.276 12.6564C11.276 12.6564 11.276 12.6564 11.276 12.6564V12.6564C11.276 12.6564 11.276 12.6564 11.276 12.6564C11.276 12.6564 11.276 12.6564 11.276 12.6564V12.6564C11.276 12.6564 11.276 12.6564 11.276 12.6564C11.276 12.6564 11.276 12.6564 11.276 12.6564V12.6564C11.276 12.6564 11.276 12.6564 11.276 12.6564C11.276 12.6564 11.276 12.6564 11.276 12.6564V12.6564C11.276 12.6564 11.276 12.6564 11.276 12.6564C11.276 12.6564 11.276 12.6564 11.276 12.6564V12.6564C11.276 12.6564 11.276 12.6564 11.276 12.6564C11.276 12.6564 11.276 12.6564 11.276 12.6564V12.6564C11.276 12.6564 11.276 12.6564 11.276 12.6564C11.276 12.6564 11.276 12.6564 11.276 12.6564V12.6564C11.276 12.6564 11.276 12.6564 11.276 12.6564C11.276 12.6564 11.276 12.6564 11.276 12.6564V12.6564C11.276 12.6564 11.276 12.6564 11.276 12.6564C11.276 12.6564 11.276 12.6564 11.276 12.6564V12.6564C11.276 12.6564 11.276 12.6564 11.276 12.6564C11.276 12.6564 11.276 12.6564 11.276 12.6564V12.6564C11.276 12.6564 11.276 12.6564 11.276 12.6564C11.276 12.6564 11.276 12.6564 11.276 12.6564V12.6564C11.276 12.6564 11.276 12.6564 11.276 12.6564C11.276 12.6564 11.276 12.6564 11.276 12.6564C11.276 12.6564 11.276 12.6564 11.276 12.6564V12.6564C11.276 12.6564 11.276 12.6564 11.276 12.6564C11.276 12.6564 11.276 12.6564 11.276 12.6564V12.6564C11.276 12.6564 11.276 12.6564 11.276 12.6564C11.276 12.6564 11.276 12.6564 11.276 12.6564V12.6564C11.276 12.6564 11.276 12.6564 11.276 12.6564C11.276 12.6564 11.276 12.6564 11.276 12.6564V12.6564C11.276 12.6564 11.276 12.6564 11.276 12.6564C11.276 12.6564 11.276 12.6564 11.276 12.6564V12.6564C11.276 12.6564 11.276 12.6564 11.276 12.6564C11.276 12.6564 11.276 12.6564 11.276 12.6564V12.6564C11.276 12.6564 11.276 12.6564 11.276 12.6564C11.276 12.6564 11.276 12.6564 11.276 12.6564V12.6564C11.276 12.6564 11.276 12.6564 11.276 12.6564C11.276 12.6564 11.276 12.6564 11.276 12.6564V12.6564C11.276 12.6564 11.276 12.6564 11.276 12.6564C11.276 12.6564 11.276 12.6564 11.276 12.6564V12.6564C11.276 12.6564 11.276 12.6564 11.276 12.6564C11.276 12.6564 11.276 12.6564 11.276 12.6564V12.6564C11.276 12.6564 11.276 12.6564 11.276 12.6564C11.276 12.6564 11.276 12.6564 11.276 12.6564V12.6564C11.276 12.6564 11.276 12.6564 11.276 12.6564C11.276 12.6564 11.276 12.6564 11.276 12.6564V12.6564C11.276 12.6564 11.276 12.6564 11.276 12.6564C11.276 12.6564 11.276 12.6564 11.276 12.6564V12.6564C11.276 12.6564 11.276 12.6564 11.276 12.6564C11.276 12.6564 11.276 12.6564 11.276 12.6564V12.6564C11.276 12.6564 11.276 12.6564 11.276 12.6564C11.276 12.6564 11.276 12.6564 11.276 12.6564V12.6564C11.276 12.6564 11.276 12.6564 11.276 12.6564C11.276 12.6564 11.276 12.6564 11.276 12.6564V12.6564C11.276 12.6564 11.276 12.6564 11.276 12.6564C11.276 12.6564 11.276 12.6564 11.276 12.6564V12.6564C11.276 12.6564 11.276 12.6564 11.276 12.6564C11.276 12.6564 11.276 12.6564 11.276 12.6564C11.276 12.6564 11.276 12.6564 11.276 12.6564V12.6564C11.276 12.6564 11.276 12.6564 11.276 12.6564C11.276 12.6564 11.276 12.6564 11.276 12.6564V12.6564C11.276 12.6564 11.276 12.6564 11.276 12.6564C11.276 12.6564 11.276 12.6564 11.276 12.6564V12.6564C11.276 12.6564 11.276 12.6564 11.276 12.6564C11.276 12.6564 11.276 12.6564 11.276 12.6564V12.6564C11.276 12.6564 11.276 12.6564 11.276 12.6564C11.276 12.6564 11.276 12.6564 11.276 12.6564V12.6564C11.276 12.6564 11.276 12.6564 11.276 12.6564C11.276 12.6564 11.276 12.6564 11.276 12.6564V12.6564C11.276 12.6564 11.276 12.6564 11.276 12.6564C11.276 12.6564 11.276 12.6564 11.276 12.6564V12.6564C11.276 12.6564 11.276 12.6564 11.276 12.6564C11.276 12.6564 11.276 12.6564 11.276 12.6564V12.6564C11.276 12.6564 11.276 12.6564 11.276 12.6564C11.276 12.6564 11.276 12.6564 11.276 12.6564V12.6564C11.276 12.6564 11.276 12.6564 11.276 12.6564C11.276 12.6564 11.276 12.6564 11.276 12.6564V12.6564C11.276 12.6564 11.276 12.6564 11.276 12.6564C11.276 12.6564 11.276 12.6564 11.276 12.6564V12.6564C11.276 12.6564 11.276 12.6564 11.276 12.6564C11.276 12.6564 11.276 12.6564 11.276 12.6564V12.6564C11.276 12.6564 11.276 12.6564 11.276 12.6564C11.276 12.6564 11.276 12.6564 11.276 12.6564V12.6564C11.276 12.6564 11.276 12.6564 11.276 12.6564C11.276 12.6564 11.276 12.6564 11.276 12.6564V12.6564C11.276 12.6564 11.276 12.6564 11.276 12.6564C11.276 12.6564 11.276 12.6564 11.276 12.6564C11.276 12.6564 11.276 12.6564 11.276 12.6564V12.6564C11.276 12.6564 11.276 12.6564 11.276 12.6564C11.276 12.6564 11.276 12.6564 11.276 12.6564V12.6564C11.276 12.6564 11.276 12.6564 11.276 12.6564C11.276 12.6564 11.276 12.6564 11.276 12.6564V12.6564C11.276 12.6564 11.276 12.6564 11.276 12.6564C11.276 12.6564 11.276 12.6564 11.276 12.6564V12.6564C11.276 12.6564 11.276 12.6564 11.276 12.6564C11.276 12.6564 11.276 12.6564 11.276 12.6564V12.6564C11.276 12.6564 11.276 12.6564 11.276 12.6564C11.276 12.6564 11.276 12.6564 11.276 12.6564V12.6564C11.276 12.6564 11.276 12.6564 11.276 12.6564C11.276 12.6564 11.276 12.6564 11.276 12.6564V12.6564C11.276 12.6564 11.276 12.6564 11.276 12.6564C11.276 12.6564 11.276 12.6564 11.276 12.6564V12.6564C11.276 12.6564 11.276 12.6564 11.276 12.6564C11.276 12.6564 11.276 12.6564 11.276 12.6564V12.6564C11.276 12.6564 11.276 12.6564 11.276 12.6564C11.276 12.6564 11.276 12.6564 11.276 12.6564V12.6564C11.276 12.6564 11.276 12.6564 11.276 12.6564C11.276 12.6564 11.276 12.6564 11.276 12.6564V12.6564C11.276 12.6564 11.276 12.6564 11.276 12.6564C11.276 12.6564 11.276 12.6564 11.276 12.6564V12.6564H5.90316ZM12.4977 9.97002H8.58958V15.3429H12.4977V9.97002ZM10.0032 12.4646C10.0032 11.0869 11.12 9.97002 12.4977 9.97002V15.3429C14.0874 15.3429 15.3761 14.0542 15.3761 12.4646H10.0032ZM10.0032 8.75195V12.4646H15.3761V8.75195H10.0032Z" fill="#7A89FE" mask="url(#path-2-inside-1_4805_171816)"/>
<circle cx="5.56553" cy="13.0475" r="1.95225" fill="#7A89FE"/>
<circle cx="17.5714" cy="13.0475" r="1.95225" fill="#7A89FE"/>
<mask id="path-6-inside-2_4805_171816" fill="white">
<path fill-rule="evenodd" clip-rule="evenodd" d="M13.666 2.4951C13.666 2.17717 13.9237 1.91943 14.2417 1.91943H18.6351C18.8855 1.91943 19.1202 2.04164 19.2639 2.24682L22.2083 6.45319C22.3664 6.67896 22.4511 6.94788 22.4511 7.22347V11.6974C22.4511 12.2273 22.0216 12.6568 21.4917 12.6568H20.499C20.4989 12.6568 20.4988 12.6567 20.4988 12.6566C20.4988 11.0394 19.1877 9.72827 17.5704 9.72827C15.9531 9.72827 14.642 11.0394 14.642 12.6566C14.642 12.6567 14.642 12.6568 14.6419 12.6568H14.6255C14.0956 12.6568 13.666 12.2273 13.666 11.6974V2.4951ZM18.8572 3.05634C18.7852 2.95548 18.6689 2.89563 18.5449 2.89563H16.6859C16.4739 2.89563 16.3021 3.06745 16.3021 3.2794V5.92829C16.3021 6.14024 16.4739 6.31206 16.6859 6.31206H20.437C20.7491 6.31206 20.9307 5.95923 20.7493 5.70522L18.8572 3.05634Z"/>
</mask>
<path fill-rule="evenodd" clip-rule="evenodd" d="M13.666 2.4951C13.666 2.17717 13.9237 1.91943 14.2417 1.91943H18.6351C18.8855 1.91943 19.1202 2.04164 19.2639 2.24682L22.2083 6.45319C22.3664 6.67896 22.4511 6.94788 22.4511 7.22347V11.6974C22.4511 12.2273 22.0216 12.6568 21.4917 12.6568H20.499C20.4989 12.6568 20.4988 12.6567 20.4988 12.6566C20.4988 11.0394 19.1877 9.72827 17.5704 9.72827C15.9531 9.72827 14.642 11.0394 14.642 12.6566C14.642 12.6567 14.642 12.6568 14.6419 12.6568H14.6255C14.0956 12.6568 13.666 12.2273 13.666 11.6974V2.4951ZM18.8572 3.05634C18.7852 2.95548 18.6689 2.89563 18.5449 2.89563H16.6859C16.4739 2.89563 16.3021 3.06745 16.3021 3.2794V5.92829C16.3021 6.14024 16.4739 6.31206 16.6859 6.31206H20.437C20.7491 6.31206 20.9307 5.95923 20.7493 5.70522L18.8572 3.05634Z" fill="#7A89FE"/>
<path d="M19.2639 2.24682L19.4211 2.13678L19.4211 2.13678L19.2639 2.24682ZM22.2083 6.45319L22.3655 6.34315L22.2083 6.45319ZM20.7493 5.70522L20.5931 5.81676L20.7493 5.70522ZM18.8572 3.05634L19.0134 2.9448L18.8572 3.05634ZM14.2417 1.72755C13.8178 1.72755 13.4741 2.07119 13.4741 2.4951H13.8579C13.8579 2.28314 14.0297 2.11132 14.2417 2.11132V1.72755ZM18.6351 1.72755H14.2417V2.11132H18.6351V1.72755ZM19.4211 2.13678C19.2415 1.8803 18.9482 1.72755 18.6351 1.72755V2.11132C18.8229 2.11132 18.999 2.20297 19.1067 2.35686L19.4211 2.13678ZM22.3655 6.34315L19.4211 2.13678L19.1067 2.35686L22.0511 6.56323L22.3655 6.34315ZM22.643 7.22347C22.643 6.90851 22.5461 6.60117 22.3655 6.34315L22.0511 6.56323C22.1866 6.75675 22.2593 6.98725 22.2593 7.22347H22.643ZM22.643 11.6974V7.22347H22.2593V11.6974H22.643ZM21.4917 12.8487C22.1276 12.8487 22.643 12.3332 22.643 11.6974H22.2593C22.2593 12.1213 21.9156 12.4649 21.4917 12.4649V12.8487ZM20.499 12.8487H21.4917V12.4649H20.499V12.8487ZM17.5704 9.92016C19.0817 9.92016 20.3069 11.1453 20.3069 12.6566H20.6907C20.6907 10.9334 19.2937 9.53639 17.5704 9.53639V9.92016ZM14.8339 12.6566C14.8339 11.1453 16.0591 9.92016 17.5704 9.92016V9.53639C15.8472 9.53639 14.4502 10.9334 14.4502 12.6566H14.8339ZM14.6255 12.8487H14.6419V12.4649H14.6255V12.8487ZM13.4741 11.6974C13.4741 12.3332 13.9896 12.8487 14.6255 12.8487V12.4649C14.2015 12.4649 13.8579 12.1213 13.8579 11.6974H13.4741ZM13.4741 2.4951V11.6974H13.8579V2.4951H13.4741ZM16.6859 3.08751H18.5449V2.70374H16.6859V3.08751ZM16.494 5.92829V3.2794H16.1102V5.92829H16.494ZM20.437 6.12018H16.6859V6.50395H20.437V6.12018ZM18.7011 3.16787L20.5931 5.81676L20.9054 5.59369L19.0134 2.9448L18.7011 3.16787ZM20.437 6.50395C20.9052 6.50395 21.1776 5.9747 20.9054 5.59369L20.5931 5.81676C20.6839 5.94376 20.5931 6.12018 20.437 6.12018V6.50395ZM18.5449 3.08751C18.6069 3.08751 18.6651 3.11744 18.7011 3.16787L19.0134 2.9448C18.9053 2.79352 18.7308 2.70374 18.5449 2.70374V3.08751ZM16.6859 2.70374C16.368 2.70374 16.1102 2.96147 16.1102 3.2794H16.494C16.494 3.17343 16.5799 3.08751 16.6859 3.08751V2.70374ZM16.1102 5.92829C16.1102 6.24622 16.368 6.50395 16.6859 6.50395V6.12018C16.5799 6.12018 16.494 6.03427 16.494 5.92829H16.1102ZM14.4502 12.6566C14.4502 12.5508 14.536 12.4649 14.6419 12.4649V12.8487C14.748 12.8487 14.8339 12.7627 14.8339 12.6566H14.4502ZM20.499 12.4649C20.6048 12.4649 20.6907 12.5508 20.6907 12.6566H20.3069C20.3069 12.7627 20.3929 12.8487 20.499 12.8487V12.4649Z" fill="#7A89FE" mask="url(#path-6-inside-2_4805_171816)"/>
</svg>
