<svg width="18" height="21" viewBox="0 0 18 21" fill="none" xmlns="http://www.w3.org/2000/svg">
<path d="M17 15.5294V4.91176C17 3.34207 17 2.55722 16.6148 1.99343C16.448 1.74936 16.2337 1.5398 15.9842 1.37671C15.4076 1 11.1887 1 9.58359 1C7.97849 1 2.59235 1 2.01584 1.37671C1.76626 1.5398 1.55197 1.74936 1.38521 1.99343C1 2.55722 1 3.34207 1 4.91176V15.5294C1 17.6369 1 18.6906 1.66947 19.3453C2.33894 20 3.41644 20 5.57143 20H12.4286C14.5836 20 15.6611 20 16.3305 19.3453C17 18.6906 17 17.6369 17 15.5294Z" stroke="#7A89FE" stroke-width="2"/>
<path d="M5.5957 10.8208L12.4528 10.8208" stroke="#7A89FE" stroke-width="2" stroke-linecap="round"/>
<path d="M5.5957 6.25586L12.4528 6.25586" stroke="#7A89FE" stroke-width="2" stroke-linecap="round"/>
<path d="M5.5957 15.3872L10.1671 15.3872" stroke="#7A89FE" stroke-width="2" stroke-linecap="round"/>
</svg>
