<svg width="32" height="32" viewBox="0 0 32 32" fill="none" xmlns="http://www.w3.org/2000/svg">
<path fill-rule="evenodd" clip-rule="evenodd" d="M0.213336 7.05204C0 8.01434 0 9.17623 0 11.5C0 13.8238 0 14.9857 0.213336 15.948C0.859972 18.8647 2.90005 21.2359 5.60941 22.3372C4.25821 20.9747 3.34111 19.1809 3.077 17.1747C3 16.5899 3 15.8933 3 14.5C3 13.1067 3 12.4101 3.077 11.8253C3.60869 7.78666 6.78666 4.60869 10.8253 4.077C11.4101 4 12.1067 4 13.5 4C14.8933 4 15.5899 4 16.1747 4.077C19.1428 4.46775 21.646 6.28782 22.9756 8.82837C22.9498 8.09581 22.8965 7.54747 22.7867 7.05204C22.0296 3.63727 19.3627 0.970373 15.948 0.213336C14.9857 0 13.8238 0 11.5 0C9.17623 0 8.01434 0 7.05204 0.213336C3.63727 0.970373 0.970373 3.63727 0.213336 7.05204Z" fill="#8C8FA7"/>
<path d="M5.33398 16.0002C5.33398 14.4519 5.33398 13.6778 5.42901 13.0291C6.00531 9.09473 9.09522 6.00482 13.0296 5.42852C13.6783 5.3335 14.4524 5.3335 16.0007 5.3335V5.3335C17.5489 5.3335 18.323 5.3335 18.9717 5.42852C22.9061 6.00482 25.996 9.09473 26.5723 13.0291C26.6673 13.6778 26.6673 14.4519 26.6673 16.0002V22.788C26.6673 24.556 26.6673 25.44 26.1472 26.0121C26.1045 26.0591 26.0596 26.104 26.0126 26.1467C25.4405 26.6668 24.5565 26.6668 22.7885 26.6668H16.0007C14.4524 26.6668 13.6783 26.6668 13.0296 26.5718C9.09522 25.9955 6.00531 22.9056 5.42901 18.9712C5.33398 18.3225 5.33398 17.5484 5.33398 16.0002V16.0002Z" stroke="#8C8FA7" stroke-width="2"/>
<path d="M12 16L20 16" stroke="#8C8FA7" stroke-width="2" stroke-linecap="round" stroke-linejoin="round"/>
<path d="M16 12L16 20" stroke="#8C8FA7" stroke-width="2" stroke-linecap="round" stroke-linejoin="round"/>
</svg>
