<svg width="20" height="19" viewBox="0 0 20 19" fill="none" xmlns="http://www.w3.org/2000/svg">
<mask id="path-1-inside-1_4805_147585" fill="white">
<path d="M0 10.8501H4.28097C4.54217 10.8501 4.75391 11.0618 4.75391 11.323V18.5267C4.75391 18.7879 4.54217 18.9997 4.28097 18.9997H0V10.8501Z"/>
</mask>
<path d="M0 10.8501H4.28097C4.54217 10.8501 4.75391 11.0618 4.75391 11.323V18.5267C4.75391 18.7879 4.54217 18.9997 4.28097 18.9997H0V10.8501Z" fill="#7A89FE" stroke="#7A89FE" stroke-width="3.6" mask="url(#path-1-inside-1_4805_147585)"/>
<path d="M4.41406 12.548C4.7512 12.2089 5.77962 11.5295 6.79102 11.8687C8.13955 12.2086 8.49857 12.8879 9.8471 12.8879C10.9259 12.8879 11.8845 12.548 12.4202 12.548C12.6449 12.7744 12.9596 14.0416 12.4202 14.5849C11.8807 15.1282 9.61505 15.0385 8.8284 14.9253" stroke="#7A89FE" stroke-width="1.8"/>
<path d="M4.41406 17.3025C6.32449 17.4157 11.206 17.574 11.7454 17.3024C12.4197 16.9628 18.4527 13.9066 18.7899 13.2274C19.127 12.5483 18.7899 11.5297 17.7785 11.8692C17.2901 12.033 15.1168 13.2277 14.4425 13.5673L11.7454 14.9256" stroke="#7A89FE" stroke-width="1.8"/>
<rect x="7.9" y="0.9" width="9.2" height="9.2" rx="4.6" stroke="#7A89FE" stroke-width="1.8"/>
<path d="M12.342 8.55892V2.96968H12.7V8.55892H12.342ZM13.3747 4.7578C13.3543 4.56713 13.2684 4.41866 13.1171 4.31241C12.9671 4.20615 12.7721 4.15303 12.5319 4.15303C12.3631 4.15303 12.2183 4.1785 12.0975 4.22944C11.9766 4.28038 11.8842 4.34952 11.8202 4.43685C11.7561 4.52419 11.7234 4.62389 11.7219 4.73597C11.7219 4.82912 11.743 4.9099 11.7852 4.97831C11.8289 5.04672 11.8879 5.10494 11.9621 5.15298C12.0363 5.19955 12.1186 5.23885 12.2088 5.27088C12.299 5.3029 12.39 5.32982 12.4817 5.35166L12.9009 5.45646C13.0698 5.49576 13.232 5.54888 13.3878 5.61584C13.545 5.68279 13.6854 5.76721 13.8092 5.8691C13.9343 5.97099 14.0333 6.09398 14.1061 6.23808C14.1789 6.38217 14.2153 6.55102 14.2153 6.7446C14.2153 7.0066 14.1483 7.2373 14.0144 7.43671C13.8805 7.63466 13.6869 7.78968 13.4336 7.90175C13.1818 8.01237 12.8769 8.06768 12.5188 8.06768C12.171 8.06768 11.8689 8.01383 11.6128 7.90612C11.358 7.79841 11.1586 7.64121 11.0145 7.43453C10.8719 7.22784 10.7948 6.97603 10.7831 6.6791H11.58C11.5917 6.83485 11.6397 6.96439 11.7241 7.06773C11.8085 7.17107 11.9184 7.24822 12.0538 7.29916C12.1906 7.3501 12.3434 7.37558 12.5123 7.37558C12.6884 7.37558 12.8427 7.34938 12.9751 7.29698C13.109 7.24312 13.2138 7.16889 13.2895 7.07428C13.3652 6.97822 13.4038 6.86614 13.4053 6.73805C13.4038 6.62161 13.3696 6.52554 13.3026 6.44986C13.2357 6.37271 13.1418 6.30867 13.021 6.25773C12.9016 6.20533 12.7619 6.15875 12.6018 6.118L12.0931 5.987C11.7248 5.89239 11.4337 5.74902 11.2198 5.55689C11.0073 5.3633 10.901 5.1064 10.901 4.78618C10.901 4.52273 10.9723 4.29203 11.115 4.09408C11.2591 3.89612 11.4548 3.74257 11.7023 3.6334C11.9497 3.52278 12.2299 3.46747 12.5428 3.46747C12.8602 3.46747 13.1382 3.52278 13.3769 3.6334C13.617 3.74257 13.8055 3.89467 13.9423 4.08971C14.0792 4.2833 14.1498 4.50599 14.1541 4.7578H13.3747Z" fill="#7A89FE"/>
</svg>
