<svg width="21" height="20" viewBox="0 0 21 20" fill="none" xmlns="http://www.w3.org/2000/svg">
<path d="M17.6876 4.5572C17.6302 4.28709 17.3647 4.11467 17.0946 4.17208L10.089 5.66116C9.82124 5.71807 9.64903 5.97975 9.70267 6.2482L10.6935 11.2069C10.7168 11.3237 10.7811 11.4284 10.8748 11.502L10.5659 11.8952L10.8748 11.502L11.8223 12.2465C11.9393 12.3384 12.0912 12.3735 12.2366 12.3421L18.5436 10.9819C18.8129 10.9238 18.9845 10.6587 18.9272 10.3892L17.6876 4.5572Z" fill="#7A89FE" stroke="#7A89FE"/>
<circle cx="1.84167" cy="1.84167" r="1.84167" transform="matrix(-1 0 0 1 10.6328 14.457)" stroke="#7A89FE" stroke-width="2"/>
<path d="M19.7797 12.5046C20.3184 12.3829 20.8537 12.7209 20.9754 13.2597C21.0971 13.7984 20.759 14.3337 20.2203 14.4554L19.7797 12.5046ZM20.2203 14.4554L12.1288 16.2831L11.6882 14.3323L19.7797 12.5046L20.2203 14.4554Z" fill="#7A89FE"/>
<path d="M1.00063 1.99902C0.448343 1.99902 0.000627995 1.55131 0.000627995 0.999023C0.000627995 0.446739 0.448343 -0.000976562 1.00063 -0.000976562V1.99902ZM8.97198 11.8396L9.20704 12.8116L7.26308 13.2817L7.02802 12.3098L8.97198 11.8396ZM1.00063 -0.000976562H3.7475V1.99902H1.00063V-0.000976562ZM6.66344 2.29384L8.97198 11.8396L7.02802 12.3098L4.71948 2.76396L6.66344 2.29384ZM3.7475 -0.000976562C5.13271 -0.000976562 6.33783 0.947434 6.66344 2.29384L4.71948 2.76396C4.61094 2.31516 4.20924 1.99902 3.7475 1.99902V-0.000976562Z" fill="#7A89FE"/>
</svg>
