<svg width="21" height="22" viewBox="0 0 21 22" fill="none" xmlns="http://www.w3.org/2000/svg">
<path d="M1 6.94088V17C1 18.9966 1 19.9949 1.62026 20.6152C2.24053 21.2354 2.17997 21.2354 4.17657 21.2354H11.3533C13.4608 21.2354 14.5145 21.2354 15.1693 20.5807C15.824 19.926 15.824 18.8722 15.824 16.7647V6.41145C15.824 4.92432 15.824 4.71019 15.4671 4.17605C15.3126 3.94482 15.114 3.74628 14.8828 3.59178C14.3487 3.23488 13.6051 3.23488 12.118 3.23488L11.5893 3.2349C11.5893 4.40448 10.6411 5.35261 9.47156 5.35261H7.35385C6.18427 5.35261 5.23614 4.40448 5.23614 3.2349L4.706 3.23488C3.21887 3.23488 2.47531 3.23488 1.94117 3.59178C1.70994 3.74628 1.5114 3.94482 1.3569 4.17605C1 4.71019 1 5.45375 1 6.94088Z" fill="#7A89FE"/>
<path d="M5.23614 3.2349C5.23614 4.40448 6.18427 5.35261 7.35385 5.35261H9.47156C10.6411 5.35261 11.5893 4.40448 11.5893 3.2349M5.23614 3.2349C5.23614 2.06532 6.18427 1.11719 7.35385 1.11719H9.47156C10.6411 1.11719 11.5893 2.06532 11.5893 3.2349M5.23614 3.2349L4.706 3.23488C3.21887 3.23488 2.47531 3.23488 1.94117 3.59178C1.70994 3.74628 1.5114 3.94482 1.3569 4.17605C1 4.71019 1 5.45375 1 6.94088V17C1 18.9966 1 19.9949 1.62026 20.6152C2.24053 21.2354 2.17997 21.2354 4.17657 21.2354H11.3533C13.4608 21.2354 14.5145 21.2354 15.1693 20.5807C15.824 19.926 15.824 18.8722 15.824 16.7647V6.41145C15.824 4.92432 15.824 4.71019 15.4671 4.17605C15.3126 3.94482 15.114 3.74628 14.8828 3.59178C14.3487 3.23488 13.6051 3.23488 12.118 3.23488L11.5893 3.2349" stroke="#7A89FE" stroke-width="1.08381"/>
<path d="M5.23633 10.6475L9.47175 10.6475" stroke="#FCFCFD" stroke-width="1.08381" stroke-linecap="round"/>
<path d="M15.4382 8.89826L15.9957 9.39998L15.4382 8.89826L9.83587 15.1231L10.3933 15.6248L9.83587 15.1231C9.82967 15.1299 9.82302 15.1373 9.81598 15.145C9.74434 15.2239 9.63237 15.3472 9.55368 15.4994C9.475 15.6516 9.43917 15.8143 9.41626 15.9183C9.414 15.9286 9.41187 15.9382 9.40984 15.9473L8.83838 18.4871C8.83699 18.4933 8.83548 18.4999 8.83387 18.507C8.81632 18.5843 8.78763 18.7106 8.77918 18.8248C8.76927 18.9587 8.76899 19.2838 9.04217 19.5438C9.31535 19.8037 9.64007 19.7873 9.77328 19.7708C9.887 19.7567 10.0117 19.7218 10.088 19.7004C10.095 19.6984 10.1016 19.6966 10.1077 19.6949L12.2994 19.0861C12.3093 19.0833 12.3199 19.0804 12.3312 19.0774C12.4454 19.0463 12.6242 18.9976 12.7859 18.8974L12.3911 18.2598L12.7859 18.8974C12.9477 18.7973 13.0709 18.6589 13.1497 18.5705C13.1574 18.5618 13.1648 18.5536 13.1716 18.5459L12.6142 18.0442L13.1716 18.5459L18.8921 12.1898L18.8922 12.1898L18.9054 12.1752L18.9054 12.1751C18.9127 12.167 18.9201 12.1588 18.9275 12.1506C19.0631 12 19.2082 11.8388 19.3138 11.6862C19.4373 11.5076 19.5633 11.2634 19.5633 10.9484C19.5633 10.6334 19.4373 10.3892 19.3138 10.2106C19.2082 10.058 19.0631 9.89678 18.9275 9.74622C18.9201 9.738 18.9127 9.7298 18.9054 9.72164L18.1643 8.89826L17.612 9.39536L18.1643 8.89826C18.1557 8.88875 18.1472 8.8792 18.1386 8.86964C17.9733 8.68584 17.8013 8.49466 17.6363 8.35585C17.4462 8.19597 17.1719 8.02304 16.8012 8.02304C16.4306 8.02304 16.1562 8.19597 15.9662 8.35585C15.8012 8.49466 15.6292 8.68585 15.4639 8.86966C15.4553 8.87921 15.4467 8.88875 15.4382 8.89826Z" fill="white" stroke="#7A89FE" stroke-width="1.5"/>
</svg>
