<svg width="21" height="22" viewBox="0 0 21 22" fill="none" xmlns="http://www.w3.org/2000/svg">
<path d="M1 6.82369V16.8828C1 18.8794 1 19.8777 1.62026 20.498C2.24053 21.1182 2.17997 21.1182 4.17657 21.1182H11.3533C13.4608 21.1182 14.5145 21.1182 15.1693 20.4635C15.824 19.8088 15.824 18.755 15.824 16.6475V6.29426C15.824 4.80714 15.824 4.593 15.4671 4.05887C15.3126 3.82763 15.114 3.6291 14.8828 3.47459C14.3487 3.11769 13.6051 3.11769 12.118 3.11769L11.5893 3.11771C11.5893 4.28729 10.6411 5.23542 9.47156 5.23542H7.35385C6.18427 5.23542 5.23614 4.28729 5.23614 3.11771L4.706 3.11769C3.21887 3.11769 2.47531 3.11769 1.94117 3.47459C1.70994 3.6291 1.5114 3.82763 1.3569 4.05887C1 4.593 1 5.33656 1 6.82369Z" fill="#8C8FA7"/>
<path d="M5.23614 3.11771C5.23614 4.28729 6.18427 5.23542 7.35385 5.23542H9.47156C10.6411 5.23542 11.5893 4.28729 11.5893 3.11771M5.23614 3.11771C5.23614 1.94813 6.18427 1 7.35385 1H9.47156C10.6411 1 11.5893 1.94813 11.5893 3.11771M5.23614 3.11771L4.706 3.11769C3.21887 3.11769 2.47531 3.11769 1.94117 3.47459C1.70994 3.6291 1.5114 3.82763 1.3569 4.05887C1 4.593 1 5.33656 1 6.82369V16.8828C1 18.8794 1 19.8777 1.62026 20.498C2.24053 21.1182 2.17997 21.1182 4.17657 21.1182H11.3533C13.4608 21.1182 14.5145 21.1182 15.1693 20.4635C15.824 19.8088 15.824 18.755 15.824 16.6475V6.29426C15.824 4.80714 15.824 4.593 15.4671 4.05887C15.3126 3.82763 15.114 3.6291 14.8828 3.47459C14.3487 3.11769 13.6051 3.11769 12.118 3.11769L11.5893 3.11771" stroke="#8C8FA7" stroke-width="1.08381"/>
<path d="M5.2356 10.5304L9.47102 10.5304" stroke="#FCFCFD" stroke-width="1.08381" stroke-linecap="round"/>
<path d="M18.1636 8.78107L17.6112 9.27818L18.1636 8.78107C18.155 8.77156 18.1464 8.76202 18.1378 8.75245C17.9725 8.56865 17.8006 8.37747 17.6356 8.23866C17.4455 8.07879 17.1711 7.90586 16.8005 7.90586C16.4299 7.90586 16.1555 8.07879 15.9655 8.23866C15.8005 8.37748 15.6285 8.56866 15.4632 8.75247C15.4546 8.76203 15.446 8.77156 15.4375 8.78107L15.9949 9.2828L15.4375 8.78107L9.83513 15.0059L10.3926 15.5076L9.83513 15.0059C9.82894 15.0128 9.82229 15.0201 9.81525 15.0278C9.74361 15.1067 9.63163 15.23 9.55295 15.3822C9.47427 15.5344 9.43844 15.6971 9.41552 15.8012C9.41327 15.8114 9.41114 15.8211 9.40911 15.8301L8.83765 18.3699C8.83626 18.3761 8.83474 18.3828 8.83314 18.3898C8.81558 18.4671 8.7869 18.5934 8.77844 18.7077C8.76854 18.8415 8.76826 19.1667 9.04144 19.4266C9.31462 19.6866 9.63934 19.6701 9.77254 19.6536C9.88627 19.6395 10.011 19.6046 10.0873 19.5832C10.0943 19.5813 10.1008 19.5794 10.107 19.5777L12.2987 18.9689C12.3086 18.9662 12.3192 18.9633 12.3304 18.9602C12.4447 18.9291 12.6235 18.8804 12.7852 18.7802L12.3903 18.1426L12.7852 18.7802C12.9469 18.6801 13.0702 18.5417 13.1489 18.4533C13.1567 18.4446 13.164 18.4364 13.1709 18.4288L12.6134 17.927L13.1709 18.4288L18.8914 12.0726L18.8914 12.0726L18.9046 12.058L18.9046 12.058C18.912 12.0498 18.9194 12.0416 18.9268 12.0334C19.0624 11.8828 19.2075 11.7216 19.3131 11.569C19.4366 11.3904 19.5625 11.1462 19.5625 10.8312C19.5625 10.5162 19.4366 10.272 19.3131 10.0934C19.2075 9.94076 19.0624 9.7796 18.9268 9.62903C18.9193 9.62081 18.912 9.61261 18.9046 9.60445L18.1636 8.78107Z" fill="white" stroke="#8C8FA7" stroke-width="1.5"/>
</svg>
