<svg width="36" height="42" viewBox="0 0 36 42" fill="none" xmlns="http://www.w3.org/2000/svg">
<rect x="21.7871" y="1.44775" width="10.0578" height="40.2313" rx="0.5" transform="rotate(-5.4071 21.7871 1.44775)" fill="#6F7392"/>
<rect x="23.3926" y="5.08594" width="7.54336" height="15.0867" rx="1" transform="rotate(-5.4071 23.3926 5.08594)" fill="white"/>
<path d="M32.1431 34.5633C32.2557 35.7534 31.3823 36.8095 30.1922 36.9221C29.0021 37.0348 27.9461 36.1613 27.8334 34.9713C27.7208 33.7812 28.5942 32.7251 29.7843 32.6125C30.9744 32.4998 32.0304 33.3733 32.1431 34.5633Z" fill="#6F7392" stroke="white" stroke-width="0.7"/>
<line x1="25.0798" y1="9.47488" x2="30.0864" y2="9.001" stroke="#6F7392"/>
<line x1="25.4275" y1="13.2278" x2="30.434" y2="12.7539" stroke="#6F7392"/>
<line x1="25.7751" y1="16.9846" x2="30.7817" y2="16.5108" stroke="#6F7392"/>
<rect x="11.7051" y="0.882324" width="10.0578" height="40.2313" rx="0.5" fill="#8C8FA7"/>
<rect x="12.9668" y="4.65234" width="7.54336" height="15.0867" rx="1" fill="white"/>
<path d="M18.9074 34.8274C18.9074 36.0228 17.9384 36.9919 16.743 36.9919C15.5476 36.9919 14.5785 36.0228 14.5785 34.8274C14.5785 33.632 15.5476 32.663 16.743 32.663C17.9384 32.663 18.9074 33.632 18.9074 34.8274Z" fill="#6F7392" stroke="white" stroke-width="0.7"/>
<line x1="14.2285" y1="9.18457" x2="19.2574" y2="9.18457" stroke="#8C8FA7"/>
<line x1="14.2285" y1="12.9546" x2="19.2574" y2="12.9546" stroke="#8C8FA7"/>
<line x1="14.2285" y1="16.7246" x2="19.2574" y2="16.7246" stroke="#8C8FA7"/>
<rect x="0.408203" y="0.880859" width="10.0578" height="40.2313" rx="0.5" fill="#8C8FA7"/>
<rect x="1.66992" y="4.65527" width="7.54336" height="15.0867" rx="1" fill="white"/>
<path d="M7.61055 34.826C7.61055 36.0214 6.64149 36.9904 5.44609 36.9904C4.2507 36.9904 3.28164 36.0214 3.28164 34.826C3.28164 33.6306 4.2507 32.6615 5.44609 32.6615C6.64149 32.6615 7.61055 33.6306 7.61055 34.826Z" fill="#6F7392" stroke="white" stroke-width="0.7"/>
<line x1="2.93164" y1="9.18311" x2="7.96055" y2="9.18311" stroke="#8C8FA7"/>
<line x1="2.93164" y1="12.9531" x2="7.96055" y2="12.9531" stroke="#8C8FA7"/>
<line x1="2.93164" y1="16.7275" x2="7.96055" y2="16.7275" stroke="#8C8FA7"/>
</svg>
