<svg width="37" height="41" viewBox="0 0 37 41" fill="none" xmlns="http://www.w3.org/2000/svg">
<path fill-rule="evenodd" clip-rule="evenodd" d="M22.3342 1.44553C22.3082 1.17062 22.51 0.926659 22.7849 0.900638L31.8024 0.0471055C32.0773 0.0210841 32.3213 0.222851 32.3473 0.497765L36.0441 39.5545C36.0701 39.8294 35.8684 40.0733 35.5934 40.0993L26.5759 40.9529C26.301 40.9789 26.0571 40.7771 26.0311 40.5022L22.3342 1.44553ZM30.6592 36.0737C31.6569 35.9792 32.3891 35.094 32.2946 34.0963C32.2002 33.0987 31.3149 32.3665 30.3173 32.4609C29.3196 32.5553 28.5874 33.4406 28.6819 34.4383C28.7763 35.4359 29.6616 36.1681 30.6592 36.0737ZM30.7252 36.7706C32.1077 36.6397 33.1224 35.4129 32.9915 34.0304C32.8607 32.6478 31.6338 31.6332 30.2513 31.764C28.8688 31.8949 27.8541 33.1217 27.985 34.5042C28.1158 35.8868 29.3427 36.9014 30.7252 36.7706ZM24.8881 4.49171C24.3383 4.54375 23.9348 5.03166 23.9868 5.58149L25.22 18.61C25.272 19.1598 25.7599 19.5633 26.3098 19.5113L31.8285 18.9889C32.3783 18.9369 32.7818 18.449 32.7298 17.8991L31.4966 4.87066C31.4446 4.32084 30.9566 3.9173 30.4068 3.96935L24.8881 4.49171Z" fill="white"/>
<line x1="25.5798" y1="8.97488" x2="30.5864" y2="8.501" stroke="white"/>
<line x1="25.9275" y1="12.7278" x2="30.934" y2="12.2539" stroke="white"/>
<line x1="26.2751" y1="16.4846" x2="31.2817" y2="16.0108" stroke="white"/>
<path fill-rule="evenodd" clip-rule="evenodd" d="M12.2051 0.882325C12.2051 0.606183 12.4289 0.382324 12.7051 0.382324H21.7629C22.039 0.382324 22.2629 0.606182 22.2629 0.882324V40.1136C22.2629 40.3897 22.039 40.6136 21.7629 40.6136H12.7051C12.4289 40.6136 12.2051 40.3897 12.2051 40.1136V0.882325ZM17.243 36.1419C18.2451 36.1419 19.0574 35.3295 19.0574 34.3274C19.0574 33.3253 18.2451 32.513 17.243 32.513C16.2409 32.513 15.4285 33.3253 15.4285 34.3274C15.4285 35.3295 16.2409 36.1419 17.243 36.1419ZM17.243 36.8419C18.6317 36.8419 19.7574 35.7161 19.7574 34.3274C19.7574 32.9387 18.6317 31.813 17.243 31.813C15.8543 31.813 14.7285 32.9387 14.7285 34.3274C14.7285 35.7161 15.8543 36.8419 17.243 36.8419ZM14.4668 4.15234C13.9145 4.15234 13.4668 4.60006 13.4668 5.15234V18.2391C13.4668 18.7913 13.9145 19.2391 14.4668 19.2391H20.0102C20.5624 19.2391 21.0102 18.7913 21.0102 18.2391V5.15234C21.0102 4.60006 20.5624 4.15234 20.0102 4.15234H14.4668Z" fill="white"/>
<line x1="14.7285" y1="8.68457" x2="19.7574" y2="8.68457" stroke="white"/>
<line x1="14.7285" y1="12.4546" x2="19.7574" y2="12.4546" stroke="white"/>
<line x1="14.7285" y1="16.2246" x2="19.7574" y2="16.2246" stroke="white"/>
<path fill-rule="evenodd" clip-rule="evenodd" d="M0.908203 0.88086C0.908203 0.604718 1.13206 0.380859 1.4082 0.380859H10.466C10.7422 0.380859 10.966 0.604717 10.966 0.880859V40.1121C10.966 40.3883 10.7422 40.6121 10.466 40.6121H1.4082C1.13206 40.6121 0.908203 40.3883 0.908203 40.1121V0.88086ZM5.94609 36.1404C6.94819 36.1404 7.76055 35.3281 7.76055 34.326C7.76055 33.3239 6.94819 32.5115 5.94609 32.5115C4.944 32.5115 4.13164 33.3239 4.13164 34.326C4.13164 35.3281 4.944 36.1404 5.94609 36.1404ZM5.94609 36.8404C7.33479 36.8404 8.46055 35.7147 8.46055 34.326C8.46055 32.9373 7.33479 31.8115 5.94609 31.8115C4.5574 31.8115 3.43164 32.9373 3.43164 34.326C3.43164 35.7147 4.5574 36.8404 5.94609 36.8404ZM3.16992 4.15527C2.61764 4.15527 2.16992 4.60299 2.16992 5.15527V18.242C2.16992 18.7943 2.61764 19.242 3.16992 19.242H8.71328C9.26557 19.242 9.71328 18.7943 9.71328 18.242V5.15527C9.71328 4.60299 9.26557 4.15527 8.71328 4.15527H3.16992Z" fill="white"/>
<line x1="3.43164" y1="8.68311" x2="8.46055" y2="8.68311" stroke="white"/>
<line x1="3.43164" y1="12.4531" x2="8.46055" y2="12.4531" stroke="white"/>
<line x1="3.43164" y1="16.2275" x2="8.46055" y2="16.2275" stroke="white"/>
</svg>
