<svg width="45" height="29" viewBox="0 0 45 29" fill="none" xmlns="http://www.w3.org/2000/svg">
<path fill-rule="evenodd" clip-rule="evenodd" d="M34.7715 6.09326H30.3204L33.3431 13.3981C33.6156 14.0564 33.1317 14.7804 32.4191 14.7804H30.6206V28.9421H35.9645V15.8036V15.5536H36.2145H38.2776C38.4554 15.5536 38.5764 15.3733 38.5089 15.2088L34.7715 6.09326ZM36.4645 28.9421H41.5991C42.0705 28.9421 42.3062 28.9421 42.4527 28.7957C42.5991 28.6492 42.5991 28.4135 42.5991 27.9421V17.021H43.1001C43.7749 17.021 44.1123 17.021 44.2608 16.7995C44.4094 16.578 44.2814 16.2658 44.0253 15.6415L44.0253 15.6415L40.5164 7.08612C40.3191 6.60501 40.2204 6.36446 40.0183 6.22886C39.8161 6.09326 39.5561 6.09326 39.0361 6.09326H35.3119L38.9716 15.0191C39.1739 15.5126 38.811 16.0536 38.2776 16.0536H36.4645V28.9421ZM24.2507 6.09326H29.2382L32.4191 13.7804H30.1206H29.6206V14.2804V28.9421H22.6877C21.7449 28.9421 21.2735 28.9421 20.9806 28.6492C20.6877 28.3563 20.6877 27.8849 20.6877 26.9421V17.021H20.1867C19.5119 17.021 19.1745 17.021 19.026 16.7995C18.8774 16.578 19.0055 16.2658 19.2615 15.6415L21.249 10.7956C24.2683 10.8833 26.7361 11.2897 29.0806 12.0879C29.0932 12.138 29.1052 12.1885 29.1166 12.2397C29.1465 12.3745 29.2801 12.4595 29.4149 12.4295C29.5496 12.3996 29.6346 12.266 29.6047 12.1312C29.2041 10.329 28.094 9.17265 26.4783 8.52648C25.3568 8.07793 23.9932 7.87508 22.4531 7.85991L22.7704 7.08612C22.9677 6.60501 23.0664 6.36446 23.2686 6.22886C23.4707 6.09326 23.7307 6.09326 24.2507 6.09326ZM26.8934 9.27039C25.6492 8.72363 24.0234 8.52845 22.1614 8.57108L22.2483 8.35902C23.8311 8.35771 25.198 8.55293 26.2927 8.99073C26.503 9.07486 26.7034 9.16794 26.8934 9.27039Z" fill="white"/>
<path fill-rule="evenodd" clip-rule="evenodd" d="M36.2745 15.5536V15.4316H37.0176C37.6893 15.4316 38.0251 15.4316 38.1738 15.2111C38.3225 14.9906 38.1965 14.6793 37.9447 14.0567L33.9467 4.17196L33.9467 4.17194L33.9467 4.1719C33.7262 3.62691 33.616 3.35441 33.388 3.20065C33.1599 3.04688 32.8659 3.04688 32.278 3.04688H29.0598L33.3431 13.3981C33.6156 14.0564 33.1317 14.7804 32.4191 14.7804H30.6206V28.9422H34.2745C35.1991 28.9422 35.6704 28.9422 35.9645 28.6659V15.8036V15.5536H36.2145H36.2745ZM15.7817 3.04688H27.9776L32.4191 13.7804H30.1206H29.6206V14.2804V28.9422H13.7852C12.8424 28.9422 12.371 28.9422 12.0781 28.6493C11.7852 28.3564 11.7852 27.885 11.7852 26.9422V15.4316H11.0421C10.3704 15.4316 10.0346 15.4316 9.88596 15.2111C9.7373 14.9906 9.86322 14.6793 10.1151 14.0567L11.2294 11.3016C19.6421 10.4673 24.5875 10.5583 29.0805 12.0879C29.0931 12.138 29.1051 12.1885 29.1165 12.2397C29.1465 12.3745 29.28 12.4595 29.4148 12.4295C29.5496 12.3996 29.6345 12.266 29.6046 12.1312C29.2041 10.329 28.094 9.17265 26.4783 8.52648C24.8785 7.88666 22.7862 7.74676 20.3915 7.93837C17.8825 8.13912 15.0098 8.70695 11.9679 9.47561L14.1131 4.17196C14.3335 3.62693 14.4437 3.35442 14.6718 3.20065C14.8999 3.04688 15.1938 3.04688 15.7817 3.04688ZM11.7353 10.0509L11.6697 10.2129C17.6206 8.84133 23.5966 7.82163 26.8933 9.27039C26.7033 9.16794 26.503 9.07486 26.2926 8.99073C24.7983 8.39311 22.7968 8.24751 20.4314 8.43678C17.8587 8.64262 14.8896 9.24112 11.7353 10.0509ZM16.1803 21.278V22.0042H16.7045V21.2778C17.1156 21.2546 17.4736 21.1761 17.7784 21.0422C18.1491 20.8782 18.4325 20.6512 18.6285 20.3615C18.8245 20.0696 18.9225 19.7318 18.9225 19.3483C18.9225 19.0649 18.8693 18.8178 18.7627 18.6068C18.6562 18.3959 18.5113 18.2159 18.3281 18.0667C18.147 17.9176 17.9414 17.794 17.7112 17.696C17.4833 17.598 17.2457 17.5202 16.9985 17.4627L16.7045 17.3892V15.5686C16.9457 15.5973 17.1491 15.6705 17.3149 15.788C17.5365 15.9435 17.6622 16.1608 17.6921 16.4399H18.833C18.8267 16.0713 18.7233 15.7453 18.523 15.462C18.3227 15.1764 18.0468 14.9538 17.6953 14.794C17.4048 14.6594 17.0745 14.5807 16.7045 14.558V13.8224H16.1803V14.5627C15.839 14.5904 15.5268 14.6675 15.2439 14.794C14.8817 14.9538 14.5951 15.1786 14.3842 15.4684C14.1754 15.7581 14.071 16.0958 14.071 16.4815C14.071 16.9502 14.2265 17.3263 14.5376 17.6097C14.8508 17.8909 15.2769 18.1008 15.816 18.2393L16.1803 18.3331V20.2585C16.0297 20.2415 15.8891 20.2088 15.7585 20.1601C15.5603 20.0855 15.3994 19.9726 15.2759 19.8213C15.1523 19.6701 15.082 19.4804 15.0649 19.2524H13.8984C13.9154 19.6871 14.0284 20.0557 14.2372 20.3583C14.4481 20.6608 14.74 20.8909 15.1129 21.0486C15.4228 21.1789 15.7787 21.2554 16.1803 21.278ZM16.7045 20.256C16.8513 20.2381 16.9855 20.205 17.1072 20.1569C17.3032 20.0781 17.4566 19.9694 17.5674 19.8309C17.6782 19.6903 17.7347 19.5262 17.7368 19.3387C17.7347 19.1683 17.6846 19.0277 17.5866 18.9169C17.4886 18.8039 17.3512 18.7102 17.1743 18.6356C17.0363 18.575 16.8797 18.5198 16.7045 18.4698V20.256ZM16.1803 17.2545V15.5723C16.0483 15.5902 15.9289 15.6216 15.8224 15.6665C15.6455 15.7411 15.5102 15.8423 15.4165 15.9701C15.3227 16.098 15.2748 16.2439 15.2727 16.408C15.2727 16.5443 15.3036 16.6626 15.3654 16.7627C15.4293 16.8629 15.5156 16.9481 15.6242 17.0184C15.7329 17.0866 15.8533 17.1441 15.9854 17.191C16.0501 17.214 16.1151 17.2352 16.1803 17.2545Z" fill="white"/>
<path fill-rule="evenodd" clip-rule="evenodd" d="M26.8033 0.209171C26.7871 0.196102 26.7703 0.183709 26.753 0.171937C26.499 0 26.1711 0 25.5153 0H7.30798C6.65216 0 6.32425 0 6.0703 0.171937C5.81634 0.343874 5.69457 0.648332 5.45101 1.25725L0.965964 12.4704C0.717439 13.0917 0.593176 13.4024 0.741911 13.6221C0.890646 13.8418 1.22525 13.8418 1.89445 13.8418H2.87808V26.9419C2.87808 27.8847 2.87808 28.3561 3.17098 28.649C3.46387 28.9419 3.93527 28.9419 4.87808 28.9419H27.9452C28.8548 28.9419 29.3256 28.9419 29.6206 28.6788V14.2804V13.7804H30.1206H31.8537C31.956 13.7479 32.0298 13.6982 32.0813 13.6221C32.2301 13.4024 32.1058 13.0917 31.8573 12.4704L31.2855 11.0409L26.8033 0.209171ZM4.86059 12.0149C4.4205 12.1501 3.97976 12.2868 3.53888 12.4246C3.40709 12.4658 3.26687 12.3923 3.22569 12.2605C3.18451 12.1288 3.25796 11.9885 3.38975 11.9474C9.48018 10.0442 15.5986 8.32178 20.3906 7.93837C22.7853 7.74676 24.8776 7.88666 26.4774 8.52648C28.0931 9.17265 29.2032 10.329 29.6037 12.1312C29.6337 12.266 29.5487 12.3996 29.4139 12.4295C29.2791 12.4595 29.1456 12.3745 29.1156 12.2397C29.1042 12.1885 29.0922 12.138 29.0796 12.0879C23.5568 10.2077 17.3502 10.5012 4.86059 12.0149ZM7.66166 11.1741C12.3146 9.81559 16.7732 8.7294 20.4305 8.43678C22.7959 8.24751 24.7974 8.39311 26.2917 8.99073C26.5021 9.07486 26.7025 9.16794 26.8924 9.27039C22.8492 7.49358 14.7759 9.42969 7.66166 11.1741ZM16.1803 22.0042V21.278C15.7787 21.2554 15.4228 21.1789 15.1129 21.0486C14.74 20.8909 14.4481 20.6608 14.2372 20.3583C14.0284 20.0557 13.9154 19.6871 13.8984 19.2524H15.0649C15.082 19.4804 15.1523 19.6701 15.2759 19.8213C15.3994 19.9726 15.5603 20.0855 15.7585 20.1601C15.8891 20.2088 16.0297 20.2415 16.1803 20.2585V18.3331L15.816 18.2393C15.2769 18.1008 14.8508 17.8909 14.5376 17.6097C14.2265 17.3263 14.071 16.9502 14.071 16.4815C14.071 16.0958 14.1754 15.7581 14.3842 15.4684C14.5951 15.1786 14.8817 14.9538 15.2439 14.794C15.5268 14.6675 15.839 14.5904 16.1803 14.5627V13.8224H16.7045V14.558C17.0745 14.5807 17.4048 14.6594 17.6953 14.794C18.0468 14.9538 18.3227 15.1764 18.523 15.462C18.7233 15.7453 18.8266 16.0713 18.833 16.4399H17.6921C17.6622 16.1608 17.5365 15.9435 17.3149 15.788C17.1491 15.6705 16.9457 15.5973 16.7045 15.5686V17.3892L16.9985 17.4627C17.2457 17.5202 17.4833 17.598 17.7112 17.696C17.9414 17.794 18.147 17.9176 18.3281 18.0667C18.5113 18.2159 18.6562 18.3959 18.7627 18.6068C18.8693 18.8178 18.9225 19.0649 18.9225 19.3483C18.9225 19.7318 18.8245 20.0696 18.6285 20.3615C18.4325 20.6512 18.1491 20.8782 17.7784 21.0422C17.4736 21.1761 17.1156 21.2546 16.7045 21.2778V22.0042H16.1803ZM16.1803 15.5723V17.2545C16.1151 17.2352 16.0501 17.214 15.9854 17.191C15.8533 17.1441 15.7329 17.0866 15.6242 17.0184C15.5156 16.9481 15.4293 16.8629 15.3654 16.7627C15.3036 16.6626 15.2727 16.5443 15.2727 16.408C15.2748 16.2439 15.3227 16.098 15.4165 15.9701C15.5102 15.8423 15.6455 15.7411 15.8224 15.6665C15.9289 15.6216 16.0483 15.5902 16.1803 15.5723ZM16.7045 20.256V18.4698C16.8797 18.5198 17.0363 18.575 17.1743 18.6356C17.3512 18.7102 17.4886 18.8039 17.5866 18.9169C17.6846 19.0277 17.7347 19.1683 17.7368 19.3387C17.7347 19.5262 17.6782 19.6903 17.5674 19.8309C17.4566 19.9694 17.3032 20.0781 17.1072 20.1569C16.9855 20.205 16.8513 20.2381 16.7045 20.256Z" fill="white"/>
</svg>
