<svg width="46" height="34" viewBox="0 0 46 34" fill="none" xmlns="http://www.w3.org/2000/svg">
<path d="M23.1834 31.8518H42.0948C42.5662 31.8518 42.8019 31.8518 42.9484 31.7053C43.0948 31.5589 43.0948 31.3232 43.0948 30.8518V19.9306H43.5958C44.2706 19.9306 44.608 19.9306 44.7565 19.7091C44.9051 19.4877 44.777 19.1755 44.521 18.5512L44.521 18.5512L41.0121 9.99579C40.8148 9.51468 40.7161 9.27413 40.5139 9.13853C40.3117 9.00293 40.0517 9.00293 39.5317 9.00293H24.7464C24.2264 9.00293 23.9664 9.00293 23.7642 9.13853C23.5621 9.27413 23.4634 9.51468 23.2661 9.99579L19.7572 18.5512C19.5011 19.1755 19.3731 19.4877 19.5216 19.7091C19.6702 19.9306 20.0076 19.9306 20.6824 19.9306H21.1834V29.8518C21.1834 30.7946 21.1834 31.266 21.4762 31.5589C21.7691 31.8518 22.2405 31.8518 23.1834 31.8518Z" fill="#B1B4C9"/>
<path d="M14.281 31.8519H34.7703C35.7131 31.8519 36.1845 31.8519 36.4774 31.559C36.7703 31.2661 36.7703 30.7947 36.7703 29.8519V18.3413H37.5134C38.1851 18.3413 38.5209 18.3413 38.6695 18.1208C38.8182 17.9003 38.6923 17.589 38.4404 16.9663L34.4424 7.08162L34.4424 7.08161C34.222 6.53659 34.1118 6.26408 33.8837 6.11031C33.6556 5.95654 33.3617 5.95654 32.7738 5.95654H16.2775C15.6896 5.95654 15.3956 5.95654 15.1675 6.11031C14.9395 6.26409 14.8292 6.5366 14.6088 7.08162L10.6108 16.9663C10.359 17.589 10.233 17.9003 10.3817 18.1208C10.5304 18.3413 10.8662 18.3413 11.5378 18.3413H12.281V29.8519C12.281 30.7947 12.281 31.2661 12.5739 31.559C12.8668 31.8519 13.3382 31.8519 14.281 31.8519Z" fill="#A0A3BC"/>
<path d="M5.37471 31.8515H28.4418C29.3846 31.8515 29.856 31.8515 30.1489 31.5586C30.4418 31.2657 30.4418 30.7943 30.4418 29.8515V16.7514H31.4254C32.0946 16.7514 32.4292 16.7514 32.578 16.5317C32.7267 16.3121 32.6024 16.0014 32.3539 15.38L27.8689 4.16692C27.6253 3.558 27.5035 3.25354 27.2496 3.08161C26.9956 2.90967 26.6677 2.90967 26.0119 2.90967H7.8046C7.14878 2.90967 6.82087 2.90967 6.56692 3.08161C6.31297 3.25354 6.19119 3.558 5.94764 4.16692L1.46259 15.3801C1.21406 16.0014 1.0898 16.3121 1.23853 16.5317C1.38727 16.7514 1.72187 16.7514 2.39107 16.7514H3.37471V29.8515C3.37471 30.7943 3.37471 31.2657 3.6676 31.5586C3.96049 31.8515 4.4319 31.8515 5.37471 31.8515Z" fill="#8C8FA7"/>
<path d="M16.6764 24.9139V16.7321H17.2006V24.9139H16.6764ZM18.1882 19.3496C18.1583 19.0705 18.0326 18.8532 17.811 18.6976C17.5916 18.5421 17.3061 18.4643 16.9545 18.4643C16.7073 18.4643 16.4953 18.5016 16.3185 18.5762C16.1416 18.6507 16.0063 18.752 15.9126 18.8798C15.8188 19.0076 15.7709 19.1536 15.7688 19.3176C15.7688 19.454 15.7997 19.5723 15.8615 19.6724C15.9254 19.7725 16.0117 19.8578 16.1203 19.9281C16.229 19.9963 16.3494 20.0538 16.4815 20.1007C16.6136 20.1475 16.7467 20.187 16.881 20.2189L17.4946 20.3723C17.7418 20.4299 17.9793 20.5076 18.2073 20.6056C18.4374 20.7037 18.6431 20.8272 18.8242 20.9764C19.0074 21.1255 19.1523 21.3056 19.2588 21.5165C19.3654 21.7275 19.4186 21.9746 19.4186 22.258C19.4186 22.6415 19.3206 22.9792 19.1246 23.2711C18.9286 23.5609 18.6452 23.7878 18.2744 23.9519C17.9058 24.1138 17.4595 24.1948 16.9353 24.1948C16.4261 24.1948 15.984 24.1159 15.609 23.9583C15.2361 23.8006 14.9442 23.5705 14.7333 23.2679C14.5244 22.9654 14.4115 22.5968 14.3945 22.1621H15.561C15.5781 22.3901 15.6484 22.5797 15.772 22.731C15.8955 22.8823 16.0564 22.9952 16.2546 23.0698C16.4548 23.1444 16.6786 23.1816 16.9257 23.1816C17.1835 23.1816 17.4094 23.1433 17.6033 23.0666C17.7993 22.9877 17.9527 22.8791 18.0635 22.7406C18.1743 22.6 18.2308 22.4359 18.2329 22.2484C18.2308 22.0779 18.1807 21.9373 18.0827 21.8265C17.9847 21.7136 17.8472 21.6199 17.6704 21.5453C17.4957 21.4686 17.2911 21.4004 17.0568 21.3407L16.3121 21.149C15.773 21.0105 15.3469 20.8006 15.0337 20.5194C14.7226 20.236 14.5671 19.8599 14.5671 19.3912C14.5671 19.0055 14.6715 18.6678 14.8803 18.378C15.0912 18.0882 15.3778 17.8635 15.74 17.7037C16.1022 17.5417 16.5124 17.4608 16.9705 17.4608C17.435 17.4608 17.8419 17.5417 18.1914 17.7037C18.5429 17.8635 18.8188 18.0861 19.0191 18.3716C19.2194 18.655 19.3227 18.981 19.3291 19.3496H18.1882Z" fill="white"/>
<path d="M26.8086 0.625L33.3772 16.4989C33.5135 16.8281 33.2715 17.1901 32.9152 17.1901H30.6167V33.375" stroke="#F5F5F5" stroke-linecap="round"/>
<path d="M33.6641 4.43311L39.2364 18.0236C39.3712 18.3526 39.1293 18.7133 38.7737 18.7133H36.7106V33.375" stroke="#F5F5F5" stroke-width="0.5" stroke-linecap="round"/>
<path d="M3.96094 15.0957C16.147 11.2877 28.333 8.24129 29.8563 15.0951" stroke="#F5F5F5" stroke-width="0.5" stroke-linecap="round"/>
<path d="M3.96094 15.0955C13.8621 12.8109 28.333 8.24071 29.8563 15.095C24.0605 13.0363 17.6112 13.4081 3.96094 15.0955Z" fill="#F5F5F5" stroke="#F5F5F5" stroke-width="0.5" stroke-linecap="round"/>
</svg>
