<svg width="31" height="33" viewBox="0 0 31 33" fill="none" xmlns="http://www.w3.org/2000/svg">
<path d="M20.3171 8.46387V7.46387C20.3171 6.96387 20.1461 6.23229 19.8676 5.81552C19.6731 5.52434 19.4231 5.27434 19.1319 5.07979C18.4593 4.63037 17.523 4.63037 15.6504 4.63037H6.31706C4.44444 4.63037 3.50813 4.63037 2.83554 5.07979C2.54436 5.27434 2.29436 5.52434 2.0998 5.81552C1.65039 6.48811 1.65039 7.42442 1.65039 9.29704V21.9637C1.65039 24.4779 1.65039 25.7349 2.43144 26.516C3.193 27.2775 4.57903 27.2966 5.88251 27.297C5.93226 27.297 5.95714 27.2971 5.98 27.2976C6.00286 27.2981 6.02881 27.2993 6.0807 27.3017C6.64153 27.3276 9.4541 27.4469 10.6504 27.297C9.65039 24.9639 9.15039 20.9639 11.1504 17.4639C12.6504 14.8389 15.1504 12.9639 16.6504 12.4639V12.1306C16.6504 10.5669 16.6504 9.78496 17.0637 9.24634C17.1701 9.10768 17.2942 8.98356 17.4329 8.87716C17.9715 8.46387 18.7533 8.46387 20.3171 8.46387Z" fill="#8C8FA7" stroke="#8C8FA7" stroke-width="2"/>
<path d="M6.98242 4.63053C6.98242 3.15777 8.17633 1.96387 9.64909 1.96387H12.3158C13.7885 1.96387 14.9824 3.15777 14.9824 4.63053C14.9824 6.10329 13.7885 7.2972 12.3158 7.2972H9.64909C8.17633 7.2972 6.98242 6.10329 6.98242 4.63053Z" fill="#F5F5F5" stroke="#8C8FA7" stroke-width="2"/>
<circle cx="21.5006" cy="23.1857" r="7.85022" fill="#F5F5F5" stroke="#8C8FA7" stroke-width="2"/>
<rect x="18.9746" y="10.9639" width="5.00461" height="2.89741" rx="1" fill="#8C8FA7"/>
<circle cx="21.5662" cy="22.8829" r="1.68576" transform="rotate(105 21.5662 22.8829)" fill="#8C8FA7"/>
<path d="M21.6934 21.3179L25.3389 18.708C25.6108 18.5133 25.9893 18.5774 26.1821 18.8507C26.3467 19.0841 26.3249 19.4009 26.1299 19.6095L23.2028 22.7404L21.6934 21.3179Z" fill="#8C8FA7"/>
<rect x="19.9551" y="12.9302" width="3.09055" height="1.96672" fill="#8C8FA7"/>
</svg>
