<svg width="30" height="32" viewBox="0 0 30 32" fill="none" xmlns="http://www.w3.org/2000/svg">
<path d="M19.8171 7.5V6.5C19.8171 6 19.6461 5.26842 19.3676 4.85165C19.1731 4.56048 18.9231 4.31047 18.6319 4.11592C18.3105 3.90115 17.9288 3.78902 17.4136 3.73047C16.4402 3.61987 15.9535 3.56457 15.4264 3.82484C14.8992 4.0851 14.5946 4.59293 13.9852 5.60859L13.9852 5.60859L13.1504 7L10.6504 6.5L8.15039 7L7.01136 5.37273C6.39281 4.48904 6.08353 4.0472 5.59872 3.82062C5.11391 3.59403 4.6544 3.63351 3.7354 3.71247C3.12639 3.76479 2.6936 3.87667 2.33554 4.11592C2.04436 4.31047 1.79436 4.56048 1.5998 4.85165C1.15039 5.52425 1.15039 6.46055 1.15039 8.33317V20.9998C1.15039 23.514 1.15039 24.7711 1.93144 25.5521C2.693 26.3137 4.07903 26.3327 5.38251 26.3332C5.43226 26.3332 5.45714 26.3332 5.48 26.3337C5.50286 26.3342 5.52881 26.3354 5.5807 26.3378C6.14153 26.3637 8.9541 26.483 10.1504 26.3332C9.15039 24 8.65039 20 10.6504 16.5C12.1504 13.875 14.6504 12 16.1504 11.5V11.1668C16.1504 9.60299 16.1504 8.82109 16.5637 8.28248C16.6701 8.14381 16.7942 8.01969 16.9329 7.91329C17.4715 7.5 18.2533 7.5 19.8171 7.5Z" fill="white" stroke="white" stroke-width="2"/>
<path d="M6.48242 3.66667C6.48242 2.19391 7.67633 1 9.14909 1H11.8158C13.2885 1 14.4824 2.19391 14.4824 3.66667C14.4824 5.13943 13.2885 6.33333 11.8158 6.33333H9.14909C7.67633 6.33333 6.48242 5.13943 6.48242 3.66667Z" stroke="white" stroke-width="2"/>
<circle cx="21.0006" cy="22.2218" r="7.85022" stroke="white" stroke-width="2"/>
<rect x="18.4746" y="10" width="5.00461" height="2.89741" rx="1" fill="white"/>
<circle cx="21.0662" cy="21.9191" r="1.68576" transform="rotate(105 21.0662 21.9191)" fill="white"/>
<path d="M21.1934 20.354L24.8389 17.7442C25.1108 17.5495 25.4893 17.6135 25.6821 17.8868C25.8467 18.1202 25.8249 18.4371 25.6299 18.6457L22.7028 21.7766L21.1934 20.354Z" fill="white"/>
<rect x="19.4551" y="11.9663" width="3.09055" height="1.96672" fill="white"/>
</svg>
