<svg width="25" height="25" viewBox="0 0 25 25" fill="none" xmlns="http://www.w3.org/2000/svg">
<path d="M14.6361 3.86144L15.6312 3.76194L14.6361 3.86144ZM14.4838 3.04161L13.595 3.5V3.5L14.4838 3.04161ZM14.9311 5.31793L15.7261 4.71141L15.7261 4.71141L14.9311 5.31793ZM15.8595 5.70248L15.7261 4.71141L15.8595 5.70248ZM17.0979 4.88113L17.7311 5.65509L17.7311 5.65509L17.0979 4.88113ZM17.7853 4.40918L18.0896 5.36175L17.7853 4.40918ZM18.4872 4.44419L18.8848 3.52663L18.8848 3.52663L18.4872 4.44419ZM19.1243 4.9822L18.4172 5.6893L18.4172 5.68931L19.1243 4.9822ZM20.0178 5.87567L20.7249 5.16856L20.7249 5.16856L20.0178 5.87567ZM20.5558 6.51275L21.4733 6.11517L21.4733 6.11516L20.5558 6.51275ZM20.5908 7.21464L21.5434 7.51895L21.5434 7.51894L20.5908 7.21464ZM20.1188 7.9021L19.3449 7.26886L19.3449 7.26886L20.1188 7.9021ZM19.2975 9.14056L18.3064 9.00724L18.3064 9.00725L19.2975 9.14056ZM19.682 10.0689L19.0755 10.864L19.0755 10.864L19.682 10.0689ZM21.1385 10.3639L21.238 9.36882L21.1385 10.3639ZM21.9584 10.5162L22.4168 9.6275L22.4168 9.6275L21.9584 10.5162ZM22.4299 11.0373L23.3599 10.6696L23.3599 10.6696L22.4299 11.0373ZM22.43 13.9626L21.5 13.595L21.5 13.595L22.43 13.9626ZM21.9583 14.4838L22.4166 15.3726L22.4166 15.3726L21.9583 14.4838ZM21.1386 14.6361L21.0391 13.6411L21.0065 13.6444L20.9742 13.6497L21.1386 14.6361ZM21.1386 14.6361L21.2381 15.6312L21.2707 15.6279L21.303 15.6225L21.1386 14.6361ZM19.6825 14.9309L19.0762 14.1357L19.0762 14.1357L19.6825 14.9309ZM19.2979 15.8596L18.3068 15.9931V15.9931L19.2979 15.8596ZM20.119 17.0976L19.345 17.7308H19.345L20.119 17.0976ZM20.5908 17.7848L19.6383 18.0892V18.0892L20.5908 17.7848ZM20.5558 18.4869L19.6383 18.0892L19.6383 18.0892L20.5558 18.4869ZM20.0179 19.1238L20.725 19.8309H20.725L20.0179 19.1238ZM19.1243 20.0174L18.4172 19.3102L18.4172 19.3103L19.1243 20.0174ZM18.4873 20.5554L18.8849 21.4729L18.8849 21.4729L18.4873 20.5554ZM17.7854 20.5904L17.481 21.5429L17.481 21.5429L17.7854 20.5904ZM17.0979 20.1184L17.7312 19.3444L17.7226 19.3376L17.0979 20.1184ZM17.0979 20.1184L16.4646 20.8924L16.4732 20.8993L17.0979 20.1184ZM15.8595 19.2971L15.9928 18.306H15.9928L15.8595 19.2971ZM14.9311 19.6816L15.7262 20.2882L15.7262 20.2881L14.9311 19.6816ZM14.6362 21.1383L13.6411 21.0388V21.0388L14.6362 21.1383ZM14.4837 21.9585L13.595 21.5L13.595 21.5L14.4837 21.9585ZM13.9628 22.4299L13.595 21.5L13.595 21.5L13.9628 22.4299ZM11.0373 22.4299L11.405 21.5L11.0373 22.4299ZM10.5162 21.9584L11.405 21.5H11.405L10.5162 21.9584ZM10.3639 21.1385L9.36882 21.2381V21.2381L10.3639 21.1385ZM10.0689 19.682L9.27387 20.2885L9.27387 20.2885L10.0689 19.682ZM9.14057 19.2975L9.00728 18.3064H9.00727L9.14057 19.2975ZM7.90208 20.1189L7.26884 19.3449L7.253 19.3579L7.23771 19.3714L7.90208 20.1189ZM7.90206 20.1189L8.5353 20.8928L8.55113 20.8799L8.56643 20.8663L7.90206 20.1189ZM7.21458 20.5908L7.51887 21.5434H7.51887L7.21458 20.5908ZM6.51272 20.5558L6.11515 21.4734H6.11515L6.51272 20.5558ZM5.87561 20.0178L6.58271 19.3107H6.58271L5.87561 20.0178ZM4.98217 19.1243L4.27506 19.8315L4.27506 19.8315L4.98217 19.1243ZM4.44414 18.4873L5.36171 18.0897L5.36171 18.0897L4.44414 18.4873ZM4.40913 17.7854L5.36171 18.0897L5.36171 18.0897L4.40913 17.7854ZM4.8811 17.0979L5.65506 17.7311H5.65506L4.8811 17.0979ZM5.70247 15.8594L6.69355 15.9928L5.70247 15.8594ZM5.31792 14.9311L5.92445 14.136L5.92445 14.136L5.31792 14.9311ZM3.86143 14.6361L3.76193 15.6312H3.76193L3.86143 14.6361ZM3.04161 14.4838L3.5 13.595H3.5L3.04161 14.4838ZM2.57005 13.9627L1.64009 14.3304L1.64009 14.3304L2.57005 13.9627ZM2.57008 11.0372L1.64017 10.6694L1.64017 10.6694L2.57008 11.0372ZM3.04152 10.5163L2.58305 9.62757L2.58305 9.62757L3.04152 10.5163ZM3.86155 10.3638V9.36384H3.81167L3.76205 9.36881L3.86155 10.3638ZM3.86156 10.3638V11.3638H3.91143L3.96106 11.3589L3.86156 10.3638ZM5.31842 10.0688L4.71178 9.27383L4.71177 9.27383L5.31842 10.0688ZM5.70287 9.14066L6.69396 9.00749L6.69396 9.00749L5.70287 9.14066ZM4.88128 7.90182L5.65523 7.26858H5.65523L4.88128 7.90182ZM4.40914 7.21405L5.36175 6.90988L5.36175 6.90988L4.40914 7.21405ZM4.44413 6.51243L3.52651 6.11498L3.52651 6.11498L4.44413 6.51243ZM4.98233 5.87509L5.68944 6.5822H5.68944L4.98233 5.87509ZM5.87565 4.98177L5.16855 4.27466V4.27466L5.87565 4.98177ZM6.51277 4.44373L6.1152 3.52615L6.1152 3.52616L6.51277 4.44373ZM7.21463 4.40872L7.51892 3.45614V3.45614L7.21463 4.40872ZM7.9022 4.88076L8.53543 4.10681V4.10681L7.9022 4.88076ZM9.14044 5.70207L9.27391 4.71101L9.14044 5.70207ZM10.0691 5.31742L9.27391 4.71101L9.27391 4.71101L10.0691 5.31742ZM10.3639 3.86131L11.3589 3.96081V3.96081L10.3639 3.86131ZM10.5162 3.0417L9.62739 2.58341L9.62739 2.58341L10.5162 3.0417ZM11.0374 2.57001L11.405 3.5L11.405 3.5L11.0374 2.57001ZM13.9627 2.57005L14.3304 1.6401V1.6401L13.9627 2.57005ZM15.6312 3.76194C15.6108 3.55831 15.5912 3.35693 15.5626 3.1868C15.5324 3.00684 15.4828 2.79705 15.3725 2.58322L13.595 3.5C13.5721 3.45549 13.5769 3.43878 13.5902 3.51798C13.6052 3.60701 13.6181 3.73089 13.6411 3.96094L15.6312 3.76194ZM15.7261 4.71141C15.7894 4.79433 15.7693 4.83101 15.7342 4.63595C15.7008 4.45045 15.6739 4.18915 15.6312 3.76194L13.6411 3.96094C13.6805 4.35459 13.7152 4.70895 13.7658 4.99017C13.8147 5.26184 13.9009 5.61633 14.136 5.92445L15.7261 4.71141ZM15.7261 4.71141L15.7261 4.71141L14.136 5.92444C14.5718 6.49575 15.2806 6.78935 15.9928 6.69355L15.7261 4.71141ZM16.4646 4.10717C16.1323 4.37905 15.9286 4.54481 15.7738 4.65238C15.6111 4.76548 15.6228 4.72531 15.7261 4.71141L15.9928 6.69355C16.3768 6.64188 16.6885 6.45223 16.9152 6.2947C17.1498 6.13163 17.4249 5.9056 17.7311 5.65509L16.4646 4.10717ZM17.481 3.45661C17.2518 3.52983 17.0684 3.64308 16.9198 3.74897C16.7793 3.84907 16.623 3.97759 16.4646 4.10717L17.7311 5.65509C17.91 5.50869 18.0068 5.43022 18.0803 5.37784C18.1457 5.33124 18.1373 5.34651 18.0896 5.36175L17.481 3.45661ZM18.8848 3.52663C18.4408 3.33421 17.942 3.30934 17.481 3.45661L18.0896 5.36175L18.0896 5.36175L18.8848 3.52663ZM19.8314 4.27509C19.6867 4.1304 19.544 3.98696 19.4142 3.87338C19.2768 3.75323 19.1056 3.62228 18.8848 3.52663L18.0896 5.36175C18.0437 5.34184 18.0369 5.32581 18.0973 5.37869C18.1653 5.43813 18.2537 5.52583 18.4172 5.6893L19.8314 4.27509ZM20.7249 5.16856L19.8314 4.27509L18.4172 5.68931L19.3107 6.58277L20.7249 5.16856ZM21.4733 6.11516C21.3777 5.89441 21.2467 5.72316 21.1266 5.58581C21.013 5.45597 20.8696 5.31326 20.7249 5.16856L19.3106 6.58277C19.4741 6.74626 19.5618 6.83469 19.6213 6.90264C19.6742 6.96308 19.6581 6.95629 19.6382 6.91034L21.4733 6.11516ZM21.5434 7.51894C21.6906 7.05797 21.6658 6.55922 21.4733 6.11517L19.6382 6.91034L19.6382 6.91034L21.5434 7.51894ZM20.8928 8.53534C21.0224 8.37696 21.1509 8.22069 21.251 8.08019C21.3569 7.93156 21.4701 7.74814 21.5434 7.51895L19.6382 6.91033C19.6535 6.86263 19.6687 6.85427 19.6221 6.91968C19.5697 6.9932 19.4913 7.08992 19.3449 7.26886L20.8928 8.53534ZM20.2885 9.27387C20.2746 9.37723 20.2345 9.38894 20.3476 9.22619C20.4551 9.07141 20.6209 8.86764 20.8928 8.53534L19.3449 7.26886C19.0943 7.57506 18.8683 7.85016 18.7052 8.08481C18.5477 8.31148 18.3581 8.62317 18.3064 9.00724L20.2885 9.27387ZM20.2885 9.27387V9.27386L18.3064 9.00725C18.2106 9.71938 18.5042 10.4282 19.0755 10.864L20.2885 9.27387ZM21.238 9.36882C20.8108 9.32609 20.5495 9.29922 20.364 9.26584C20.1689 9.23073 20.2056 9.2106 20.2885 9.27387L19.0755 10.864C19.3836 11.099 19.7381 11.1853 20.0098 11.2342C20.291 11.2848 20.6454 11.3195 21.039 11.3589L21.238 9.36882ZM22.4168 9.6275C22.203 9.51721 21.9932 9.46759 21.8132 9.43737C21.6431 9.4088 21.4417 9.38918 21.238 9.36882L21.039 11.3589C21.2691 11.3819 21.393 11.3948 21.482 11.4098C21.5612 11.4231 21.5445 11.4279 21.5 11.405L22.4168 9.6275ZM23.3599 10.6696C23.182 10.2196 22.8469 9.84933 22.4168 9.6275L21.5 11.405L21.5 11.405L23.3599 10.6696ZM23.5 11.8682C23.5 11.6636 23.5005 11.4613 23.489 11.2891C23.4769 11.107 23.4484 10.8933 23.3599 10.6696L21.5 11.405C21.4816 11.3584 21.4881 11.3423 21.4935 11.4224C21.4995 11.5125 21.5 11.637 21.5 11.8682H23.5ZM23.5 13.1319V11.8682H21.5V13.1319H23.5ZM23.36 14.3302C23.4484 14.1065 23.4769 13.8929 23.489 13.7108C23.5005 13.5388 23.5 13.3365 23.5 13.1319H21.5C21.5 13.363 21.4995 13.4875 21.4935 13.5776C21.4881 13.6577 21.4816 13.6416 21.5 13.595L23.36 14.3302ZM22.4166 15.3726C22.8469 15.1507 23.182 14.7804 23.36 14.3302L21.5 13.595V13.595L22.4166 15.3726ZM21.2381 15.6312C21.4417 15.6108 21.6431 15.5912 21.8132 15.5626C21.9931 15.5324 22.2028 15.4828 22.4166 15.3726L21.5 13.595C21.5445 13.5721 21.5612 13.577 21.482 13.5902C21.393 13.6052 21.2691 13.6181 21.0391 13.6411L21.2381 15.6312ZM21.303 15.6225L21.303 15.6225L20.9742 13.6497L20.9742 13.6497L21.303 15.6225ZM20.2889 15.7261C20.206 15.7893 20.1693 15.7692 20.3644 15.7341C20.5498 15.7007 20.811 15.6739 21.2381 15.6312L21.0391 13.6411C20.6456 13.6805 20.2913 13.7151 20.0102 13.7657C19.7386 13.8146 19.3842 13.9008 19.0762 14.1357L20.2889 15.7261ZM20.2889 15.7261L20.2889 15.7261L19.0762 14.1357C18.5046 14.5716 18.2108 15.2807 18.3068 15.9931L20.2889 15.7261ZM20.8929 16.4643C20.6212 16.1322 20.4555 15.9285 20.3479 15.7738C20.2348 15.6111 20.275 15.6228 20.2889 15.7261L18.3068 15.9931C18.3585 16.377 18.5481 16.6886 18.7056 16.9152C18.8686 17.1497 19.0946 17.4247 19.345 17.7308L20.8929 16.4643ZM21.5433 17.4803C21.4701 17.2513 21.3569 17.0679 21.251 16.9193C21.151 16.7789 21.0225 16.6227 20.8929 16.4643L19.345 17.7308C19.4914 17.9097 19.5698 18.0064 19.6222 18.0799C19.6688 18.1453 19.6535 18.1369 19.6383 18.0892L21.5433 17.4803ZM21.4733 18.8846C21.6658 18.4404 21.6907 17.9415 21.5433 17.4803L19.6383 18.0892L19.6383 18.0892L21.4733 18.8846ZM20.725 19.8309C20.8697 19.6862 21.0131 19.5436 21.1266 19.4138C21.2467 19.2765 21.3776 19.1053 21.4733 18.8846L19.6383 18.0892C19.6582 18.0433 19.6742 18.0365 19.6213 18.0969C19.5619 18.1648 19.4742 18.2532 19.3108 18.4167L20.725 19.8309ZM19.8314 20.7245L20.725 19.8309L19.3108 18.4167L18.4172 19.3102L19.8314 20.7245ZM18.8849 21.4729C19.1056 21.3773 19.2769 21.2463 19.4142 21.1262C19.544 21.0126 19.6867 20.8692 19.8314 20.7245L18.4172 19.3103C18.2537 19.4737 18.1653 19.5614 18.0974 19.6209C18.0369 19.6737 18.0437 19.6577 18.0897 19.6378L18.8849 21.4729ZM17.481 21.5429C17.942 21.6902 18.4408 21.6653 18.8849 21.4729L18.0897 19.6378H18.0897L17.481 21.5429ZM16.4647 20.8924C16.6231 21.022 16.7793 21.1505 16.9198 21.2506C17.0684 21.3565 17.2519 21.4697 17.481 21.5429L18.0897 19.6378C18.1374 19.653 18.1457 19.6683 18.0803 19.6217C18.0068 19.5693 17.9101 19.4909 17.7312 19.3445L16.4647 20.8924ZM16.4732 20.8993L16.4732 20.8993L17.7226 19.3376L17.7226 19.3375L16.4732 20.8993ZM15.7262 20.2881C15.6228 20.2742 15.6111 20.2341 15.7738 20.3472C15.9286 20.4547 16.1324 20.6205 16.4647 20.8924L17.7311 19.3445C17.425 19.0939 17.1499 18.8679 16.9152 18.7048C16.6886 18.5473 16.3769 18.3577 15.9928 18.306L15.7262 20.2881ZM15.7262 20.2881H15.7262L15.9928 18.306C15.2807 18.2102 14.5719 18.5038 14.136 19.0751L15.7262 20.2881ZM15.6312 21.2378C15.6739 20.8105 15.7008 20.5492 15.7342 20.3636C15.7693 20.1685 15.7894 20.2052 15.7262 20.2882L14.136 19.0751C13.901 19.3832 13.8147 19.7378 13.7658 20.0094C13.7152 20.2907 13.6805 20.6451 13.6411 21.0388L15.6312 21.2378ZM15.3724 22.417C15.4828 22.2031 15.5324 21.9932 15.5626 21.8132C15.5912 21.643 15.6108 21.4415 15.6312 21.2378L13.6411 21.0388C13.6181 21.269 13.6052 21.3929 13.5902 21.482C13.5769 21.5612 13.572 21.5445 13.595 21.5L15.3724 22.417ZM14.3306 23.3598C14.7805 23.1819 15.1506 22.8469 15.3724 22.417L13.595 21.5L13.595 21.5L14.3306 23.3598ZM13.1316 23.5C13.3363 23.5 13.5387 23.5005 13.7109 23.489C13.893 23.4768 14.1068 23.4483 14.3306 23.3598L13.595 21.5C13.6416 21.4816 13.6577 21.4881 13.5776 21.4935C13.4875 21.4995 13.3629 21.5 13.1316 21.5V23.5ZM11.8682 23.5H13.1316V21.5H11.8682V23.5ZM10.6696 23.3599C10.8933 23.4484 11.107 23.4769 11.2891 23.489C11.4613 23.5005 11.6636 23.5 11.8682 23.5V21.5C11.637 21.5 11.5125 21.4995 11.4224 21.4935C11.3423 21.4881 11.3584 21.4816 11.405 21.5L10.6696 23.3599ZM9.6275 22.4168C9.84933 22.8469 10.2196 23.182 10.6696 23.3599L11.405 21.5L9.6275 22.4168ZM9.36882 21.2381C9.38918 21.4417 9.4088 21.6431 9.43737 21.8132C9.46759 21.9932 9.51721 22.203 9.6275 22.4168L11.405 21.5C11.4279 21.5445 11.4231 21.5612 11.4098 21.482C11.3948 21.393 11.3819 21.2691 11.3589 21.039L9.36882 21.2381ZM9.27387 20.2885C9.2106 20.2056 9.23073 20.1689 9.26584 20.364C9.29922 20.5495 9.32609 20.8108 9.36882 21.2381L11.3589 21.039C11.3195 20.6454 11.2848 20.291 11.2342 20.0098C11.1853 19.7381 11.099 19.3836 10.864 19.0755L9.27387 20.2885ZM9.27387 20.2885L10.864 19.0755C10.4282 18.5042 9.71939 18.2106 9.00728 18.3064L9.27387 20.2885ZM8.53531 20.8928C8.86763 20.6209 9.0714 20.4551 9.22619 20.3476C9.38895 20.2345 9.37724 20.2746 9.27387 20.2885L9.00727 18.3064C8.62318 18.358 8.31149 18.5477 8.08481 18.7052C7.85015 18.8683 7.57504 19.0944 7.26884 19.3449L8.53531 20.8928ZM8.56643 20.8663L8.56644 20.8663L7.23771 19.3714L7.2377 19.3715L8.56643 20.8663ZM7.51887 21.5434C7.74807 21.4702 7.9315 21.3569 8.08013 21.251C8.22064 21.1509 8.37691 21.0224 8.5353 20.8928L7.26883 19.3449C7.08988 19.4913 6.99316 19.5698 6.91963 19.6222C6.85422 19.6688 6.86258 19.6535 6.91029 19.6383L7.51887 21.5434ZM6.11515 21.4734C6.55919 21.6658 7.05791 21.6907 7.51887 21.5434L6.91029 19.6383L6.91029 19.6383L6.11515 21.4734ZM5.1685 20.7249C5.31321 20.8696 5.45592 21.013 5.58577 21.1266C5.72313 21.2468 5.89438 21.3777 6.11515 21.4734L6.91029 19.6383C6.95624 19.6582 6.96304 19.6742 6.90259 19.6213C6.83464 19.5619 6.7462 19.4742 6.58271 19.3107L5.1685 20.7249ZM4.27506 19.8315L5.1685 20.7249L6.58271 19.3107L5.68927 18.4172L4.27506 19.8315ZM3.52657 18.8848C3.62223 19.1056 3.75318 19.2768 3.87333 19.4142C3.98692 19.544 4.13036 19.6868 4.27506 19.8315L5.68928 18.4172C5.52579 18.2538 5.43809 18.1653 5.37864 18.0974C5.32577 18.0369 5.3418 18.0437 5.36171 18.0897L3.52657 18.8848ZM3.45656 17.4811C3.3093 17.9421 3.33417 18.4408 3.52657 18.8848L5.36171 18.0897V18.0897L3.45656 17.4811ZM4.10715 16.4647C3.97756 16.623 3.84903 16.7793 3.74892 16.9198C3.64303 17.0684 3.52977 17.2519 3.45656 17.4811L5.36171 18.0897C5.34647 18.1374 5.33119 18.1457 5.37779 18.0803C5.43018 18.0068 5.50865 17.9101 5.65506 17.7311L4.10715 16.4647ZM4.7114 15.7261C4.7253 15.6228 4.76548 15.6111 4.65237 15.7738C4.5448 15.9286 4.37903 16.1324 4.10715 16.4647L5.65506 17.7311C5.90558 17.4249 6.13162 17.1498 6.29469 16.9152C6.45222 16.6885 6.64188 16.3768 6.69355 15.9928L4.7114 15.7261ZM4.7114 15.7261L4.7114 15.7261L6.69355 15.9928C6.78934 15.2806 6.49575 14.5718 5.92445 14.136L4.7114 15.7261ZM3.76193 15.6312C4.18915 15.6739 4.45044 15.7008 4.63595 15.7342C4.83101 15.7693 4.79432 15.7894 4.7114 15.7261L5.92445 14.136C5.61633 13.9009 5.26184 13.8147 4.99017 13.7658C4.70894 13.7152 4.35458 13.6805 3.96093 13.6411L3.76193 15.6312ZM2.58323 15.3725C2.79705 15.4828 3.00683 15.5324 3.1868 15.5626C3.35693 15.5912 3.55831 15.6108 3.76193 15.6312L3.96094 13.6411C3.73089 13.6181 3.60701 13.6052 3.51798 13.5902C3.43878 13.5769 3.45549 13.5721 3.5 13.595L2.58323 15.3725ZM1.64009 14.3304C1.81803 14.7804 2.15311 15.1507 2.58323 15.3725L3.5 13.595H3.5L1.64009 14.3304ZM1.5 13.1318C1.5 13.3364 1.49948 13.5387 1.51098 13.7109C1.52314 13.893 1.55163 14.1066 1.64009 14.3304L3.5 13.595C3.51841 13.6416 3.51188 13.6577 3.50653 13.5776C3.50052 13.4875 3.5 13.363 3.5 13.1318H1.5ZM1.5 11.8683V13.1318H3.5V11.8683H1.5ZM1.64017 10.6694C1.55166 10.8932 1.52315 11.107 1.51098 11.2891C1.49948 11.4613 1.5 11.6637 1.5 11.8683H3.5C3.5 11.6371 3.50052 11.5125 3.50654 11.4224C3.51189 11.3423 3.51842 11.3584 3.5 11.405L1.64017 10.6694ZM2.58305 9.62757C2.15308 9.84939 1.8181 10.2195 1.64017 10.6694L3.5 11.405L3.5 11.405L2.58305 9.62757ZM3.76205 9.36881C3.55837 9.38917 3.35694 9.4088 3.18677 9.43737C3.00676 9.4676 2.79692 9.51724 2.58305 9.62757L3.5 11.405C3.45548 11.428 3.43877 11.4231 3.51798 11.4098C3.60704 11.3948 3.73094 11.3819 3.96105 11.3589L3.76205 9.36881ZM3.86155 9.36384H3.86155V11.3638H3.86155V9.36384ZM3.86156 9.36384H3.86155V11.3638H3.86156V9.36384ZM4.71177 9.27383C4.79471 9.21055 4.83141 9.23069 4.6363 9.2658C4.45075 9.2992 4.18939 9.32607 3.76205 9.36881L3.96106 11.3589C4.35482 11.3195 4.70927 11.2848 4.99056 11.2342C5.26231 11.1853 5.6169 11.0989 5.92506 10.8638L4.71177 9.27383ZM4.71177 9.27383L4.71178 9.27383L5.92506 10.8638C6.49613 10.428 6.78962 9.71944 6.69396 9.00749L4.71177 9.27383ZM4.10732 8.53506C4.37929 8.86746 4.54511 9.0713 4.65272 9.22614C4.76586 9.38895 4.72567 9.37724 4.71177 9.27383L6.69396 9.00749C6.64234 8.6233 6.45263 8.31151 6.29506 8.08478C6.13195 7.85006 5.90584 7.57487 5.65523 7.26858L4.10732 8.53506ZM3.45652 7.51822C3.52973 7.74751 3.64303 7.93102 3.74896 8.0797C3.8491 8.22027 3.97768 8.3766 4.10732 8.53506L5.65523 7.26858C5.50876 7.08956 5.43026 6.99279 5.37785 6.91923C5.33123 6.85379 5.34651 6.86215 5.36175 6.90988L3.45652 7.51822ZM3.52651 6.11498C3.33424 6.55887 3.30938 7.0574 3.45652 7.51822L5.36175 6.90988L3.52651 6.11498ZM4.27523 5.16798C4.13047 5.31274 3.98698 5.4555 3.87335 5.58539C3.75316 5.7228 3.62217 5.89412 3.52651 6.11498L5.36175 6.90988C5.34184 6.95585 5.3258 6.96265 5.3787 6.90219C5.43816 6.83421 5.52589 6.74574 5.68944 6.5822L4.27523 5.16798ZM5.16855 4.27466L4.27523 5.16798L5.68944 6.5822L6.58276 5.68888L5.16855 4.27466ZM5.16855 4.27466L5.16855 4.27466L6.58276 5.68888L6.58276 5.68887L5.16855 4.27466ZM6.1152 3.52616C5.89443 3.62181 5.72317 3.75276 5.58582 3.87292C5.45597 3.98651 5.31325 4.12995 5.16855 4.27466L6.58276 5.68887C6.74625 5.52538 6.83469 5.43768 6.90264 5.37824C6.96309 5.32536 6.95629 5.34139 6.91034 5.3613L6.1152 3.52616ZM7.51892 3.45614C7.05795 3.30889 6.55923 3.33377 6.1152 3.52615L6.91033 5.3613H6.91034L7.51892 3.45614ZM8.53543 4.10681C8.37702 3.97719 8.22073 3.84865 8.08021 3.74853C7.93158 3.64264 7.74813 3.52936 7.51892 3.45614L6.91034 5.3613C6.86262 5.34606 6.85426 5.33078 6.91969 5.3774C6.99324 5.4298 7.08999 5.50829 7.26896 5.65472L8.53543 4.10681ZM9.27391 4.71101C9.37727 4.72493 9.38897 4.76509 9.22621 4.65198C9.07144 4.54441 8.86769 4.37865 8.53543 4.10681L7.26896 5.65472C7.57512 5.90521 7.85018 6.13122 8.08477 6.29427C8.31138 6.45176 8.623 6.64141 9.00697 6.69312L9.27391 4.71101ZM9.27391 4.71101L9.27391 4.71101L9.00697 6.69312C9.71932 6.78905 10.4284 6.49536 10.8642 5.92382L9.27391 4.71101ZM9.36883 3.7618C9.32612 4.1889 9.29926 4.45012 9.26589 4.63558C9.2308 4.83059 9.21068 4.79392 9.27391 4.71101L10.8642 5.92382C11.0992 5.61576 11.1854 5.26136 11.2343 4.98976C11.2849 4.70861 11.3196 4.35435 11.3589 3.96081L9.36883 3.7618ZM9.62739 2.58341C9.51716 2.79719 9.46756 3.00692 9.43736 3.18683C9.4088 3.35692 9.38919 3.55824 9.36883 3.7618L11.3589 3.96081C11.3819 3.73082 11.3948 3.60698 11.4098 3.51798C11.423 3.4388 11.4279 3.4555 11.405 3.5L9.62739 2.58341ZM10.6698 1.64002C10.2196 1.81796 9.84924 2.15315 9.62739 2.58341L11.405 3.5L11.405 3.5L10.6698 1.64002ZM11.8681 1.5C11.6635 1.5 11.4612 1.49948 11.2892 1.51097C11.1071 1.52313 10.8935 1.55161 10.6698 1.64002L11.405 3.5C11.3584 3.5184 11.3423 3.51188 11.4224 3.50653C11.5125 3.50052 11.637 3.5 11.8681 3.5V1.5ZM13.1318 1.5H11.8681V3.5H13.1318V1.5ZM14.3304 1.6401C14.1066 1.55163 13.893 1.52314 13.7109 1.51098C13.5387 1.49948 13.3364 1.5 13.1318 1.5V3.5C13.363 3.5 13.4875 3.50052 13.5776 3.50653C13.6577 3.51188 13.6416 3.51841 13.595 3.5L14.3304 1.6401ZM15.3725 2.58322C15.1507 2.15312 14.7804 1.81803 14.3304 1.6401L13.595 3.5L13.595 3.5L15.3725 2.58322ZM15.5 12.5C15.5 14.1569 14.1569 15.5 12.5 15.5V17.5C15.2614 17.5 17.5 15.2614 17.5 12.5H15.5ZM12.5 9.5C14.1569 9.5 15.5 10.8431 15.5 12.5H17.5C17.5 9.73858 15.2614 7.5 12.5 7.5V9.5ZM9.5 12.5C9.5 10.8431 10.8431 9.5 12.5 9.5V7.5C9.73858 7.5 7.5 9.73858 7.5 12.5H9.5ZM12.5 15.5C10.8431 15.5 9.5 14.1569 9.5 12.5H7.5C7.5 15.2614 9.73858 17.5 12.5 17.5V15.5Z" fill="#8C8FA7"/>
</svg>
