<svg width="41" height="44" viewBox="0 0 41 44" fill="none" xmlns="http://www.w3.org/2000/svg">
<circle cx="25.674" cy="30" r="12.5" stroke="#8C8FA7" stroke-width="3"/>
<path fill-rule="evenodd" clip-rule="evenodd" d="M25.6291 15.0001C25.6588 14.6707 25.674 14.3371 25.674 14C25.674 7.92487 20.7491 3 14.674 3C8.59882 3 3.67395 7.92487 3.67395 14C3.67395 19.0373 7.05995 23.2838 11.6801 24.5877C11.3226 25.5114 11.0539 26.4794 10.8845 27.4811C4.99363 25.8286 0.67395 20.4188 0.67395 14C0.67395 6.26801 6.94196 0 14.674 0C22.4059 0 28.674 6.26801 28.674 14C28.674 14.4343 28.6542 14.8641 28.6155 15.2883C27.6643 15.0992 26.6807 15 25.674 15C25.659 15 25.644 15 25.6291 15.0001Z" fill="#8C8FA7"/>
<path d="M25.7376 39C25.4495 39 25.2159 38.7665 25.2159 38.4784V21.5216C25.2159 21.2335 25.4495 21 25.7376 21C26.0257 21 26.2592 21.2335 26.2592 21.5216V38.4784C26.2592 38.7665 26.0257 39 25.7376 39ZM29.2967 26.7586C28.6887 26.7586 28.2246 26.2574 27.8821 25.755C27.7718 25.5932 27.6358 25.4496 27.4742 25.3242C27.0374 24.982 26.4691 24.8109 25.7694 24.8109C25.2774 24.8109 24.8555 24.893 24.5035 25.057C24.1515 25.2211 23.8822 25.4437 23.6956 25.725C23.509 26.0063 23.4136 26.3273 23.4093 26.6883C23.4093 26.9883 23.4708 27.2484 23.5938 27.4688C23.721 27.6891 23.8928 27.8766 24.1091 28.0312C24.3254 28.1812 24.565 28.3078 24.8279 28.4109C25.0908 28.5141 25.3559 28.6008 25.6231 28.6711L26.8444 29.0086C27.3364 29.1352 27.8092 29.3062 28.263 29.5219C28.721 29.7375 29.1303 30.0094 29.4907 30.3375C29.8555 30.6656 30.1438 31.0617 30.3559 31.5258C30.5679 31.9898 30.674 32.5336 30.674 33.157C30.674 34.0008 30.4789 34.7437 30.0887 35.3859C29.6985 36.0234 29.1345 36.5227 28.3966 36.8836C27.6629 37.2398 26.7745 37.418 25.7312 37.418C24.7176 37.418 23.8376 37.2445 23.0913 36.8977C22.3491 36.5508 21.7681 36.0445 21.3483 35.3789C21.1205 35.0141 20.9501 34.6057 20.8369 34.1537C20.675 33.5066 21.2276 32.9461 21.8947 32.9461C22.5145 32.9461 22.9825 33.4586 23.2869 33.9986C23.326 34.068 23.3689 34.1344 23.4157 34.1977C23.6617 34.5305 23.9818 34.7789 24.3762 34.943C24.7749 35.107 25.2202 35.1891 25.7121 35.1891C26.2253 35.1891 26.6748 35.1047 27.0607 34.9359C27.4509 34.7625 27.7562 34.5234 27.9767 34.2187C28.1973 33.9094 28.3097 33.5484 28.3139 33.1359C28.3097 32.7609 28.21 32.4516 28.0149 32.2078C27.8198 31.9594 27.5463 31.7531 27.1943 31.5891C26.8466 31.4203 26.4394 31.2703 25.9729 31.1391L24.4907 30.7172C23.4178 30.4125 22.5696 29.9508 21.9462 29.332C21.327 28.7086 21.0175 27.8812 21.0175 26.85C21.0175 26.0016 21.2253 25.2586 21.6409 24.6211C22.0607 23.9836 22.6311 23.4891 23.3521 23.1375C24.073 22.7813 24.8894 22.6031 25.8012 22.6031C26.7257 22.6031 27.5357 22.7813 28.2312 23.1375C28.9309 23.4891 29.4801 23.9789 29.8788 24.607C30.0713 24.9081 30.2188 25.2311 30.3214 25.576C30.5092 26.2078 29.9559 26.7586 29.2967 26.7586Z" fill="#8C8FA7"/>
<path d="M18.6731 10C19.0731 10.8 19.8398 10.6667 20.1731 10.5C20.6723 10 20.674 9.5 20.674 9C20.674 8.5 19.674 6 15.674 6C11.674 6 11.1736 9 10.6736 10.5C10.1736 12 10.6733 15.5 10.6736 16.5C10.674 18.5 12.0069 20.1667 12.6736 21L13.174 21.5L14.674 20L14.1736 19.5C14.0068 19.1667 13.4329 17.2768 13.174 16.5C13.0073 16 12.8204 11.5607 13.174 10.5C13.674 9 14.674 8 16.174 8C17.6731 8 18.1726 8.99885 18.6723 9.99827L18.6731 10Z" fill="#8C8FA7"/>
<line x1="8.67395" y1="12.5" x2="16.674" y2="12.5" stroke="#8C8FA7"/>
<line x1="8.67395" y1="15.5" x2="16.674" y2="15.5" stroke="#8C8FA7"/>
<path d="M39.174 18.5V8.5C39.174 7.39543 38.2785 6.5 37.174 6.5H31.174" stroke="#8C8FA7" stroke-width="2"/>
<path d="M1.67395 26.5L1.67395 35.5C1.67395 36.6046 2.56938 37.5 3.67395 37.5L9.67395 37.5" stroke="#8C8FA7" stroke-width="2"/>
</svg>
