<svg width="44" height="40" viewBox="0 0 44 40" fill="none" xmlns="http://www.w3.org/2000/svg">
<path d="M38.0067 7.92975C37.9493 7.65964 37.6838 7.48722 37.4137 7.54463L20.0439 11.2365C19.7762 11.2934 19.604 11.5551 19.6576 11.8235L22.1037 24.0649C22.127 24.1818 22.1914 24.2865 22.2851 24.3601L25.0937 26.5669C25.2107 26.6589 25.3626 26.6939 25.5081 26.6625L40.779 23.3693C41.0483 23.3112 41.2199 23.0461 41.1626 22.7766L38.0067 7.92975Z" fill="#8C8FA7" stroke="#8C8FA7"/>
<ellipse cx="3.97436" cy="3.97417" rx="3.97436" ry="3.97417" transform="matrix(-1 0 0 1 22.4603 30.5459)" stroke="#8C8FA7" stroke-width="3"/>
<path d="M42.4529 27.4611C42.9916 27.3394 43.527 27.6775 43.6486 28.2162C43.7703 28.7549 43.4323 29.2903 42.8936 29.4119L42.4529 27.4611ZM42.8936 29.4119L25.432 33.356L24.9913 31.4051L42.4529 27.4611L42.8936 29.4119Z" fill="#8C8FA7"/>
<path d="M1.67455 2.50488C1.12227 2.50488 0.674551 2.05717 0.674551 1.50488C0.674551 0.952598 1.12227 0.504883 1.67455 0.504883V2.50488ZM17.7513 25.1702L17.9863 26.1422L16.0424 26.6123L15.8073 25.6403L17.7513 25.1702ZM11.369 3.03474L12.341 2.79967L11.369 3.03474ZM1.67455 0.504883H9.42504V2.50488H1.67455V0.504883ZM12.341 2.79967L17.7513 25.1702L15.8073 25.6403L10.397 3.26981L12.341 2.79967ZM9.42504 0.504883C10.8102 0.504883 12.0154 1.45328 12.341 2.79967L10.397 3.26981C10.2885 2.82101 9.88678 2.50488 9.42504 2.50488V0.504883Z" fill="#8C8FA7"/>
</svg>
