<svg width="42" height="42" viewBox="0 0 42 42" fill="none" xmlns="http://www.w3.org/2000/svg">
<mask id="path-1-inside-1_2570_17205" fill="white">
<path d="M0.174805 23.8721H9.2267C9.77899 23.8721 10.2267 24.3198 10.2267 24.8721V40.1039C10.2267 40.6562 9.77899 41.1039 9.2267 41.1039H0.174805V23.8721Z"/>
</mask>
<path d="M0.174805 23.8721H9.2267C9.77899 23.8721 10.2267 24.3198 10.2267 24.8721V40.1039C10.2267 40.6562 9.77899 41.1039 9.2267 41.1039H0.174805V23.8721Z" stroke="#8C8FA7" stroke-width="6" mask="url(#path-1-inside-1_2570_17205)"/>
<path d="M9.50867 27.4627C10.2215 26.7457 12.3961 25.309 14.5346 26.0264C17.386 26.745 18.1451 28.1814 20.9965 28.1814C23.2777 28.1814 25.3045 27.4627 26.4371 27.4627C26.9124 27.9414 27.5777 30.6207 26.4371 31.7695C25.2966 32.9182 20.5059 32.7286 18.8426 32.4893" stroke="#8C8FA7" stroke-width="2"/>
<path d="M9.50867 37.5139C13.5482 37.7533 23.8699 38.088 25.0105 37.5136C26.4362 36.7956 39.1927 30.3334 39.9056 28.8973C40.6184 27.4613 39.9056 25.3077 37.767 26.0253C36.7344 26.3718 32.139 28.8979 30.7133 29.6159L25.0105 32.488" stroke="#8C8FA7" stroke-width="2"/>
<path d="M24.7573 17.8478V6.02965H25.5144V17.8478H24.7573ZM26.9409 9.81055C26.8978 9.40737 26.7162 9.09345 26.3962 8.86879C26.0792 8.64412 25.6668 8.53178 25.1589 8.53178C24.8019 8.53178 24.4957 8.58564 24.2403 8.69336C23.9848 8.80108 23.7894 8.94727 23.654 9.13192C23.5186 9.31658 23.4493 9.5274 23.4462 9.76438C23.4462 9.96135 23.4909 10.1322 23.5801 10.2768C23.6724 10.4215 23.7971 10.5446 23.954 10.6461C24.111 10.7446 24.2849 10.8277 24.4757 10.8954C24.6665 10.9631 24.8589 11.0201 25.0528 11.0662L25.9391 11.2878C26.2961 11.3709 26.6393 11.4833 26.9686 11.6248C27.301 11.7664 27.598 11.9449 27.8596 12.1603C28.1243 12.3758 28.3335 12.6358 28.4874 12.9405C28.6413 13.2452 28.7183 13.6022 28.7183 14.0115C28.7183 14.5655 28.5767 15.0533 28.2935 15.475C28.0104 15.8935 27.6011 16.2213 27.0656 16.4583C26.5331 16.6922 25.8884 16.8091 25.1312 16.8091C24.3957 16.8091 23.7571 16.6953 23.2154 16.4675C22.6768 16.2398 22.2552 15.9074 21.9505 15.4703C21.6489 15.0333 21.4858 14.5009 21.4611 13.873H23.1462C23.1708 14.2024 23.2723 14.4763 23.4509 14.6948C23.6294 14.9133 23.8617 15.0764 24.1479 15.1841C24.4372 15.2918 24.7604 15.3457 25.1174 15.3457C25.4898 15.3457 25.816 15.2903 26.0961 15.1795C26.3792 15.0656 26.6008 14.9087 26.7609 14.7086C26.9209 14.5055 27.0025 14.2685 27.0055 13.9977C27.0025 13.7515 26.9301 13.5484 26.7886 13.3883C26.647 13.2252 26.4485 13.0898 26.193 12.9821C25.9407 12.8713 25.6452 12.7728 25.3067 12.6866L24.231 12.4096C23.4524 12.2096 22.8369 11.9064 22.3844 11.5002C21.9351 11.0908 21.7104 10.5476 21.7104 9.87056C21.7104 9.31351 21.8612 8.8257 22.1629 8.40714C22.4675 7.98858 22.8815 7.66388 23.4047 7.43306C23.9279 7.19916 24.5203 7.08221 25.182 7.08221C25.853 7.08221 26.4408 7.19916 26.9455 7.43306C27.4533 7.66388 27.8519 7.9855 28.1412 8.3979C28.4305 8.80723 28.5798 9.27811 28.589 9.81055H26.9409Z" fill="#8C8FA7"/>
<rect x="15.3215" y="1.89648" width="19.5398" height="19.5398" rx="9.76989" stroke="#8C8FA7" stroke-width="2"/>
</svg>
