<svg width="68" height="68" viewBox="0 0 68 68" fill="none" xmlns="http://www.w3.org/2000/svg">
<rect width="17" height="17" rx="2.83333" transform="matrix(1 0 0 -1 39.6666 28.333)" fill="#8C8FA7" stroke="#8C8FA7" stroke-width="2" stroke-linecap="round"/>
<path d="M28.3334 39.667H39.6667C42.338 39.667 43.6736 39.667 44.5035 40.4969C45.3334 41.3267 45.3334 42.6624 45.3334 45.3337V51.0003C45.3334 53.6716 45.3334 55.0073 44.5035 55.8371C43.6736 56.667 42.338 56.667 39.6667 56.667H28.3334V39.667Z" stroke="#8C8FA7" stroke-width="2" stroke-linecap="round"/>
<path d="M28.3334 28.3337C28.3334 25.6624 28.3334 24.3267 27.5035 23.4969C26.6736 22.667 25.338 22.667 22.6667 22.667H17C14.3287 22.667 12.9931 22.667 12.1632 23.4969C11.3334 24.3267 11.3334 25.6624 11.3334 28.3337V39.667H28.3334V28.3337Z" stroke="#8C8FA7" stroke-width="2" stroke-linecap="round"/>
<path d="M28.3334 56.667H17C14.3287 56.667 12.9931 56.667 12.1632 55.8371C11.3334 55.0073 11.3334 53.6716 11.3334 51.0003V39.667H28.3334V56.667Z" stroke="#8C8FA7" stroke-width="2" stroke-linecap="round"/>
</svg>
