<svg width="68" height="69" viewBox="0 0 68 69" fill="none" xmlns="http://www.w3.org/2000/svg">
<circle cx="34" cy="34.5" r="25.5" stroke="#8C8FA7" stroke-width="2"/>
<path d="M34.1441 51.5C33.4912 51.5 32.9618 50.9706 32.9618 50.3176V18.6824C32.9618 18.0294 33.4912 17.5 34.1441 17.5C34.7971 17.5 35.3265 18.0294 35.3265 18.6824V50.3176C35.3265 50.9706 34.7971 51.5 34.1441 51.5ZM42.1828 28.3773C40.8143 28.3773 39.7476 27.2181 38.7893 26.2411C38.5839 26.0317 38.3477 25.8407 38.0805 25.668C37.0904 25.0216 35.8023 24.6984 34.2162 24.6984C33.1012 24.6984 32.1447 24.8534 31.3469 25.1633C30.549 25.4732 29.9386 25.8938 29.5157 26.425C29.0927 26.9563 28.8764 27.5628 28.8668 28.2445C28.8668 28.8112 29.0062 29.3026 29.2849 29.7188C29.5733 30.1349 29.9626 30.4891 30.4529 30.7813C30.9431 31.0646 31.4862 31.3036 32.0822 31.4984C32.6782 31.6932 33.279 31.857 33.8846 31.9898L36.6531 32.6273C37.7681 32.8664 38.8399 33.1896 39.8685 33.5969C40.9067 34.0042 41.8343 34.5177 42.6514 35.1375C43.478 35.7573 44.1317 36.5055 44.6123 37.382C45.093 38.2586 45.3333 39.2857 45.3333 40.4633C45.3333 42.057 44.8911 43.4604 44.0067 44.6734C43.1224 45.8776 41.8439 46.8206 40.1713 47.5023C38.5083 48.1753 36.4944 48.5117 34.1297 48.5117C31.8323 48.5117 29.8377 48.1841 28.1458 47.5289C26.4636 46.8737 25.1467 45.9174 24.195 44.6602C23.7716 44.0951 23.4356 43.4746 23.187 42.7986C22.6611 41.3688 23.9371 40.0648 25.4606 40.0648C26.8553 40.0648 27.9101 41.259 28.7994 42.3334C28.8261 42.3657 28.8533 42.3975 28.8812 42.4289C29.4387 43.0576 30.1645 43.5268 31.0585 43.8367C31.9621 44.1466 32.9714 44.3016 34.0865 44.3016C35.2496 44.3016 36.2685 44.1422 37.1433 43.8234C38.0277 43.4958 38.7198 43.0443 39.2196 42.4688C39.7195 41.8844 39.9742 41.2026 39.9838 40.4234C39.9742 39.7151 39.7483 39.1307 39.3062 38.6703C38.864 38.201 38.244 37.8115 37.4461 37.5016C36.6579 37.1828 35.735 36.8995 34.6777 36.6516L31.318 35.8547C28.886 35.2792 26.9635 34.407 25.5504 33.2383C24.147 32.0607 23.4453 30.4979 23.4453 28.55C23.4453 26.9474 23.9163 25.544 24.8583 24.3398C25.81 23.1357 27.1029 22.2016 28.737 21.5375C30.3712 20.8646 32.2216 20.5281 34.2883 20.5281C36.3839 20.5281 38.2199 20.8646 39.7964 21.5375C41.3825 22.2016 42.6273 23.1268 43.5309 24.3133C43.8688 24.7536 44.1455 25.2187 44.3611 25.7086C44.9687 27.0893 43.6914 28.3773 42.1828 28.3773Z" fill="#8C8FA7"/>
</svg>
