<svg width="41" height="40" viewBox="0 0 41 40" fill="none" xmlns="http://www.w3.org/2000/svg">
<path d="M18.174 2.16117L18.674 1L20.174 0.5L21.674 1L22.174 2.16117V35.5H28.674L30.174 36L30.674 37.5L30.174 39L28.674 39.5H22.174H18.174H11.674L10.174 39L9.67395 37.5L10.174 36L11.674 35.5H18.174V2.16117Z" fill="#8C8FA7"/>
<path d="M0.17395 28.5C0.17395 27.9477 0.621665 27.5 1.17395 27.5H15.174C15.7262 27.5 16.174 27.9477 16.174 28.5V29C16.174 29 14.174 31.5 13.174 32C12.174 32.5 10.674 33.5 10.174 33.5C9.67395 33.5 6.67395 33.5 6.17395 33.5C5.67395 33.5 3.17395 32.5 2.17395 31.5C1.17395 30.5 0.17395 29 0.17395 29V28.5Z" fill="#8C8FA7"/>
<path d="M24.174 22.5C24.174 21.9477 24.6217 21.5 25.174 21.5H39.174C39.7262 21.5 40.174 21.9477 40.174 22.5V23C40.174 23 38.174 25.5 37.174 26C36.174 26.5 34.674 27.5 34.174 27.5C33.674 27.5 30.674 27.5 30.174 27.5C29.674 27.5 27.174 26.5 26.174 25.5C25.174 24.5 24.174 23 24.174 23V22.5Z" fill="#8C8FA7"/>
<path d="M2.67395 27.5L8.17395 10.5M8.17395 10.5L31.674 4M8.17395 10.5L13.674 28M31.674 4L37.674 21.5M31.674 4L26.674 21.5" stroke="#8C8FA7" stroke-width="2" stroke-linecap="round"/>
</svg>
