<svg version="1.2" xmlns="http://www.w3.org/2000/svg" viewBox="0 0 41 37" width="41" height="37">
	<title>setup-category-svg</title>
	<style>
		.s0 { fill: none;stroke: #8c8fa7;stroke-linecap: round;stroke-width: 2 } 
		.s1 { fill: #8c8fa7;stroke: #8c8fa7;stroke-linecap: round;stroke-width: 2 } 
	</style>
	<path id="Layer" fill-rule="evenodd" class="s0" d="m27 12h13v18.3c0 2.7 0 4-0.8 4.9-0.9 0.8-2.2 0.8-4.9 0.8h-7.3z"/>
	<path id="Layer" fill-rule="evenodd" class="s0" d="m1 12h13v24h-7.3c-2.7 0-4 0-4.9-0.8-0.8-0.9-0.8-2.2-0.8-4.9z"/>
	<path id="Layer" class="s0" d="m14 12h13v24h-13z"/>
	<path id="Layer" class="s1" d="m1 6.7c0-2.7 0-4 0.8-4.9 0.9-0.8 2.2-0.8 4.9-0.8h27.6c2.7 0 4 0 4.9 0.8 0.8 0.9 0.8 2.2 0.8 4.9v5.3h-39z"/>
</svg>