<svg width="39" height="32" viewBox="0 0 39 32" fill="none" xmlns="http://www.w3.org/2000/svg">
<path fill-rule="evenodd" clip-rule="evenodd" d="M16.1937 5.16932L16.8475 4.48224V4.48222C16.761 3.6168 16.7177 3.18409 16.432 2.92554C16.1463 2.66699 15.7162 2.66699 14.856 2.66699H13.1427C12.2825 2.66699 11.8524 2.66699 11.5667 2.92554C11.281 3.18409 11.2377 3.61675 11.1512 4.48207C10.9859 6.13494 10.9032 6.96138 10.3504 7.19036C9.79762 7.41935 9.15469 6.89332 7.86884 5.84126L7.86884 5.84126L7.86884 5.84125L7.86883 5.84125L7.86883 5.84125C7.19567 5.29048 6.85909 5.0151 6.47425 5.03429C6.08942 5.05349 5.78529 5.35761 5.17704 5.96587L3.96549 7.17741C3.35724 7.78566 3.05311 8.08979 3.03392 8.47463C3.01473 8.85946 3.29016 9.1961 3.84101 9.86937L3.84102 9.86937C4.89326 11.1554 5.41938 11.7985 5.1904 12.3513C4.96142 12.9041 4.13475 12.9868 2.48142 13.1521C1.61588 13.2387 1.18311 13.2819 0.924563 13.5676C0.666016 13.8533 0.666016 14.2834 0.666016 15.1436V16.857C0.666016 17.7172 0.666016 18.1473 0.924563 18.433C1.18311 18.7187 1.61582 18.762 2.48124 18.8485H2.48126C4.13436 19.0138 4.96092 19.0965 5.1899 19.6493C5.41888 20.2021 4.89286 20.845 3.84081 22.1309C3.29005 22.804 3.01467 23.1406 3.03386 23.5254C3.05305 23.9103 3.35718 24.2144 3.96544 24.8226L5.17698 26.0342L5.17699 26.0342C5.78524 26.6425 6.08936 26.9466 6.4742 26.9658C6.85903 26.985 7.19561 26.7096 7.86878 26.1588C9.15463 25.1067 9.79756 24.5807 10.3504 24.8097C10.9032 25.0387 10.9858 25.8653 11.1512 27.5184C11.2377 28.3838 11.281 28.8166 11.5667 29.0751C11.8524 29.3337 12.2825 29.3337 13.1427 29.3337H14.856C15.7162 29.3337 16.1463 29.3337 16.432 29.0751C16.5702 28.9501 16.6516 28.7844 16.7087 28.5487C16.6699 28.5751 16.6314 28.6002 16.5935 28.6239C16.2874 28.8153 15.9013 28.9883 15.4244 28.9645C14.9496 28.9408 14.5841 28.733 14.2984 28.5126C14.0465 28.3181 13.7786 28.0502 13.5058 27.7772L13.5058 27.7772L13.4699 27.7413L12.2583 26.5298L12.2224 26.4939C11.9495 26.221 11.6815 25.9532 11.4871 25.7012C11.2667 25.4156 11.0588 25.05 11.0351 24.5752C11.0113 24.0983 11.1843 23.7122 11.3757 23.4061C11.5453 23.1348 11.7872 22.8393 12.0347 22.5369L12.0669 22.4976C12.6142 21.8287 12.9506 21.4134 13.1383 21.1006L13.1507 21.0798L13.1272 21.0738C12.7733 20.9853 12.2418 20.9296 11.3818 20.8436L11.3313 20.8385C10.9425 20.7997 10.5624 20.7618 10.2506 20.6899C9.89888 20.6088 9.50351 20.458 9.18311 20.104C8.86415 19.7516 8.75265 19.3461 8.70654 18.9883C8.66585 18.6726 8.66593 18.2937 8.66601 17.9077L8.66602 17.857V16.1436L8.66601 16.0929C8.66593 15.707 8.66585 15.328 8.70654 15.0124C8.75265 14.6546 8.86415 14.2491 9.18311 13.8966C9.50353 13.5426 9.89893 13.3919 10.2507 13.3108C10.5625 13.2389 10.9426 13.2009 11.3314 13.1621L11.3315 13.1621L11.3819 13.1571C12.2421 13.0711 12.7737 13.0153 13.1276 12.9268L13.1512 12.9208L13.1387 12.8999C12.951 12.5871 12.6145 12.1717 12.0671 11.5026L12.0349 11.4634C11.7874 11.1609 11.5455 10.8653 11.3758 10.594C11.1844 10.2879 11.0114 9.90175 11.0352 9.42481C11.0588 8.95006 11.2667 8.58449 11.4871 8.29888C11.6816 8.0469 11.9496 7.77901 12.2225 7.50617L12.2584 7.4703L13.4699 6.25876L13.5058 6.22288C13.7786 5.94993 14.0465 5.68193 14.2985 5.48749C14.5841 5.2671 14.9497 5.05921 15.4244 5.03553C15.7134 5.02112 15.969 5.07894 16.1937 5.16932ZM13.2951 9.26711C13.1956 9.37112 13.1244 9.4509 13.0705 9.52072L13.0667 9.52572L13.0716 9.53369C13.1652 9.68344 13.3227 9.87895 13.615 10.2361L13.6617 10.2933C13.9433 10.6374 14.2073 10.9599 14.4325 11.2587L13.2951 9.26711ZM11.1512 15.1919C10.9479 15.2147 10.8086 15.2346 10.7001 15.2596L10.691 15.2618L10.6901 15.268C10.668 15.4401 10.666 15.6868 10.666 16.1436V17.857C10.666 18.3139 10.668 18.5606 10.6901 18.7326L10.691 18.7389L10.7 18.741C10.8721 18.7807 11.1216 18.8076 11.5808 18.8535L11.6542 18.8608C12.2482 18.9202 12.7924 18.9745 13.2465 19.0562L13.1427 19.0002L11.1512 18.0002V15.1919ZM14.9628 19.9805C14.9712 19.9933 14.9795 20.0063 14.9876 20.0194L14.9995 20.0002L14.9628 19.9805ZM13.5197 23.8804L13.9995 25.0002L15.8861 26.6682C15.7336 26.7896 15.6249 26.8708 15.5332 26.9281L15.5253 26.933L15.5203 26.9292C15.383 26.8232 15.2071 26.6501 14.8841 26.3271L13.6725 25.1155C13.3495 24.7925 13.1764 24.6167 13.0704 24.4793L13.0666 24.4743L13.0715 24.4664C13.1544 24.3338 13.2874 24.1653 13.5197 23.8804ZM13.2454 13.1171C13.2456 13.1182 13.2458 13.1187 13.2459 13.1188C13.2461 13.1189 13.2457 13.1163 13.2441 13.1108C13.2445 13.1137 13.245 13.1158 13.2454 13.1171ZM13.3512 12.8522C13.3554 12.8492 13.3579 12.8478 13.3581 12.8479C13.3583 12.8479 13.3562 12.8495 13.3512 12.8522ZM13.3576 21.1527C13.3574 21.1528 13.3549 21.1514 13.3507 21.1484C13.3557 21.1511 13.3578 21.1526 13.3576 21.1527ZM13.2446 20.8847C13.2443 20.886 13.2439 20.8877 13.2436 20.8898C13.2452 20.8843 13.2456 20.8817 13.2454 20.8819C13.2453 20.8819 13.245 20.8829 13.2446 20.8847ZM27.3327 16.9833C27.3235 14.5979 25.3869 12.667 22.9993 12.667C20.7446 12.667 18.8921 14.389 18.6852 16.5896L18.9995 18.433L20.9995 20.5002L22.1947 21.2591C22.4554 21.3081 22.7244 21.3337 22.9993 21.3337C23.0224 21.3337 23.0455 21.3335 23.0685 21.3331C23.3926 21.1057 23.9704 21.0116 24.8578 20.916C25.6439 20.5423 26.2996 19.9388 26.7382 19.1924C26.7562 19.1459 26.7737 19.1003 26.7907 19.056C26.9051 18.7581 26.9973 18.5179 27.0741 18.433C27.0835 18.4227 27.0925 18.4122 27.1012 18.4015C27.2485 17.97 27.3297 17.508 27.3326 17.0273C27.3326 17.0128 27.3326 16.9981 27.3327 16.9833ZM25.9975 11.4202C25.8541 11.2699 25.6949 11.1699 25.5174 11.1521C25.4806 11.1485 25.4443 11.1448 25.4083 11.1412C25.6101 11.2243 25.8067 11.3175 25.9975 11.4202ZM23.0678 10.6674C22.9473 10.5828 22.8619 10.4797 22.8087 10.3513L21.8679 10.7678C22.235 10.7016 22.6131 10.667 22.9993 10.667C23.0222 10.667 23.045 10.6671 23.0678 10.6674Z" fill="#8C8FA7"/>
<path d="M26.8488 4.48219L25.8538 4.58169V4.58169L26.8488 4.48219ZM27.6496 7.19073L28.0323 6.26685L28.0323 6.26685L27.6496 7.19073ZM30.1311 5.84167L29.4979 5.06772V5.06772L30.1311 5.84167ZM32.8229 5.96631L32.1158 6.67341L32.1158 6.67341L32.8229 5.96631ZM34.0345 7.17785L33.3274 7.88496L33.3509 7.9085L33.376 7.93043L34.0345 7.17785ZM34.0345 7.17786L34.7416 6.47076L34.718 6.44721L34.693 6.42528L34.0345 7.17786ZM34.966 8.47507L35.9648 8.42525L34.966 8.47507ZM34.159 9.86977L34.9329 10.503V10.503L34.159 9.86977ZM35.5177 13.1523L35.4182 14.1474H35.4182L35.5177 13.1523ZM37.0741 13.5678L37.8156 12.8968L37.8156 12.8968L37.0741 13.5678ZM37.0741 18.4332L37.8156 19.1042L37.8156 19.1042L37.0741 18.4332ZM35.5177 18.8487L35.6172 19.8437H35.6172L35.5177 18.8487ZM32.8095 19.6494L33.7333 20.0321V20.0321L32.8095 19.6494ZM34.1581 22.1304L34.9901 21.5757L34.963 21.535L34.932 21.4971L34.1581 22.1304ZM34.1581 22.1304L33.326 22.6851L33.3532 22.7258L33.3841 22.7636L34.1581 22.1304ZM34.9648 23.5247L35.9636 23.5745V23.5745L34.9648 23.5247ZM30.1303 26.1584L29.4971 26.9323L30.1303 26.1584ZM26.8488 27.5185L25.8538 27.419L26.8488 27.5185ZM26.4333 29.0751L27.1043 29.8166L27.1043 29.8166L26.4333 29.0751ZM21.568 29.0751L20.897 29.8166L20.897 29.8166L21.568 29.0751ZM21.1525 27.5183L20.1574 27.6178V27.6178L21.1525 27.5183ZM17.8701 26.1586L17.2368 25.3847L17.2368 25.3847L17.8701 26.1586ZM16.4755 26.9656L16.4257 27.9644H16.4257L16.4755 26.9656ZM15.1783 26.034L14.4257 26.6925L14.4476 26.7176L14.4712 26.7411L15.1783 26.034ZM15.1783 26.034L15.9309 25.3755L15.9089 25.3505L15.8854 25.3269L15.1783 26.034ZM13.9667 24.8225L14.6738 24.1154H14.6738L13.9667 24.8225ZM13.842 22.1308L14.616 22.7641L13.842 22.1308ZM15.1909 19.6496L14.267 20.0322H14.267L15.1909 19.6496ZM12.4816 18.8487L12.5811 17.8537H12.5811L12.4816 18.8487ZM10.9246 18.4332L11.666 17.7622H11.666L10.9246 18.4332ZM10.666 16.8572H9.66602H10.666ZM10.666 15.1438H11.666H10.666ZM10.9246 13.5678L10.1831 12.8968L10.1831 12.8968L10.9246 13.5678ZM12.4815 13.1523L12.382 12.1572H12.382L12.4815 13.1523ZM13.8411 9.86931L13.0671 10.5025L13.8411 9.86931ZM17.8692 5.84142L18.5025 5.06746H18.5025L17.8692 5.84142ZM20.3516 7.1912L20.7343 8.11508H20.7343L20.3516 7.1912ZM21.1525 4.48234L22.1475 4.58184V4.58184L21.1525 4.48234ZM21.568 2.92554L20.897 2.18409L20.897 2.18409L21.568 2.92554ZM27.8439 4.38269C27.8032 3.97641 27.7652 3.57689 27.6902 3.25158C27.6091 2.89984 27.4584 2.50448 27.1043 2.18409L25.7623 3.66699C25.694 3.60515 25.7078 3.55541 25.7413 3.70101C25.781 3.87304 25.8079 4.12257 25.8538 4.58169L27.8439 4.38269ZM28.0323 6.26685C28.2095 6.34026 28.163 6.48398 28.0741 6.12804C27.9856 5.77416 27.9299 5.2427 27.8439 4.38268L25.8538 4.58169C25.9331 5.37472 26.0013 6.08303 26.1337 6.61293C26.2656 7.14075 26.5369 7.81222 27.2669 8.11461L28.0323 6.26685ZM29.4979 5.06772C28.829 5.61504 28.4137 5.95144 28.1009 6.13914C27.7863 6.32795 27.8551 6.19344 28.0323 6.26685L27.2669 8.11461C27.997 8.41701 28.6636 8.13398 29.1301 7.85403C29.5984 7.57296 30.1475 7.12033 30.7644 6.61563L29.4979 5.06772ZM31.5755 4.03597C31.0986 4.01219 30.7125 4.18519 30.4064 4.37655C30.1233 4.55354 29.8139 4.80915 29.4979 5.06772L30.7644 6.61563C31.1215 6.32344 31.317 6.16599 31.4667 6.07239C31.5934 5.99317 31.5679 6.03808 31.4759 6.03349L31.5755 4.03597ZM33.53 5.2592C33.2448 4.97398 32.9645 4.69088 32.7014 4.48793C32.4158 4.26754 32.0503 4.05965 31.5755 4.03597L31.4759 6.03349C31.386 6.02901 31.3649 5.98278 31.4796 6.07131C31.6169 6.17729 31.7928 6.35038 32.1158 6.67341L33.53 5.2592ZM34.7416 6.47074L33.53 5.2592L32.1158 6.67341L33.3274 7.88496L34.7416 6.47074ZM34.693 6.42528L34.693 6.42527L33.376 7.93043L33.376 7.93044L34.693 6.42528ZM35.9648 8.42525C35.9411 7.9505 35.7332 7.58493 35.5128 7.29932C35.3099 7.03632 35.0268 6.75597 34.7416 6.47076L33.3274 7.88497C33.6504 8.20799 33.8235 8.38384 33.9295 8.52116C34.018 8.63589 33.9718 8.6148 33.9673 8.52488L35.9648 8.42525ZM34.9329 10.503C35.1915 10.1869 35.4472 9.8775 35.6242 9.59441C35.8155 9.28833 35.9886 8.90218 35.9648 8.42525L33.9673 8.52488C33.9627 8.43279 34.0076 8.40737 33.9284 8.53412C33.8347 8.68386 33.6772 8.87936 33.385 9.23653L34.9329 10.503ZM33.7335 11.9689C33.807 12.1462 33.6724 12.215 33.8613 11.9002C34.0491 11.5874 34.3855 11.1721 34.9329 10.503L33.385 9.23653C32.8802 9.85349 32.4275 10.4027 32.1465 10.871C31.8665 11.3375 31.5834 12.0042 31.8858 12.7343L33.7335 11.9689ZM35.6172 12.1573C34.7574 12.0713 34.226 12.0156 33.8723 11.9271C33.5165 11.8382 33.6602 11.7917 33.7335 11.9689L31.8858 12.7343C32.1882 13.4643 32.8595 13.7355 33.3873 13.8675C33.9172 13.9999 34.6254 14.0681 35.4182 14.1474L35.6172 12.1573ZM37.8156 12.8968C37.4952 12.5428 37.0999 12.3921 36.7482 12.311C36.4229 12.2359 36.0234 12.1979 35.6172 12.1573L35.4182 14.1474C35.8773 14.1933 36.1267 14.2201 36.2987 14.2598C36.4442 14.2934 36.3945 14.3071 36.3327 14.2388L37.8156 12.8968ZM38.3327 15.1438C38.3327 14.7404 38.3346 14.342 38.2922 14.0125C38.246 13.6547 38.1346 13.2492 37.8156 12.8968L36.3327 14.2388C36.2723 14.1721 36.29 14.1245 36.3086 14.2682C36.3307 14.4402 36.3327 14.687 36.3327 15.1438H38.3327ZM38.3327 16.8572V15.1438H36.3327V16.8572H38.3327ZM37.8156 19.1042C38.1346 18.7517 38.246 18.3462 38.2922 17.9884C38.3346 17.659 38.3327 17.2605 38.3327 16.8572H36.3327C36.3327 17.314 36.3307 17.5608 36.3086 17.7328C36.29 17.8765 36.2723 17.8289 36.3327 17.7622L37.8156 19.1042ZM35.6172 19.8437C36.0234 19.8031 36.4229 19.765 36.7482 19.69C37.0999 19.6089 37.4952 19.4582 37.8156 19.1042L36.3327 17.7622C36.3945 17.6938 36.4442 17.7076 36.2987 17.7412C36.1267 17.7808 35.8772 17.8077 35.4182 17.8536L35.6172 19.8437ZM33.7333 20.0321C33.6599 20.2093 33.5163 20.1628 33.8721 20.0739C34.2259 19.9854 34.7573 19.9297 35.6172 19.8437L35.4182 17.8536C34.6252 17.9329 33.917 18.0011 33.3872 18.1335C32.8593 18.2655 32.188 18.5367 31.8856 19.2667L33.7333 20.0321ZM34.932 21.4971C34.3848 20.8284 34.0486 20.4133 33.861 20.1006C33.6723 19.7862 33.8067 19.8549 33.7333 20.0321L31.8856 19.2667C31.5832 19.9967 31.8661 20.6632 32.146 21.1297C32.427 21.598 32.8796 22.1469 33.3841 22.7636L34.932 21.4971ZM34.9901 21.5757L34.9901 21.5757L33.326 22.6851L33.326 22.6851L34.9901 21.5757ZM35.9636 23.5745C35.9873 23.0976 35.8144 22.7115 35.623 22.4055C35.4461 22.1224 35.1905 21.8131 34.932 21.4972L33.3841 22.7636C33.6762 23.1207 33.8336 23.316 33.9272 23.4657C34.0063 23.5923 33.9614 23.5669 33.966 23.4749L35.9636 23.5745ZM34.7403 25.529C35.0255 25.2438 35.3086 24.9634 35.5116 24.7004C35.732 24.4148 35.9399 24.0492 35.9636 23.5745L33.966 23.4748C33.9705 23.3849 34.0167 23.3638 33.9282 23.4786C33.8222 23.6159 33.6491 23.7917 33.3261 24.1148L34.7403 25.529ZM33.5288 26.7405L34.7403 25.529L33.3261 24.1148L32.1146 25.3263L33.5288 26.7405ZM31.5743 27.9638C32.049 27.9401 32.4146 27.7322 32.7002 27.5118C32.9632 27.3088 33.2436 27.0258 33.5288 26.7405L32.1146 25.3263C31.7915 25.6494 31.6157 25.8224 31.4784 25.9284C31.3636 26.017 31.3847 25.9707 31.4746 25.9662L31.5743 27.9638ZM29.4971 26.9323C29.8129 27.1908 30.1223 27.4463 30.4053 27.6233C30.7114 27.8146 31.0975 27.9875 31.5743 27.9638L31.4746 25.9662C31.5666 25.9617 31.5921 26.0065 31.4655 25.9274C31.3159 25.8339 31.1205 25.6765 30.7635 25.3844L29.4971 26.9323ZM28.0323 25.7339C27.8552 25.8073 27.7864 25.6728 28.1008 25.8615C28.4134 26.049 28.8284 26.3852 29.4971 26.9323L30.7635 25.3844C30.147 24.88 29.598 24.4275 29.1298 24.1465C28.6633 23.8666 27.9969 23.5838 27.2669 23.8861L28.0323 25.7339ZM27.8439 27.618C27.9299 26.758 27.9856 26.2266 28.0741 25.8727C28.163 25.5168 28.2095 25.6605 28.0323 25.7339L27.2669 23.8861C26.5369 24.1885 26.2656 24.86 26.1337 25.3878C26.0013 25.9177 25.9331 26.626 25.8538 27.419L27.8439 27.618ZM27.1043 29.8166C27.4584 29.4962 27.6091 29.1008 27.6902 28.7491C27.7652 28.4238 27.8032 28.0243 27.8439 27.618L25.8538 27.419C25.8079 27.8781 25.781 28.1276 25.7413 28.2996C25.7078 28.4452 25.694 28.3955 25.7623 28.3337L27.1043 29.8166ZM24.8573 30.3337C25.2607 30.3337 25.6591 30.3356 25.9886 30.2931C26.3464 30.247 26.7519 30.1355 27.1043 29.8166L25.7623 28.3337C25.8291 28.2732 25.8767 28.291 25.733 28.3095C25.5609 28.3317 25.3142 28.3337 24.8573 28.3337V30.3337ZM23.144 30.3337H24.8573V28.3337H23.144V30.3337ZM20.897 29.8166C21.2494 30.1355 21.6549 30.247 22.0127 30.2931C22.3422 30.3356 22.7406 30.3337 23.144 30.3337V28.3337C22.6871 28.3337 22.4404 28.3317 22.2683 28.3095C22.1246 28.291 22.1722 28.2732 22.239 28.3337L20.897 29.8166ZM20.1574 27.6178C20.198 28.0242 20.2361 28.4237 20.3111 28.749C20.3922 29.1008 20.5429 29.4962 20.897 29.8166L22.239 28.3337C22.3073 28.3955 22.2935 28.4453 22.26 28.2996C22.2203 28.1276 22.1934 27.878 22.1475 27.4188L20.1574 27.6178ZM19.969 25.7334C19.7917 25.66 19.8382 25.5163 19.9272 25.8723C20.0156 26.2262 20.0714 26.7578 20.1574 27.6178L22.1475 27.4188C22.0682 26.6257 22 25.9174 21.8675 25.3874C21.7356 24.8596 21.4644 24.1881 20.7343 23.8857L19.969 25.7334ZM18.5033 26.9326C19.1723 26.3853 19.5876 26.0489 19.9003 25.8611C20.215 25.6723 20.1462 25.8068 19.969 25.7334L20.7343 23.8857C20.0043 23.5833 19.3377 23.8663 18.8712 24.1463C18.4028 24.4273 17.8537 24.88 17.2368 25.3847L18.5033 26.9326ZM16.4257 27.9644C16.9026 27.9882 17.2887 27.8151 17.5948 27.6238C17.8779 27.4468 18.1873 27.1912 18.5033 26.9326L17.2368 25.3847C16.8797 25.6769 16.6842 25.8343 16.5345 25.9279C16.4078 26.0072 16.4332 25.9623 16.5253 25.9668L16.4257 27.9644ZM14.4712 26.7411C14.7564 27.0264 15.0368 27.3095 15.2998 27.5124C15.5854 27.7328 15.9509 27.9407 16.4257 27.9644L16.5253 25.9668C16.6152 25.9713 16.6363 26.0176 16.5216 25.929C16.3843 25.8231 16.2084 25.65 15.8854 25.3269L14.4712 26.7411ZM14.4257 26.6925L14.4257 26.6925L15.9309 25.3755L15.9309 25.3755L14.4257 26.6925ZM13.2596 25.5296L14.4712 26.7411L15.8854 25.3269L14.6738 24.1154L13.2596 25.5296ZM12.0364 23.5751C12.0601 24.0498 12.268 24.4154 12.4884 24.701C12.6913 24.964 12.9744 25.2444 13.2596 25.5296L14.6738 24.1154C14.3508 23.7923 14.1777 23.6165 14.0717 23.4792C13.9832 23.3644 14.0294 23.3855 14.0339 23.4755L12.0364 23.5751ZM13.068 21.4976C12.8095 21.8136 12.5539 22.123 12.377 22.406C12.1856 22.7121 12.0126 23.0982 12.0364 23.5751L14.0339 23.4755C14.0385 23.5675 13.9936 23.5929 14.0728 23.4663C14.1664 23.3166 14.3238 23.1212 14.616 22.7641L13.068 21.4976ZM14.267 20.0322C14.1936 19.855 14.3281 19.7863 14.1393 20.1008C13.9516 20.4135 13.6153 20.8287 13.068 21.4976L14.616 22.7641C15.1206 22.1473 15.5732 21.5983 15.8542 21.1299C16.1342 20.6635 16.4171 19.9969 16.1147 19.2669L14.267 20.0322ZM12.3821 19.8437C13.2423 19.9298 13.774 19.9856 14.128 20.074C14.4842 20.163 14.3404 20.2096 14.267 20.0322L16.1147 19.2669C15.8123 18.5367 15.1407 18.2655 14.6128 18.1337C14.0828 18.0012 13.3744 17.933 12.5811 17.8537L12.3821 19.8437ZM10.1831 19.1042C10.5035 19.4582 10.899 19.6089 11.2507 19.69C11.5761 19.7651 11.9757 19.8031 12.3821 19.8437L12.5811 17.8537C12.1218 17.8077 11.8722 17.7809 11.7001 17.7412C11.5544 17.7076 11.6041 17.6938 11.666 17.7622L10.1831 19.1042ZM9.66602 16.8572C9.66602 17.2605 9.66407 17.659 9.70654 17.9884C9.75265 18.3462 9.86415 18.7517 10.1831 19.1042L11.666 17.7622C11.7264 17.8289 11.7087 17.8765 11.6901 17.7328C11.668 17.5608 11.666 17.314 11.666 16.8572H9.66602ZM9.66602 15.1438L9.66602 16.8572H11.666L11.666 15.1438H9.66602ZM10.1831 12.8968C9.86415 13.2492 9.75265 13.6547 9.70654 14.0125C9.66407 14.342 9.66602 14.7404 9.66602 15.1438H11.666C11.666 14.687 11.668 14.4402 11.6901 14.2682C11.7087 14.1245 11.7264 14.1721 11.666 14.2388L10.1831 12.8968ZM12.382 12.1572C11.9756 12.1979 11.576 12.2359 11.2507 12.3109C10.899 12.392 10.5035 12.5427 10.1831 12.8968L11.666 14.2388C11.6041 14.3072 11.5544 14.2934 11.7001 14.2598C11.8722 14.2201 12.1218 14.1932 12.581 14.1473L12.382 12.1572ZM14.2668 11.9688C14.3402 11.7915 14.484 11.838 14.1278 11.927C13.7738 12.0154 13.2422 12.0712 12.382 12.1572L12.581 14.1473C13.3742 14.068 14.0827 13.9998 14.6127 13.8673C15.1405 13.7354 15.8121 13.4642 16.1145 12.7341L14.2668 11.9688ZM13.0671 10.5025C13.6146 11.1717 13.9512 11.5871 14.139 11.9C14.3279 12.2148 14.1933 12.1461 14.2668 11.9688L16.1145 12.7341C16.417 12.004 16.1338 11.3373 15.8538 10.8708C15.5727 10.4024 15.1199 9.85313 14.6151 9.23607L13.0671 10.5025ZM12.0352 8.42465C12.0114 8.9016 12.1844 9.28778 12.3758 9.59385C12.5528 9.87696 12.8085 10.1864 13.0671 10.5025L14.6151 9.23607C14.3228 8.87885 14.1653 8.68331 14.0716 8.53354C13.9923 8.40674 14.0373 8.43216 14.0327 8.52428L12.0352 8.42465ZM13.2584 6.47014C12.9732 6.75536 12.6901 7.03571 12.4871 7.29872C12.2667 7.58432 12.0588 7.94989 12.0352 8.42465L14.0327 8.52428C14.0282 8.6142 13.982 8.63529 14.0705 8.52056C14.1765 8.38323 14.3496 8.20739 14.6726 7.88435L13.2584 6.47014ZM14.4699 5.2586L13.2584 6.47014L14.6726 7.88435L15.8841 6.67281L14.4699 5.2586ZM16.4244 4.03537C15.9497 4.05905 15.5841 4.26693 15.2985 4.48733C15.0355 4.69028 14.7552 4.97337 14.4699 5.2586L15.8841 6.67281C16.2072 6.34978 16.383 6.17668 16.5204 6.07071C16.6351 5.98218 16.614 6.0284 16.5241 6.03289L16.4244 4.03537ZM18.5025 5.06746C18.1863 4.80878 17.8768 4.55309 17.5937 4.37606C17.2876 4.18468 16.9014 4.01158 16.4244 4.03537L16.5241 6.03289C16.4319 6.03748 16.4065 5.99253 16.5334 6.07185C16.6832 6.16551 16.8787 6.32307 17.236 6.61538L18.5025 5.06746ZM19.969 6.26732C20.1463 6.19385 20.2151 6.32847 19.9002 6.13945C19.5872 5.95162 19.1717 5.61502 18.5025 5.06746L17.236 6.61538C17.8532 7.12032 18.4025 7.57311 18.8709 7.85428C19.3374 8.13427 20.0042 8.41753 20.7343 8.11508L19.969 6.26732ZM20.1574 4.38283C20.0714 5.24295 20.0156 5.7745 19.9272 6.12844C19.8382 6.48448 19.7917 6.34074 19.969 6.26732L20.7343 8.11508C21.4644 7.81267 21.7356 7.14112 21.8675 6.6133C22 6.08336 22.0682 5.37498 22.1475 4.58184L20.1574 4.38283ZM20.897 2.18409C20.5429 2.5045 20.3922 2.89989 20.3111 3.25163C20.2361 3.57695 20.198 3.97651 20.1574 4.38284L22.1475 4.58184C22.1934 4.12267 22.2203 3.8731 22.26 3.70104C22.2935 3.55539 22.3073 3.60513 22.239 3.66699L20.897 2.18409ZM23.144 1.66699C22.7406 1.66699 22.3422 1.66505 22.0127 1.70751C21.6549 1.75363 21.2494 1.86513 20.897 2.18409L22.239 3.66699C22.1722 3.72741 22.1246 3.70963 22.2683 3.69111C22.4404 3.66893 22.6871 3.66699 23.144 3.66699V1.66699ZM24.8573 1.66699H23.144V3.66699H24.8573V1.66699ZM27.1043 2.18409C26.7519 1.86513 26.3464 1.75363 25.9886 1.70751C25.6591 1.66505 25.2607 1.66699 24.8573 1.66699V3.66699C25.3142 3.66699 25.5609 3.66893 25.733 3.69111C25.8767 3.70963 25.8291 3.72741 25.7623 3.66699L27.1043 2.18409ZM28.3333 16.0003C28.3333 18.3936 26.3932 20.3337 24 20.3337V22.3337C27.4978 22.3337 30.3333 19.4981 30.3333 16.0003H28.3333ZM24 11.667C26.3932 11.667 28.3333 13.6071 28.3333 16.0003H30.3333C30.3333 12.5025 27.4978 9.66699 24 9.66699V11.667ZM19.6667 16.0003C19.6667 13.6071 21.6068 11.667 24 11.667V9.66699C20.5022 9.66699 17.6667 12.5025 17.6667 16.0003H19.6667ZM24 20.3337C21.6068 20.3337 19.6667 18.3936 19.6667 16.0003H17.6667C17.6667 19.4981 20.5022 22.3337 24 22.3337V20.3337Z" fill="#8C8FA7"/>
</svg>
