<svg width="41" height="38" viewBox="0 0 41 38" fill="none" xmlns="http://www.w3.org/2000/svg">
<path d="M8.43182 22.5557H13.0096L13.0096 27.1334L8.43182 27.1334V22.5557Z" fill="#8C8FA7" stroke="#8C8FA7" stroke-width="2" stroke-linecap="round" stroke-linejoin="round"/>
<path d="M18.2985 22.5557H22.8762L22.8762 27.1334L18.2985 27.1334V22.5557Z" fill="#8C8FA7" stroke="#8C8FA7" stroke-width="2" stroke-linecap="round" stroke-linejoin="round"/>
<path d="M28.1652 22.5557H32.7429L32.7429 27.1334L28.1652 27.1334V22.5557Z" fill="#8C8FA7" stroke="#8C8FA7" stroke-width="2" stroke-linecap="round" stroke-linejoin="round"/>
<path d="M8.43182 12.6885H13.0096L13.0096 17.2663L8.43182 17.2663V12.6885Z" fill="#8C8FA7" stroke="#8C8FA7" stroke-width="2" stroke-linecap="round" stroke-linejoin="round"/>
<path d="M18.2985 12.6885H22.8762L22.8762 17.2663L18.2985 17.2663V12.6885Z" fill="#8C8FA7" stroke="#8C8FA7" stroke-width="2" stroke-linecap="round" stroke-linejoin="round"/>
<path d="M28.1652 12.6885H32.7429L32.7429 17.2663L28.1652 17.2663V12.6885Z" fill="#8C8FA7" stroke="#8C8FA7" stroke-width="2" stroke-linecap="round" stroke-linejoin="round"/>
<path d="M1.02948 3.4668H39.3184V7.22235L1.02948 7.22235L1.02948 3.4668Z" fill="#8C8FA7" stroke="#8C8FA7" stroke-width="2" stroke-linecap="round" stroke-linejoin="round"/>
<path d="M7.6076 1H33.5632V4.75556L7.6076 4.75556L7.6076 1Z" fill="#8C8FA7" stroke="#8C8FA7" stroke-width="2" stroke-linecap="round" stroke-linejoin="round"/>
<path d="M1.02948 36.5332H39.3184V36.9999L1.02948 36.9999L1.02948 36.5332Z" fill="#8C8FA7" stroke="#8C8FA7" stroke-width="2" stroke-linecap="round" stroke-linejoin="round"/>
<path d="M3.99823 7V36H36.9982V7" stroke="#8C8FA7" stroke-width="2"/>
</svg>
