<svg width="69" height="68" viewBox="0 0 69 68" fill="none" xmlns="http://www.w3.org/2000/svg">
<path d="M39.9982 27H52.9982V45.3333C52.9982 48.0046 52.9982 49.3403 52.1683 50.1701C51.3384 51 50.0028 51 47.3315 51H39.9982V27Z" stroke="#8C8FA7" stroke-width="2" stroke-linecap="round"/>
<path d="M13.9982 27H26.9982V51H19.6648C16.9935 51 15.6579 51 14.828 50.1701C13.9982 49.3403 13.9982 48.0046 13.9982 45.3333V27Z" stroke="#8C8FA7" stroke-width="2" stroke-linecap="round"/>
<rect x="26.9982" y="27" width="13" height="24" stroke="#8C8FA7" stroke-width="2" stroke-linecap="round"/>
<path d="M13.9982 21.6667C13.9982 18.9954 13.9982 17.6597 14.828 16.8299C15.6579 16 16.9935 16 19.6648 16H47.3315C50.0028 16 51.3384 16 52.1683 16.8299C52.9982 17.6597 52.9982 18.9954 52.9982 21.6667V27H13.9982V21.6667Z" fill="#8C8FA7" stroke="#8C8FA7" stroke-width="2" stroke-linecap="round"/>
</svg>
