<?xml version="1.0" encoding="utf-8"?>
<!-- Generator: Adobe Illustrator 24.2.1, SVG Export Plug-In . SVG Version: 6.00 Build 0)  -->
<svg version="1.1" id="Layer_1" xmlns="http://www.w3.org/2000/svg" xmlns:xlink="http://www.w3.org/1999/xlink" x="0px" y="0px"
	 viewBox="0 0 32 40" style="enable-background:new 0 0 32 40;" xml:space="preserve">
<style type="text/css">
	.st0{fill:none;stroke:#8C8FA7;stroke-width:2.5024;}
	.st1{fill:#8C8FA7;}
</style>
<g>
	<path class="st0" d="M18.4,1.2H9.7c-3.9,0-5.9,0-7.1,1.2C1.4,3.7,1.4,5.6,1.4,9.6v20.9c0,3.9,0,5.9,1.2,7.1
		c1.2,1.2,3.2,1.2,7.1,1.2h12.5c3.9,0,5.9,0,7.1-1.2c1.2-1.2,1.2-3.2,1.2-7.1v-17c0-0.9,0-1.3-0.2-1.7c-0.2-0.4-0.5-0.7-1.1-1.3
		l-8-8c-0.6-0.6-0.9-0.9-1.3-1.1C19.7,1.2,19.3,1.2,18.4,1.2z"/>
	<path class="st0" d="M18.1,1.2v8.3c0,2,0,2.9,0.6,3.6c0.6,0.6,1.6,0.6,3.6,0.6h8.3"/>
	<path class="st1" d="M8.9,20.3l1.5,2.6h0.1l1.5-2.6h2.2l-2.4,4l2.5,4h-2.2l-1.5-2.6h-0.1l-1.5,2.6H6.6l2.5-4l-2.4-4H8.9z"/>
	<path class="st1" d="M17.6,28.5c-0.6,0-1.2-0.1-1.6-0.4c-0.5-0.3-0.8-0.6-1.1-1.1c-0.2-0.5-0.4-1-0.4-1.6c0-0.6,0.1-1.2,0.4-1.6
		c0.2-0.5,0.6-0.8,1.1-1.1c0.5-0.3,1-0.4,1.6-0.4c0.6,0,1,0.1,1.5,0.3c0.4,0.2,0.7,0.5,1,0.9c0.2,0.4,0.4,0.8,0.4,1.3h-1.8
		c0-0.3-0.1-0.6-0.3-0.7c-0.2-0.2-0.4-0.3-0.7-0.3c-0.2,0-0.4,0.1-0.6,0.2c-0.2,0.1-0.3,0.3-0.4,0.6c-0.1,0.2-0.1,0.5-0.1,0.9
		c0,0.4,0,0.7,0.1,0.9c0.1,0.2,0.2,0.4,0.4,0.6c0.2,0.1,0.4,0.2,0.6,0.2c0.2,0,0.3,0,0.5-0.1c0.1-0.1,0.3-0.2,0.3-0.3
		c0.1-0.2,0.1-0.3,0.2-0.5h1.8c0,0.5-0.1,0.9-0.4,1.3c-0.2,0.4-0.6,0.7-1,0.9C18.7,28.4,18.2,28.5,17.6,28.5z"/>
	<path class="st1" d="M23.3,20.3v8.1h-1.9v-8.1H23.3z"/>
</g>
</svg>
