<svg width="34" height="34" viewBox="0 0 34 34" fill="none" xmlns="http://www.w3.org/2000/svg">
<path d="M9 21.5C9 21.2239 9.22386 21 9.5 21H24.5C24.7761 21 25 21.2239 25 21.5V34H9V21.5Z" fill="white"/>
<path d="M0 14.5L2 13L17 3L32 13L34 14.5V11.5L32 10L17 0L2 10L0 11.5V14.5Z" fill="white"/>
<path fill-rule="evenodd" clip-rule="evenodd" d="M7 34H2V14L17 4L32 14V34H27V19.5C27 19.2239 26.7761 19 26.5 19H7.5C7.22386 19 7 19.2239 7 19.5V34ZM7 12.5C7 12.2239 7.22386 12 7.5 12H11.5C11.7761 12 12 12.2239 12 12.5V14.5C12 14.7761 11.7761 15 11.5 15H7.5C7.22386 15 7 14.7761 7 14.5V12.5ZM15 12C14.7239 12 14.5 12.2239 14.5 12.5V14.5C14.5 14.7761 14.7239 15 15 15H19C19.2761 15 19.5 14.7761 19.5 14.5V12.5C19.5 12.2239 19.2761 12 19 12H15ZM22 12.5C22 12.2239 22.2239 12 22.5 12H26.5C26.7761 12 27 12.2239 27 12.5V14.5C27 14.7761 26.7761 15 26.5 15H22.5C22.2239 15 22 14.7761 22 14.5V12.5Z" fill="white"/>
</svg>
