<svg width="17" height="24" viewBox="0 0 17 24" fill="none" xmlns="http://www.w3.org/2000/svg">
<path d="M7.75515 19.3196C6.53356 19.3149 5.48242 19.0142 4.60174 18.4176C3.72579 17.821 3.05108 16.9569 2.57759 15.8253C2.10884 14.6937 1.87683 13.3324 1.88157 11.7415C1.88157 10.1553 2.11594 8.8035 2.58469 7.68608C3.05818 6.56865 3.7329 5.71875 4.60884 5.13636C5.48952 4.54924 6.53829 4.25568 7.75515 4.25568C8.97201 4.25568 10.0184 4.54924 10.8944 5.13636C11.775 5.72348 12.4521 6.57576 12.9256 7.69318C13.3991 8.80587 13.6335 10.1553 13.6287 11.7415C13.6287 13.3371 13.392 14.7008 12.9185 15.8324C12.4498 16.964 11.7774 17.8281 10.9015 18.4247C10.0255 19.0213 8.97674 19.3196 7.75515 19.3196ZM7.75515 16.7699C8.58848 16.7699 9.25373 16.3509 9.75089 15.5128C10.248 14.6747 10.4943 13.4176 10.4895 11.7415C10.4895 10.6383 10.3759 9.7197 10.1486 8.9858C9.92608 8.25189 9.60884 7.70028 9.19691 7.33097C8.78971 6.96165 8.30913 6.77699 7.75515 6.77699C6.92655 6.77699 6.26367 7.19129 5.76651 8.01989C5.26935 8.84848 5.01841 10.089 5.01367 11.7415C5.01367 12.8589 5.12494 13.7917 5.34748 14.5398C5.57475 15.2831 5.89435 15.8419 6.30629 16.2159C6.71822 16.5852 7.20117 16.7699 7.75515 16.7699Z" fill="#F37870"/>
<line x1="15.6788" y1="2.04866" x2="1.96241" y2="22.9499" stroke="white" stroke-width="2"/>
<line x1="14.6788" y1="1.04866" x2="0.962411" y2="21.9499" stroke="#8C8FA7" stroke-width="2"/>
</svg>
