<svg width="10" height="11" viewBox="0 0 10 11" fill="none" xmlns="http://www.w3.org/2000/svg">
<path d="M9.41337 9.63623H1.17808C0.853206 9.63623 0.589844 9.89959 0.589844 10.2245C0.589844 10.5493 0.853206 10.8127 1.17808 10.8127H9.41337C9.73825 10.8127 10.0016 10.5493 10.0016 10.2245C10.0016 9.89959 9.73825 9.63623 9.41337 9.63623Z" fill="white"/>
<path d="M0.589844 9.04804V10.2245C0.589844 10.5494 0.853206 10.8127 1.17808 10.8127C1.50295 10.8127 1.76631 10.5494 1.76631 10.2245V9.04804C1.76631 8.72317 1.50295 8.4598 1.17808 8.4598C0.853206 8.4598 0.589844 8.72317 0.589844 9.04804Z" fill="white"/>
<path d="M8.82422 9.04804V10.2245C8.82422 10.5494 9.08758 10.8127 9.41245 10.8127C9.73733 10.8127 10.0007 10.5494 10.0007 10.2245V9.04804C10.0007 8.72317 9.73733 8.4598 9.41245 8.4598C9.08758 8.4598 8.82422 8.72317 8.82422 9.04804Z" fill="white"/>
<path d="M5.29748 7.8716C5.17553 7.87252 5.0563 7.83552 4.9563 7.76572L2.60336 6.10689C2.47654 6.01693 2.3905 5.88042 2.36405 5.7272C2.33759 5.57398 2.37288 5.41652 2.46218 5.28925C2.50676 5.22563 2.5635 5.17147 2.62913 5.1299C2.69475 5.08832 2.76796 5.06016 2.84453 5.04704C2.92109 5.03391 2.9995 5.03608 3.07523 5.05342C3.15095 5.07076 3.22249 5.10293 3.28571 5.14807L5.29748 6.55395L7.29748 5.04807C7.42229 4.95446 7.57917 4.91427 7.73361 4.93633C7.88805 4.9584 8.0274 5.04091 8.12101 5.16572C8.21461 5.29052 8.25481 5.4474 8.23274 5.60185C8.21068 5.75629 8.12817 5.89564 8.00336 5.98925L5.65042 7.75395C5.5486 7.83032 5.42475 7.8716 5.29748 7.8716Z" fill="white"/>
<path d="M5.29527 6.6951C5.13926 6.6951 4.98964 6.63312 4.87932 6.52281C4.76901 6.41249 4.70703 6.26287 4.70703 6.10686V1.40098C4.70703 1.24497 4.76901 1.09535 4.87932 0.985034C4.98964 0.874719 5.13926 0.812744 5.29527 0.812744C5.45128 0.812744 5.6009 0.874719 5.71121 0.985034C5.82153 1.09535 5.8835 1.24497 5.8835 1.40098V6.10686C5.8835 6.26287 5.82153 6.41249 5.71121 6.52281C5.6009 6.63312 5.45128 6.6951 5.29527 6.6951Z" fill="white"/>
</svg>
