<svg width="10" height="12" viewBox="0 0 10 12" fill="none" xmlns="http://www.w3.org/2000/svg">
<path d="M5.5 11.3125C5.5 11.5886 5.27614 11.8125 5 11.8125C4.72386 11.8125 4.5 11.5886 4.5 11.3125H5.5ZM4.64645 0.958946C4.84171 0.763684 5.15829 0.763684 5.35355 0.958946L8.53553 4.14093C8.7308 4.33619 8.7308 4.65277 8.53553 4.84803C8.34027 5.0433 8.02369 5.0433 7.82843 4.84803L5 2.01961L2.17157 4.84803C1.97631 5.0433 1.65973 5.0433 1.46447 4.84803C1.2692 4.65277 1.2692 4.33619 1.46447 4.14093L4.64645 0.958946ZM4.5 11.3125L4.5 1.3125H5.5L5.5 11.3125H4.5Z" fill="#038F00"/>
</svg>
