<?xml version="1.0" encoding="utf-8"?>
<!-- Generator: Adobe Illustrator 24.2.1, SVG Export Plug-In . SVG Version: 6.00 Build 0)  -->
<svg version="1.1" id="Layer_1" xmlns="http://www.w3.org/2000/svg" xmlns:xlink="http://www.w3.org/1999/xlink" x="0px" y="0px"
	 viewBox="0 0 14 14" style="enable-background:new 0 0 14 14;" xml:space="preserve">
<style type="text/css">
	.st0{display:none;}
	.st1{display:inline;fill:#FF0000;}
	.st2{fill:#FFFFFF;stroke:#000000;stroke-width:1.2254;stroke-miterlimit:10;}
	.st3{fill:#FF0000;}
</style>
<g class="st0">
	<path class="st1" d="M-28.4,0.8v6h-1.1v-6H-28.4z"/>
	<path class="st1" d="M-26.3,4.2v2.6h-1V2.3h1v0.8h0.1c0.1-0.3,0.2-0.5,0.4-0.6c0.2-0.1,0.5-0.2,0.8-0.2c0.3,0,0.6,0.1,0.8,0.2
		c0.2,0.1,0.4,0.3,0.5,0.6s0.2,0.6,0.2,0.9v2.8h-0.9V4.1c0-0.3-0.1-0.5-0.2-0.7c-0.2-0.2-0.4-0.3-0.7-0.3c-0.2,0-0.3,0-0.5,0.1
		c-0.1,0.1-0.3,0.3-0.3,0.4C-26.2,3.8-26.3,3.9-26.3,4.2z"/>
	<path class="st1" d="M-18.5,2.3l-1.6,4.5h-1.2l-1.6-4.5h1.1l1,3.3l0,0l1-3.3H-18.5z"/>
</g>
<g>
	<path class="st2" d="M3.4,0.6h7.1c1.5,0,2.8,1.3,2.8,2.8v7.1c0,1.5-1.3,2.8-2.8,2.8H3.4c-1.5,0-2.8-1.3-2.8-2.8V3.4
		C0.6,1.9,1.9,0.6,3.4,0.6z"/>
	<g>
		<g>
			<path class="st3" d="M6.4,4.3v5.4h1.2V4.3H6.4z"/>
		</g>
		<g>
			<path class="st3" d="M4.9,5.4h4.2V4.3H4.9V5.4z"/>
		</g>
		<g>
			<path class="st3" d="M4.9,9.7h4.2V8.6H4.9V9.7z"/>
		</g>
	</g>
</g>
</svg>
