<?xml version="1.0" encoding="utf-8"?>
<!-- Generator: Adobe Illustrator 24.2.1, SVG Export Plug-In . SVG Version: 6.00 Build 0)  -->
<svg version="1.1" id="Layer_1" xmlns="http://www.w3.org/2000/svg" xmlns:xlink="http://www.w3.org/1999/xlink" x="0px" y="0px"
	 viewBox="0 0 14 14" style="enable-background:new 0 0 14 14;" xml:space="preserve">
<style type="text/css">
	.st0{display:none;}
	.st1{display:inline;fill:#FF0000;}
	.st2{fill:#FFFFFF;stroke:#000000;stroke-width:1.2254;stroke-miterlimit:10;}
	.st3{fill:#FF0000;}
</style>
<g class="st0">
	<path class="st1" d="M-28.4,0.8v6h-1.1v-6C-29.5,0.8-28.4,0.8-28.4,0.8z"/>
	<path class="st1" d="M-26.3,4.2v2.6h-1V2.3h1v0.8h0.1c0.1-0.3,0.2-0.5,0.4-0.6c0.2-0.1,0.5-0.2,0.8-0.2s0.6,0.1,0.8,0.2
		c0.2,0.1,0.4,0.3,0.5,0.6s0.2,0.6,0.2,0.9v2.8h-0.9V4.1c0-0.3-0.1-0.5-0.2-0.7c-0.2-0.2-0.4-0.3-0.7-0.3c-0.2,0-0.3,0-0.5,0.1
		c-0.1,0.1-0.3,0.3-0.3,0.4C-26.2,3.8-26.3,3.9-26.3,4.2z"/>
	<path class="st1" d="M-18.5,2.3l-1.6,4.5h-1.2l-1.6-4.5h1.1l1,3.3l0,0l1-3.3C-19.8,2.3-18.5,2.3-18.5,2.3z"/>
</g>
<g>
	<path class="st2" d="M3.4,0.6h7.1c1.5,0,2.8,1.3,2.8,2.8v7.1c0,1.5-1.3,2.8-2.8,2.8H3.4c-1.5,0-2.8-1.3-2.8-2.8V3.4
		C0.6,1.9,1.9,0.6,3.4,0.6z"/>
	<g>
		<path class="st3" d="M9.2,8.4L8,6.7L7.2,5.6H8l1.1,1.6L10,8.4H9.2z M8.9,7.6L8.7,7.2c0.1,0,0.2,0,0.3-0.1C9,7,9.1,6.9,9.1,6.8
			c0-0.1,0-0.3,0-0.4V5.6h0.7v0.7c0,0.2,0,0.4-0.1,0.6C9.7,7.1,9.6,7.3,9.4,7.4S9.1,7.6,8.9,7.6z M7.3,8.4V7.6c0-0.2,0-0.4,0.1-0.6
			s0.2-0.3,0.3-0.5c0.1-0.1,0.3-0.2,0.5-0.2l0.2,0.4c-0.1,0-0.2,0-0.3,0.1C8.2,6.9,8.1,7,8.1,7.2C8,7.3,8,7.4,8,7.6v0.8H7.3z"/>
		<path class="st3" d="M5.4,8.4V7.8h0.9V6.4c0-0.1,0-0.1,0-0.2c0,0-0.1-0.1-0.2-0.1H5.5V5.6h0.7c0.2,0,0.4,0.1,0.5,0.2
			c0.1,0.1,0.2,0.3,0.2,0.5v2.1H5.4z"/>
		<path class="st3" d="M4.3,7.4L4,6.9V5.6h0.7v1.8H4.3z"/>
	</g>
</g>
</svg>
