<?xml version="1.0" encoding="utf-8"?>
<!-- Generator: Adobe Illustrator 24.2.1, SVG Export Plug-In . SVG Version: 6.00 Build 0)  -->
<svg version="1.1" id="Layer_1" xmlns="http://www.w3.org/2000/svg" xmlns:xlink="http://www.w3.org/1999/xlink" x="0px" y="0px"
	 viewBox="0 0 20 20" style="enable-background:new 0 0 20 20;" xml:space="preserve">
<style type="text/css">
	.st0{fill:#FFFFFF;stroke:#000000;stroke-width:0.75;stroke-miterlimit:10;}
	.st1{fill:#FF0000;}
</style>
<path class="st0" d="M4.7,0.5h10.5c2.3,0,4.2,1.9,4.2,4.2v10.5c0,2.3-1.9,4.2-4.2,4.2H4.7c-2.3,0-4.2-1.9-4.2-4.2V4.7
	C0.5,2.4,2.4,0.5,4.7,0.5z"/>
<g>
	<path class="st1" d="M5.6,7v6H4.5V7H5.6z"/>
	<path class="st1" d="M7.7,10.4V13H6.7V8.5h1v0.8h0.1C7.9,9,8,8.8,8.2,8.7c0.2-0.1,0.5-0.2,0.8-0.2c0.3,0,0.6,0.1,0.8,0.2
		c0.2,0.1,0.4,0.3,0.5,0.6c0.1,0.3,0.2,0.6,0.2,0.9V13H9.6v-2.7c0-0.3-0.1-0.5-0.2-0.7C9.2,9.4,9,9.3,8.7,9.3c-0.2,0-0.3,0-0.5,0.1
		C8.1,9.5,7.9,9.7,7.9,9.8C7.8,10,7.7,10.1,7.7,10.4z"/>
	<path class="st1" d="M15.5,8.5L13.9,13h-1.2l-1.6-4.5h1.1l1,3.3h0l1-3.3H15.5z"/>
</g>
</svg>
