<?xml version="1.0" encoding="utf-8"?>
<!-- Generator: Adobe Illustrator 24.2.1, SVG Export Plug-In . SVG Version: 6.00 Build 0)  -->
<svg version="1.1" id="Layer_1" xmlns="http://www.w3.org/2000/svg" xmlns:xlink="http://www.w3.org/1999/xlink" x="0px" y="0px"
	 viewBox="0 0 14.1 14" style="enable-background:new 0 0 14.1 14;" xml:space="preserve">
<style type="text/css">
	.st0{fill-rule:evenodd;clip-rule:evenodd;}
	.st1{fill:none;stroke:#000000;stroke-width:0.7179;stroke-linecap:round;}
	.st2{fill:#D9D9D9;stroke:#000000;stroke-width:0.7179;}
</style>
<g>
	<path class="st0" d="M10.7,14H6v-0.7h4.7V9.6h0.7v3.7C11.4,13.7,11.1,14,10.7,14z M11.4,8.9V0.7c0-0.4-0.3-0.7-0.7-0.7H6v0.7h4.7
		v8.2H11.4z M0.7,0.7h4.6V0H0.7C0.3,0,0,0.3,0,0.7v8.2h0.7V0.7z M0.7,9.6H0v3.7C0,13.7,0.3,14,0.7,14h4.6v-0.7H0.7V9.6z"/>
	<path class="st1" d="M1.8,2.6h1.4"/>
	<path class="st1" d="M1.8,3.9h1.4"/>
	<path class="st1" d="M1.8,5.2h1.4"/>
	<path class="st1" d="M1.8,6.5h1.4"/>
	<path class="st1" d="M5.3,2.6h3.6"/>
	<path class="st1" d="M5.3,3.9h3.6"/>
	<path class="st1" d="M5.3,5.2h3.6"/>
	<path class="st1" d="M5.3,6.5h2.2"/>
	<path class="st1" d="M1.8,9.6h4.4"/>
	<path class="st1" d="M1.8,11.4h4.4"/>
	<path class="st2" d="M13.7,10.5c0,1.7-1.4,3.1-3.2,3.1c-1.7,0-3.2-1.4-3.2-3.1s1.4-3.1,3.2-3.1C12.3,7.4,13.7,8.8,13.7,10.5z"/>
	<path class="st1" d="M10.8,8.8l0,2l-0.9,1.1"/>
</g>
</svg>
