<?xml version="1.0" encoding="utf-8"?>
<!-- Generator: Adobe Illustrator 24.2.1, SVG Export Plug-In . SVG Version: 6.00 Build 0)  -->
<svg version="1.1" id="Layer_1" xmlns="http://www.w3.org/2000/svg" xmlns:xlink="http://www.w3.org/1999/xlink" x="0px" y="0px"
	 viewBox="0 0 14 14" style="enable-background:new 0 0 14 14;" xml:space="preserve">
<style type="text/css">
	.st0{fill:#FFFFFF;stroke:#000000;stroke-width:1.2254;stroke-miterlimit:10;}
	.st1{fill:#FF0000;}
</style>
<g>
	<path class="st0" d="M3.4,0.6h7.1c1.5,0,2.8,1.3,2.8,2.8v7.1c0,1.5-1.3,2.8-2.8,2.8H3.4c-1.5,0-2.8-1.3-2.8-2.8V3.4
		C0.6,1.9,1.9,0.6,3.4,0.6z"/>
	<g>
		<path class="st1" d="M5,9.1V8.2h1.9c0.3,0,0.6-0.1,0.8-0.3c0.2-0.2,0.3-0.5,0.3-0.9c0-0.4-0.1-0.8-0.3-1C7.4,5.9,7.1,5.8,6.7,5.8
			H5.5V4.9h1.3c0.3,0,0.6,0,0.9,0.1C8,5.1,8.2,5.2,8.4,5.4c0.2,0.2,0.3,0.4,0.4,0.7C8.9,6.4,9,6.7,9,7c0,0.4-0.1,0.8-0.3,1.1
			C8.6,8.5,8.3,8.7,8,8.9S7.3,9.1,6.9,9.1H5z M6.4,7.6c-0.3,0-0.6-0.1-0.8-0.2C5.4,7.3,5.3,7.1,5.2,6.9C5.1,6.7,5,6.4,5,6.1V4.9h1.1
			V6c0,0.2,0,0.3,0.1,0.4c0,0.1,0.1,0.2,0.2,0.2c0.1,0,0.2,0,0.3,0c0,0,0.1,0,0.1,0c0,0,0.1,0,0.1,0v0.9c-0.1,0-0.1,0-0.2,0
			C6.6,7.6,6.5,7.6,6.4,7.6z"/>
	</g>
</g>
</svg>
