<?xml version="1.0" encoding="utf-8"?>
<!-- Generator: Adobe Illustrator 24.2.1, SVG Export Plug-In . SVG Version: 6.00 Build 0)  -->
<svg version="1.1" id="Layer_1" xmlns="http://www.w3.org/2000/svg" xmlns:xlink="http://www.w3.org/1999/xlink" x="0px" y="0px"
	 viewBox="0 0 14 14" style="enable-background:new 0 0 14 14;" xml:space="preserve">
<style type="text/css">
	.st0{fill:#FFFFFF;stroke:#000000;stroke-width:1.2254;stroke-miterlimit:10;}
	.st1{fill:#FF0000;}
</style>
<g>
	<path class="st0" d="M3.4,0.6h7.1c1.5,0,2.8,1.3,2.8,2.8v7.1c0,1.5-1.3,2.8-2.8,2.8H3.4c-1.5,0-2.8-1.3-2.8-2.8V3.4
		C0.6,1.9,1.9,0.6,3.4,0.6z"/>
	<g>
		<path class="st1" d="M5,9.7V4.3h2.1c0.4,0,0.8,0.1,1.1,0.2c0.3,0.2,0.5,0.4,0.7,0.6C9,5.4,9,5.8,9,6.1c0,0.4-0.1,0.7-0.2,1
			C8.7,7.4,8.4,7.6,8.1,7.7C7.8,7.9,7.5,8,7.1,8H5.7V7h1.2c0.2,0,0.4,0,0.5-0.1c0.1-0.1,0.3-0.2,0.3-0.3c0.1-0.1,0.1-0.3,0.1-0.5
			c0-0.2,0-0.3-0.1-0.5C7.7,5.5,7.6,5.4,7.4,5.3C7.3,5.3,7.1,5.2,6.9,5.2H6.1v4.5H5z"/>
	</g>
</g>
</svg>
