<?xml version="1.0" encoding="utf-8"?>
<!-- Generator: Adobe Illustrator 24.2.1, SVG Export Plug-In . SVG Version: 6.00 Build 0)  -->
<svg version="1.1" id="Layer_1" xmlns="http://www.w3.org/2000/svg" xmlns:xlink="http://www.w3.org/1999/xlink" x="0px" y="0px"
	 viewBox="0 0 20 20" style="enable-background:new 0 0 20 20;" xml:space="preserve">
<style type="text/css">
	.st0{fill:#FFFFFF;stroke:#000000;stroke-width:0.75;stroke-miterlimit:10;}
	.st1{fill:#FF0000;}
</style>
<path class="st0" d="M4.7,0.5h10.6c2.3,0,4.2,1.9,4.2,4.2v10.6c0,2.3-1.9,4.2-4.2,4.2H4.7c-2.3,0-4.2-1.9-4.2-4.2V4.7
	C0.5,2.4,2.4,0.5,4.7,0.5z"/>
<g>
	<path class="st1" d="M7.2,14V6H10c0.6,0,1.1,0.1,1.5,0.3c0.4,0.2,0.7,0.5,0.9,0.9c0.2,0.4,0.3,0.8,0.3,1.3c0,0.5-0.1,0.9-0.3,1.3
		c-0.2,0.4-0.5,0.7-0.9,0.9c-0.4,0.2-0.9,0.3-1.5,0.3h-2v-1h1.8c0.4,0,0.7-0.1,1-0.2c0.2-0.1,0.4-0.3,0.5-0.6
		c0.1-0.2,0.2-0.5,0.2-0.8c0-0.3-0.1-0.6-0.2-0.8c-0.1-0.2-0.3-0.4-0.5-0.5C10.6,7.1,10.3,7,9.9,7H8.4V14H7.2z"/>
</g>
</svg>
