<svg width="8" height="12" viewBox="0 0 8 12" fill="none" xmlns="http://www.w3.org/2000/svg">
<path d="M4.5 1.3125C4.5 1.03636 4.27614 0.8125 4 0.8125C3.72386 0.8125 3.5 1.03636 3.5 1.3125H4.5ZM3.64645 11.6661C3.84171 11.8613 4.15829 11.8613 4.35355 11.6661L7.53553 8.48407C7.7308 8.28881 7.7308 7.97223 7.53553 7.77697C7.34027 7.5817 7.02369 7.5817 6.82843 7.77697L4 10.6054L1.17157 7.77697C0.976311 7.5817 0.659728 7.5817 0.464466 7.77697C0.269204 7.97223 0.269204 8.28881 0.464466 8.48407L3.64645 11.6661ZM3.5 1.3125L3.5 11.3125H4.5L4.5 1.3125H3.5Z" fill="#FF0000"/>
</svg>
